<?xml version="1.0" encoding="UTF-8" standalone="no"?>
<!-- Created with Inkscape (http://www.inkscape.org/) -->

<svg
   xmlns:dc="http://purl.org/dc/elements/1.1/"
   xmlns:cc="http://creativecommons.org/ns#"
   xmlns:rdf="http://www.w3.org/1999/02/22-rdf-syntax-ns#"
   xmlns:svg="http://www.w3.org/2000/svg"
   xmlns="http://www.w3.org/2000/svg"
   xmlns:xlink="http://www.w3.org/1999/xlink"
   xmlns:sodipodi="http://sodipodi.sourceforge.net/DTD/sodipodi-0.dtd"
   xmlns:inkscape="http://www.inkscape.org/namespaces/inkscape"
   width="137.06889mm"
   height="25.430107mm"
   viewBox="0 0 137.06889 25.430107"
   version="1.1"
   id="svg8"
   inkscape:version="0.92.4 (5da689c313, 2019-01-14)"
   sodipodi:docname="StellarStarLogo.svg">
  <defs
     id="defs2">
    <clipPath
       clipPathUnits="userSpaceOnUse"
       id="clipPath1004">
      <use
         x="0"
         y="0"
         xlink:href="#g1000"
         id="use1006"
         width="100%"
         height="100%" />
    </clipPath>
  </defs>
  <sodipodi:namedview
     id="base"
     pagecolor="#ffffff"
     bordercolor="#666666"
     borderopacity="1.0"
     inkscape:pageopacity="0.0"
     inkscape:pageshadow="2"
     inkscape:zoom="1.4"
     inkscape:cx="222.54332"
     inkscape:cy="153.32149"
     inkscape:document-units="mm"
     inkscape:current-layer="layer1"
     showgrid="false"
     inkscape:window-width="1920"
     inkscape:window-height="1017"
     inkscape:window-x="-8"
     inkscape:window-y="-8"
     inkscape:window-maximized="1" />
  <metadata
     id="metadata5">
    <rdf:RDF>
      <cc:Work
         rdf:about="">
        <dc:format>image/svg+xml</dc:format>
        <dc:type
           rdf:resource="http://purl.org/dc/dcmitype/StillImage" />
        <dc:title />
      </cc:Work>
    </rdf:RDF>
  </metadata>
  <g
     inkscape:label="Layer 1"
     inkscape:groupmode="layer"
     id="layer1"
     transform="translate(-31.022472,-250.58386)">
    <text
       xml:space="preserve"
       style="font-style:normal;font-variant:normal;font-weight:normal;font-stretch:normal;font-size:22.57777786px;line-height:1.25;font-family:Lato;-inkscape-font-specification:Lato;letter-spacing:0px;word-spacing:0px;fill:#000000;fill-opacity:1;stroke:none;stroke-width:0.26458332"
       x="30.616072"
       y="67.568459"
       id="text817"><tspan
         sodipodi:role="line"
         id="tspan815"
         x="30.616072"
         y="67.568459"
         style="line-height:2;letter-spacing:-0.21431243px;stroke-width:0.26458332"><tspan
           style="font-style:normal;font-variant:normal;font-weight:bold;font-stretch:normal;line-height:2;font-family:Lato;-inkscape-font-specification:'Lato Bold';letter-spacing:-0.21431243px"
           id="tspan819"><tspan
             id="tspan1083"
             style="letter-spacing:-0.8387292px">ST</tspan><tspan
             id="tspan1275"
             style="letter-spacing:-1.31762493px">EL</tspan><tspan
             style="letter-spacing:0.14287502px"
             id="tspan823">L</tspan><tspan
             style="letter-spacing:-1.07420838px"
             id="tspan1267">A</tspan><tspan
             id="tspan1281"
             style="letter-spacing:-2.08227086px">R</tspan></tspan><tspan
           style="font-style:normal;font-variant:normal;font-weight:300;font-stretch:normal;line-height:2;font-family:Lato;-inkscape-font-specification:'Lato Light';letter-spacing:-0.91545832px"
           id="tspan821"><tspan
   style="letter-spacing:-1.22502089px"
   id="tspan1087">G</tspan>AZE</tspan></tspan></text>
    <g
       id="g1391"
       transform="matrix(0.26458333,0,0,0.26458333,199.09057,-83.665577)">
      <g
         id="g1389"
         transform="matrix(0.01032533,0.00219472,0.00219472,-0.01032533,-442.41033,487.61267)"
         style="stroke:#000000;stroke-opacity:1">
        <path
           id="path1385"
           d="m 7743.0217,4350.7695 c -85.1654,-20.815 -176.7393,-109.4954 -196.0205,-186.828 -19.2569,-77.2355 19.965,-198.5271 85.3654,-256.9853 36.1824,-32.2101 100.0857,-62.7777 169.4618,-80.0751 152.5305,-38.0301 372.5149,-160.1774 520.6662,-291.8291 186.2985,-164.2486 367.6933,-474.6523 421.838,-721.6891 42.6673,-200.0649 45.3756,-417.3752 4.8537,-579.8997 -31.1112,-124.7801 -4.2887,-236.6933 72.9303,-306.4462 73.8216,-66.8447 137.1819,-82.6422 233.7442,-58.279 128.2561,33.26 180.6205,108.5277 215.1538,306.1433 130.2415,767.0772 -198.5286,1516.062 -851.487,1944.0397 -105.0126,68.2316 -412.1485,203.7603 -531.0098,233.3957 -37.5504,9.3624 -104.9511,9.3683 -145.4961,-1.5472 z"
           inkscape:connector-curvature="0"
           style="stroke:#000000;stroke-opacity:1" />
      </g>
      <path
         id="path1387"
         d="m -367.11607,458.29998 c -0.40449,0.0125 -4.00881,1.34343 -7.98348,2.93508 -7.60232,3.02968 -7.91978,3.22136 -8.21339,4.71478 -0.0576,0.35119 0.0891,1.2598 0.34508,2.0271 l 0.47386,1.40196 -10.35894,4.13928 c -10.89739,4.35274 -11.03894,4.40886 -11.3294,5.95079 -0.0575,0.3512 0.0892,1.25981 0.34509,2.02711 l 0.47384,1.40196 -12.62518,5.03764 c -9.98236,3.97316 -12.72479,5.15903 -13.06636,5.62204 -0.75047,1.08435 -0.71909,1.82588 0.26653,4.43571 l 0.92014,2.48726 -6.95886,2.79147 c -7.29888,2.92626 -7.63668,3.10914 -7.92934,4.60298 -0.17543,0.83956 0.36368,2.19958 1.06725,2.6923 1.2371,0.88663 1.60804,0.78937 8.92946,-2.07999 l 6.98143,-2.73457 1.03392,2.44215 c 1.07024,2.5763 1.57532,3.49501 2.86439,3.42195 0.54529,0.0952 3.35675,-0.92033 13.35012,-4.86573 10.92832,-4.31522 12.6791,-4.9442 12.83324,-4.59582 0.57413,3.37331 3.12675,3.69264 5.33191,2.6566 l 9.4633,-3.75133 9.46329,-3.75132 0.61539,1.34584 c 0.66932,1.43929 1.28111,2.03264 2.40395,2.26039 1.01565,0.20439 15.60721,-5.58062 16.21532,-6.44476 0.96687,-1.36686 1.07251,-1.01531 -5.77,-18.31909 -3.55205,-9.00113 -6.68991,-16.6272 -6.95787,-16.93047 -0.62914,-0.71814 -1.24248,-0.98326 -2.18467,-0.92129 z m 3.82961,19.71136 5.22293,13.17561 -4.18508,1.64214 -4.17311,1.67032 -5.2459,-13.23155 -5.25648,-13.26026 4.10784,-1.62838 c 2.26625,-0.89836 4.14756,-1.61122 4.20763,-1.58524 0.0596,0.0245 2.44762,5.96383 5.32217,13.21736 z m -13.60027,5.39126 3.42566,8.64172 -8.72638,3.45921 -8.69863,3.44821 -3.4482,-8.69863 -3.45921,-8.72638 8.64172,-3.42564 c 4.7601,-1.88696 8.68146,-3.40848 8.74056,-3.38295 0.0591,0.0255 1.63754,3.92436 3.52448,8.68446 z m -22.66665,8.98524 1.62837,4.10785 -10.99305,4.35853 -10.96584,4.34615 -1.64213,-4.18509 -1.67129,-4.17352 10.90797,-4.32402 c 6.00633,-2.38095 10.9477,-4.30684 11.00682,-4.28129 0.0611,0.0263 0.83079,1.88514 1.72915,4.15139 z"
         inkscape:connector-curvature="0"
         sodipodi:nodetypes="cccccccccccccccccccccccccccccccccccccsccscccccsssscccccsss"
         style="stroke-width:0.75803721;stroke-miterlimit:4;stroke-dasharray:none" />
      <g
         style="stroke:#000000;stroke-opacity:1"
         transform="matrix(0.01032533,0.00219472,0.00219472,-0.01032533,-437.76747,637.96982)"
         id="g1437">
        <path
           style="stroke:#000000;stroke-width:10.51534176;stroke-miterlimit:4;stroke-dasharray:none;stroke-opacity:1"
           inkscape:connector-curvature="0"
           d="m 7743.0217,4350.7695 c -85.1654,-20.815 -176.7393,-109.4954 -196.0205,-186.828 -19.2569,-77.2355 19.965,-198.5271 85.3654,-256.9853 36.1824,-32.2101 100.0857,-62.7777 169.4618,-80.0751 152.5305,-38.0301 372.5149,-160.1774 520.6662,-291.8291 186.2985,-164.2486 367.6933,-474.6523 421.838,-721.6891 42.6673,-200.0649 45.3756,-417.3752 4.8537,-579.8997 -31.1112,-124.7801 -4.2887,-236.6933 72.9303,-306.4462 73.8216,-66.8447 137.1819,-82.6422 233.7442,-58.279 128.2561,33.26 180.6205,108.5277 215.1538,306.1433 130.2415,767.0772 -198.5286,1516.062 -851.487,1944.0397 -105.0126,68.2316 -412.1485,203.7603 -531.0098,233.3957 -37.5504,9.3624 -104.9511,9.3683 -145.4961,-1.5472 z"
           id="path1435" />
      </g>
      <path
         style="stroke:#000000;stroke-width:0.111;stroke-miterlimit:4;stroke-dasharray:none;stroke-opacity:1"
         sodipodi:nodetypes="cccccccccccccccccccccccccccccccccccccsccscccccsssscccccsss"
         inkscape:connector-curvature="0"
         d="m -363.90179,611.15713 c -0.40449,0.0125 -4.00881,1.34343 -7.98348,2.93508 -7.60232,3.02968 -7.91978,3.22136 -8.21339,4.71478 -0.0576,0.35119 0.0891,1.2598 0.34508,2.0271 l 0.47386,1.40196 -10.35894,4.13928 c -10.89739,4.35274 -11.03894,4.40886 -11.3294,5.95079 -0.0575,0.3512 0.0892,1.25981 0.34509,2.02711 l 0.47384,1.40196 -12.62518,5.03764 c -9.98236,3.97316 -12.72479,5.15903 -13.06636,5.62204 -0.75047,1.08435 -0.71909,1.82588 0.26653,4.43571 l 0.92014,2.48726 -6.95886,2.79147 c -7.29888,2.92626 -7.63668,3.10914 -7.92934,4.60298 -0.17543,0.83956 0.36368,2.19958 1.06725,2.6923 1.2371,0.88663 1.60804,0.78937 8.92946,-2.07999 l 6.98143,-2.73457 1.03392,2.44215 c 1.07024,2.5763 1.57532,3.49501 2.86439,3.42195 0.54529,0.0952 3.35675,-0.92033 13.35012,-4.86573 10.92832,-4.31522 12.6791,-4.9442 12.83324,-4.59582 0.57413,3.37331 3.12675,3.69264 5.33191,2.6566 l 9.4633,-3.75133 9.46329,-3.75132 0.61539,1.34584 c 0.66932,1.43929 1.28111,2.03264 2.40395,2.26039 1.01565,0.20439 15.60721,-5.58062 16.21532,-6.44476 0.96687,-1.36686 1.07251,-1.01531 -5.77,-18.31909 -3.55205,-9.00113 -6.68991,-16.6272 -6.95787,-16.93047 -0.62914,-0.71814 -1.24248,-0.98326 -2.18467,-0.92129 z m 3.82961,19.71136 5.22293,13.17561 -4.18508,1.64214 -4.17311,1.67032 -5.2459,-13.23155 -5.25648,-13.26026 4.10784,-1.62838 c 2.26625,-0.89836 4.14756,-1.61122 4.20763,-1.58524 0.0596,0.0245 2.44762,5.96383 5.32217,13.21736 z m -13.60027,5.39126 3.42566,8.64172 -8.72638,3.45921 -8.69863,3.44821 -3.4482,-8.69863 -3.45921,-8.72638 8.64172,-3.42564 c 4.7601,-1.88696 8.68146,-3.40848 8.74056,-3.38295 0.0591,0.0255 1.63754,3.92436 3.52448,8.68446 z m -22.66665,8.98524 1.62837,4.10785 -10.99305,4.35853 -10.96584,4.34615 -1.64213,-4.18509 -1.67129,-4.17352 10.90797,-4.32402 c 6.00633,-2.38095 10.9477,-4.30684 11.00682,-4.28129 0.0611,0.0263 0.83079,1.88514 1.72915,4.15139 z"
         id="path1439" />
    </g>
    <text
       id="text1433"
       y="105.74406"
       x="30.994047"
       style="font-style:normal;font-variant:normal;font-weight:normal;font-stretch:normal;font-size:22.57777786px;line-height:1.25;font-family:Lato;-inkscape-font-specification:Lato;letter-spacing:0px;word-spacing:0px;fill:#000000;fill-opacity:1;stroke:none;stroke-width:0.26458332"
       xml:space="preserve"><tspan
         style="line-height:2;letter-spacing:-0.21431243px;stroke-width:0.26458332"
         y="105.74406"
         x="30.994047"
         id="tspan1431"
         sodipodi:role="line"><tspan
           id="tspan1425"
           style="font-style:normal;font-variant:normal;font-weight:bold;font-stretch:normal;line-height:2;font-family:Lato;-inkscape-font-specification:'Lato Bold';letter-spacing:-0.21431243px"><tspan
             style="letter-spacing:-0.8387292px"
             id="tspan1415">ST</tspan><tspan
             style="letter-spacing:-1.31762493px"
             id="tspan1417">EL</tspan><tspan
             id="tspan1419"
             style="letter-spacing:0.14287502px">L</tspan><tspan
             id="tspan1421"
             style="letter-spacing:-1.07420838px">A</tspan><tspan
             style="letter-spacing:-2.08227086px"
             id="tspan1423">R</tspan></tspan><tspan
           id="tspan1429"
           style="font-style:normal;font-variant:normal;font-weight:300;font-stretch:normal;line-height:2;font-family:Lato;-inkscape-font-specification:'Lato Light';letter-spacing:-0.91545832px"><tspan
   id="tspan1427"
   style="letter-spacing:-1.22502089px">G</tspan>AZE</tspan></tspan></text>
    <path
       id="path1485"
       d="m 133.58938,253.06557 c -1.2786,0.42943 -2.2031,1.49556 -2.45755,2.81715 -0.17617,0.93947 0.0128,1.82989 0.58715,2.70144 0.50718,0.77257 1.32996,1.32531 2.26535,1.51299 1.66215,0.34363 3.36489,-0.54111 4.04666,-2.09211 0.18578,-0.42347 0.17265,-0.56172 -0.056,-0.74146 -0.29925,-0.22402 -0.59239,-0.1202 -0.7244,0.26375 -0.12549,0.35075 -0.5881,0.96216 -0.90341,1.18196 -0.15729,0.11266 -0.40706,0.25904 -0.5595,0.32804 -0.31541,0.13912 -1.00659,0.24746 -1.37777,0.21102 -0.9764,-0.0906 -1.89651,-0.80797 -2.26228,-1.77204 -0.24932,-0.65633 -0.20432,-1.52964 0.11098,-2.15371 0.23456,-0.46231 0.77373,-1.02463 1.13454,-1.18584 0.11687,-0.0533 0.11757,-0.048 0.0634,0.11018 -0.18114,0.49819 -0.12282,1.541 0.10852,2.10273 0.29338,0.70414 0.91493,1.36472 1.57006,1.67052 0.37315,0.17113 0.58473,0.14287 0.73582,-0.0983 0.20445,-0.32363 0.11929,-0.47925 -0.43316,-0.78246 -0.37258,-0.20888 -0.64314,-0.45809 -0.87387,-0.81524 -0.15645,-0.24309 -0.18492,-0.33628 -0.25775,-0.88151 -0.0778,-0.58225 -0.0736,-0.63116 0.0421,-0.97526 0.0698,-0.20331 0.22297,-0.50912 0.33931,-0.68631 0.2602,-0.39039 0.26156,-0.62223 -0.003,-0.7915 -0.13594,-0.0895 -0.2128,-0.1009 -0.51372,-0.0554 -0.19568,0.0315 -0.45749,0.0878 -0.581,0.13131 z"
       inkscape:connector-curvature="0"
       style="fill:#edd9c0;fill-opacity:1;stroke-width:0.00278661" />
    <path
       id="path1487"
       d="m 138.91323,252.42979 c -0.0969,0.12062 -0.10825,0.19776 -0.0722,0.46762 l 0.0424,0.31764 -0.31764,0.0424 c -0.40768,0.0545 -0.56317,0.22057 -0.52004,0.54346 0.0389,0.29112 0.19127,0.38379 0.60844,0.36039 l 0.32643,-0.0166 0.0596,0.32603 c 0.0535,0.27849 0.083,0.33921 0.21223,0.41866 0.19916,0.11875 0.41983,0.0786 0.57489,-0.0928 0.10768,-0.12206 0.12399,-0.19987 0.10922,-0.47256 l -0.0226,-0.33098 0.28587,-0.0382 c 0.37039,-0.0495 0.55054,-0.23519 0.51165,-0.52631 -0.0389,-0.29113 -0.26118,-0.42309 -0.63185,-0.37358 l -0.28588,0.0382 -0.0651,-0.3253 c -0.0573,-0.26701 -0.0935,-0.33781 -0.22942,-0.42732 -0.21176,-0.13309 -0.4446,-0.10199 -0.58605,0.0892 z"
       inkscape:connector-curvature="0"
       style="fill:#edd9c0;fill-opacity:1;stroke-width:0.00278661" />
    <path
       id="path1489"
       d="m 153.50348,198.38948 c -0.37426,0.0905 -1.85209,0.65076 -2.0475,0.77323 -0.22123,0.14503 -0.38783,0.44052 -0.39188,0.7056 0.001,0.20627 2.02852,5.89006 2.16732,6.05583 0.13761,0.17094 0.37258,0.19141 0.58339,0.0445 0.0993,-0.0692 0.19012,-0.18315 0.20232,-0.25146 0.0122,-0.0683 -0.26503,-0.91526 -0.6172,-1.8894 -0.35217,-0.97415 -0.81748,-2.25611 -1.0307,-2.853 l -0.39221,-1.08434 0.67274,-0.24325 c 0.37562,-0.12821 0.75897,-0.27117 0.8578,-0.30786 l 0.186,-0.0698 1.3819,3.83263 c 0.75768,2.10445 1.38003,3.84305 1.3763,3.86389 -0.004,0.0211 -0.23216,0.11591 -0.51081,0.21785 -0.27771,0.0967 -0.66018,0.23474 -0.84025,0.29995 l -0.33575,0.11891 -0.0646,-0.18507 c -0.10086,-0.31638 -0.23056,-0.46977 -0.42505,-0.50452 -0.14182,-0.0254 -2.24997,0.66119 -9.34064,3.03397 -6.13258,2.05029 -9.20831,3.05223 -9.30816,3.03439 -0.0842,-0.0151 -0.1922,-0.0776 -0.24067,-0.14066 -0.12383,-0.15772 -1.66277,-4.44698 -1.65971,-4.61458 0.004,-0.0806 0.039,-0.18835 0.0809,-0.24059 0.0419,-0.0523 0.50272,-0.26289 1.0221,-0.46844 0.52485,-0.20458 4.19282,-1.63769 8.15266,-3.18652 3.96071,-1.55376 7.25306,-2.85867 7.31701,-2.91235 0.2607,-0.21385 0.12396,-0.69375 -0.21235,-0.75384 -0.14183,-0.0253 -1.80598,0.60493 -8.34381,3.16312 -4.49115,1.75791 -8.24485,3.24619 -8.33796,3.31107 -0.26266,0.16453 -0.4547,0.45037 -0.55198,0.81259 -0.0756,0.30099 -0.0761,0.366 0.0428,0.76176 0.0656,0.23959 0.0992,0.44629 0.0746,0.46341 -0.031,0.0216 -0.61629,0.23155 -1.30039,0.47816 -0.68437,0.24656 -1.30495,0.47196 -1.37466,0.49772 -0.12341,0.0538 -0.13225,0.0415 -0.19735,-0.17085 -0.0863,-0.27585 -0.26479,-0.49203 -0.43816,-0.52301 -0.0735,-0.0131 -0.2119,0.0326 -0.31731,0.10607 -0.15488,0.10792 -0.19248,0.16631 -0.19056,0.30762 -0.004,0.20534 1.52815,4.47162 1.6624,4.6312 0.14611,0.1835 0.40933,0.19798 0.60089,0.0369 0.20998,-0.17393 0.22875,-0.27899 0.10654,-0.62637 -0.0534,-0.15589 -0.0835,-0.29148 -0.0712,-0.30032 0.0602,-0.0328 2.77291,-1.00708 2.79924,-1.00238 0.0104,0.002 0.0904,0.16251 0.16967,0.35586 0.31769,0.77266 0.97049,1.09566 1.73787,0.86932 0.26422,-0.083 17.04017,-5.6886 17.52072,-5.8575 l 0.21941,-0.0746 0.0571,0.13504 c 0.15325,0.32574 0.68356,0.54534 1.05019,0.43732 0.64742,-0.19343 1.91939,-0.69309 2.05221,-0.79957 0.21738,-0.18365 0.34629,-0.48049 0.3255,-0.7285 -0.0218,-0.24252 -2.78375,-7.91792 -2.93544,-8.16215 -0.20247,-0.32434 -0.58068,-0.48421 -0.94332,-0.39699 z m -19.84709,12.47196 c 0.15988,0.44072 0.28808,0.81634 0.29571,0.83384 0.009,0.0396 -2.84035,1.08194 -2.85584,1.04662 -0.0702,-0.15352 -0.60449,-1.68644 -0.58695,-1.69434 0.0744,-0.0518 2.75514,-0.99951 2.8026,-0.99103 0.0367,0.007 0.18888,0.37033 0.34448,0.80491 z"
       inkscape:connector-curvature="0"
       style="stroke-width:0.00278661" />
    <path
       id="path1491"
       d="m 143.7161,254.10482 c -0.0648,0.0787 -0.11039,0.18174 -0.10474,0.224 0.006,0.0475 -0.0455,0.10307 -0.11149,0.13353 -0.30705,0.1217 -0.35838,0.54351 -0.0923,0.76127 0.0787,0.0648 0.18698,0.10969 0.24001,0.10261 0.053,-0.007 0.10024,0.0243 0.10662,0.0721 0.0177,0.13231 0.34869,0.35208 0.50226,0.33157 0.15357,-0.0205 0.4153,-0.31946 0.39762,-0.45177 -0.006,-0.0475 0.0204,-0.089 0.0627,-0.0947 0.037,-0.005 0.12596,-0.0652 0.19702,-0.13933 0.22271,-0.22907 0.0631,-0.69805 -0.25466,-0.7363 -0.0769,-0.0114 -0.14149,-0.0511 -0.14787,-0.0989 -0.006,-0.0423 -0.0767,-0.12977 -0.15986,-0.18866 -0.19862,-0.15677 -0.4845,-0.11859 -0.63532,0.0846 z"
       inkscape:connector-curvature="0"
       style="fill:#edd9c0;fill-opacity:1;stroke-width:0.00278661" />
    <path
       id="path1493"
       d="m 149.64824,202.69092 c -0.26045,0.0619 -5.9856,2.32085 -6.12107,2.41044 -0.19113,0.12862 -0.22353,0.43194 -0.067,0.6173 0.0665,0.0824 0.18237,0.1628 0.25616,0.17599 0.13661,0.0244 5.99074,-2.22765 6.29579,-2.41715 0.27499,-0.17336 0.21966,-0.62258 -0.0945,-0.77638 -0.0548,-0.0259 -0.17336,-0.031 -0.26936,-0.0102 z"
       inkscape:connector-curvature="0"
       style="stroke-width:0.00278661" />
    <path
       id="path1495"
       d="m 141.35956,205.94004 c -0.79565,0.32433 -0.9072,0.40206 -0.94852,0.63331 -0.0389,0.24809 0.12962,0.48967 0.38172,0.53471 0.11028,0.0197 1.5085,-0.54967 1.63824,-0.66746 0.1366,-0.1276 0.1548,-0.41167 0.0332,-0.58003 -0.16737,-0.24675 -0.33167,-0.23817 -1.1046,0.0795 z"
       inkscape:connector-curvature="0"
       style="stroke-width:0.00278661" />
    <path
       inkscape:connector-curvature="0"
       d="m 79.604768,77.214452 c -1.348645,0.0195 -2.554024,0.75321 -3.199044,1.93444 -0.454035,0.84113 -0.545376,1.74678 -0.263846,2.75189 0.247683,0.89037 0.86293,1.66751 1.69666,2.13126 1.478422,0.83372 3.369766,0.50985 4.491693,-0.75969 0.305966,-0.34673 0.335588,-0.4824 0.172549,-0.72328 -0.216768,-0.30454 -0.527595,-0.29497 -0.770317,0.0305 -0.226387,0.29584 -0.853289,0.73723 -1.220578,0.8505 -0.184135,0.0594 -0.466634,0.1227 -0.632846,0.14197 -0.342798,0.0364 -1.034125,-0.071 -1.37656,-0.21879 -0.902377,-0.38374 -1.560162,-1.34738 -1.614806,-2.37706 -0.0375,-0.70109 0.271451,-1.51917 0.761894,-2.0175 0.36427,-0.36886 1.049135,-0.74017 1.441909,-0.78378 0.127541,-0.0151 0.12661,-0.01 0.02677,0.12424 -0.324314,0.41932 -0.586489,1.43032 -0.537296,2.03583 0.06489,0.76004 0.455622,1.57859 0.986429,2.06946 0.303271,0.27669 0.513398,0.31423 0.730778,0.13058 0.293335,-0.24595 0.259633,-0.42012 -0.174166,-0.87723 -0.291217,-0.31247 -0.472989,-0.63227 -0.583926,-1.04273 -0.07495,-0.2792 -0.07367,-0.37663 0.02309,-0.91813 0.103325,-0.57826 0.12218,-0.62358 0.337211,-0.91607 0.12846,-0.17237 0.36749,-0.41698 0.532283,-0.5503 0.366771,-0.29255 0.438706,-0.51295 0.237929,-0.75491 -0.1022,-0.12668 -0.171942,-0.16094 -0.472427,-0.20925 -0.19597,-0.0296 -0.46249,-0.0558 -0.59338,-0.052 z"
       id="path1578"
       style="stroke-width:0.00278661" />
    <path
       inkscape:connector-curvature="0"
       d="m 84.869197,78.230992 c -0.129048,0.0854 -0.163356,0.15537 -0.211245,0.42338 l -0.05637,0.31546 -0.315463,-0.0564 c -0.404891,-0.0723 -0.6036,0.0385 -0.6609,0.35917 -0.05166,0.28913 0.06524,0.42382 0.469708,0.52864 l 0.31597,0.0836 -0.0426,0.32868 c -0.03389,0.28155 -0.02432,0.34836 0.07458,0.46341 0.153513,0.17378 0.375926,0.20277 0.57584,0.0868 0.139747,-0.0834 0.178992,-0.15258 0.248003,-0.41681 l 0.07935,-0.32211 0.283917,0.0507 c 0.367858,0.0657 0.596019,-0.0563 0.647682,-0.3454 0.05166,-0.28913 -0.119855,-0.48255 -0.487987,-0.54832 l -0.283918,-0.0507 0.03711,-0.32966 c 0.02677,-0.27178 0.01389,-0.35023 -0.08831,-0.47691 -0.161143,-0.19127 -0.392392,-0.23259 -0.585382,-0.0935 z"
       id="path1580"
       style="stroke-width:0.00278661" />
    <path
       inkscape:connector-curvature="0"
       d="m 88.933364,81.289722 c -0.08572,0.0552 -0.160513,0.13947 -0.168012,0.18144 -0.0084,0.0472 -0.07479,0.0843 -0.146871,0.0932 -0.32953,0.0224 -0.506941,0.40848 -0.319856,0.69696 0.05517,0.0857 0.144677,0.16144 0.197346,0.17085 0.05267,0.009 0.08807,0.0537 0.07959,0.10113 -0.02348,0.1314 0.224836,0.44157 0.377356,0.46883 0.152519,0.0273 0.492887,-0.17774 0.516365,-0.30914 0.0084,-0.0472 0.04659,-0.0786 0.08856,-0.0711 0.03676,0.007 0.139828,-0.0237 0.230105,-0.0727 0.281911,-0.15032 0.272756,-0.64564 -0.01822,-0.77887 -0.06974,-0.0343 -0.119193,-0.0918 -0.110713,-0.13924 0.0075,-0.042 -0.03347,-0.14696 -0.09478,-0.2284 -0.14141,-0.20983 -0.425327,-0.26056 -0.630878,-0.11301 z"
       id="path1582"
       style="stroke-width:0.00278661" />
    <path
       style="stroke-width:0.00278661"
       id="path1489-1"
       d="m 149.72716,116.04987 c -0.3846,0.0187 -1.94129,0.29177 -2.15621,0.37541 -0.24451,0.10096 -0.46358,0.35995 -0.51729,0.61957 -0.0376,0.20281 0.8876,6.16602 0.99285,6.35489 0.10309,0.19371 0.33005,0.2579 0.56468,0.15316 0.11047,-0.0493 0.22109,-0.14423 0.2459,-0.20904 0.0248,-0.0648 -0.0886,-0.94873 -0.25182,-1.97164 -0.16318,-1.02292 -0.37975,-2.36941 -0.47721,-2.9957 l -0.18184,-1.13866 0.70643,-0.11274 c 0.393,-0.0555 0.79636,-0.12398 0.90033,-0.14148 l 0.19579,-0.0337 0.6384,4.02382 c 0.34946,2.20922 0.63463,4.0337 0.62706,4.05348 -0.008,0.02 -0.24979,0.0703 -0.54261,0.11815 -0.29093,0.0429 -0.6925,0.10674 -0.88161,0.137 l -0.35209,0.0538 -0.0287,-0.1939 c -0.0397,-0.32968 -0.13834,-0.50468 -0.32286,-0.5753 -0.13455,-0.0515 -2.33407,0.22739 -9.74396,1.22791 -6.40832,0.86349 -9.6174,1.27068 -9.71213,1.23442 -0.0799,-0.0306 -0.17423,-0.11233 -0.21002,-0.18331 -0.092,-0.17815 -0.79904,-4.67995 -0.7646,-4.844 0.0187,-0.0785 0.0737,-0.17768 0.12462,-0.22114 0.051,-0.0435 0.54311,-0.16391 1.09182,-0.26839 0.55392,-0.10249 4.42561,-0.82209 8.60569,-1.6006 4.18187,-0.7832 7.66056,-1.44733 7.73343,-1.48807 0.2962,-0.16114 0.2519,-0.65817 -0.0672,-0.78029 -0.13455,-0.0515 -1.8874,0.25542 -8.78905,1.54177 -4.74119,0.8842 -8.70743,1.64191 -8.81106,1.68818 -0.28885,0.11234 -0.53111,0.35708 -0.69461,0.69462 -0.1307,0.28147 -0.14346,0.34521 -0.10087,0.75626 0.0195,0.24765 0.0137,0.45697 -0.0137,0.46918 -0.0346,0.0154 -0.64879,0.11183 -1.36701,0.22573 -0.71847,0.1138 -1.37031,0.21879 -1.44362,0.23102 -0.13131,0.0297 -0.13768,0.0159 -0.16179,-0.20485 -0.033,-0.28714 -0.1678,-0.53296 -0.33228,-0.59591 -0.0697,-0.0267 -0.21426,-0.008 -0.33157,0.0447 -0.17237,0.077 -0.22027,0.12725 -0.24489,0.26641 -0.0426,0.20092 0.6622,4.6789 0.76413,4.86083 0.1091,0.20765 0.36493,0.27125 0.5833,0.14895 0.23889,-0.13146 0.27703,-0.23113 0.22216,-0.59527 -0.0232,-0.16313 -0.0273,-0.30197 -0.0136,-0.30834 0.0653,-0.0209 2.91261,-0.46903 2.93759,-0.45947 0.01,0.004 0.0583,0.17658 0.0999,0.38136 0.16711,0.81854 0.74773,1.25827 1.54395,1.17989 0.2751,-0.032 17.80477,-2.39106 18.30848,-2.46682 l 0.2295,-0.0321 0.0308,0.14336 c 0.0894,0.34871 0.56913,0.66388 0.94951,0.62657 0.67221,-0.0686 2.01533,-0.32073 2.16577,-0.40041 0.24797,-0.13962 0.43027,-0.407 0.45637,-0.65451 0.0241,-0.2423 -1.24902,-8.29956 -1.35219,-8.5679 -0.13804,-0.35657 -0.47955,-0.58455 -0.8521,-0.5669 z m -21.83436,8.52746 c 0.0744,0.46289 0.12983,0.85589 0.13405,0.87451 0.002,0.0406 -2.99289,0.52991 -3.00148,0.49231 -0.0402,-0.16397 -0.27741,-1.76989 -0.25869,-1.77437 0.0828,-0.037 2.89372,-0.46492 2.93875,-0.44769 0.0348,0.0136 0.11605,0.39918 0.18737,0.85524 z"
       inkscape:connector-curvature="0" />
    <path
       style="stroke-width:0.00278661"
       id="path1493-5"
       d="m 147.87377,121.9141 c -0.26743,0.0119 -6.3147,1.15682 -6.46457,1.2194 -0.21186,0.0905 -0.30059,0.38235 -0.1816,0.59378 0.0499,0.0934 0.14859,0.19412 0.2186,0.22091 0.1296,0.0496 6.30227,-1.0643 6.63745,-1.19322 0.30263,-0.11869 0.33255,-0.57031 0.0528,-0.78032 -0.049,-0.0358 -0.16448,-0.063 -0.26267,-0.0606 z"
       inkscape:connector-curvature="0" />
    <path
       style="stroke-width:0.00278661"
       id="path1495-9"
       d="m 139.12274,123.55067 c -0.84236,0.16933 -0.96651,0.22475 -1.05048,0.44414 -0.0848,0.23638 0.0355,0.50529 0.27464,0.59683 0.10462,0.04 1.58482,-0.25694 1.73436,-0.3483 0.15811,-0.0997 0.22928,-0.37532 0.14138,-0.56352 -0.11811,-0.27375 -0.2811,-0.29615 -1.0999,-0.12915 z"
       inkscape:connector-curvature="0" />
    <path
       inkscape:connector-curvature="0"
       d="m 139.12274,123.55067 c -0.84236,0.16933 -0.96651,0.22475 -1.05048,0.44414 -0.0848,0.23638 0.0355,0.50529 0.27464,0.59683 0.10462,0.04 1.58482,-0.25694 1.73436,-0.3483 0.15811,-0.0997 0.22928,-0.37532 0.14138,-0.56352 -0.11811,-0.27375 -0.2811,-0.29615 -1.0999,-0.12915 z"
       id="path1625"
       style="stroke-width:0.00278661" />
    <path
       style="stroke-width:0.00278661"
       id="path1627"
       d="m 139.12274,123.55067 c -0.84236,0.16933 -0.96651,0.22475 -1.05048,0.44414 -0.0848,0.23638 0.0355,0.50529 0.27464,0.59683 0.10462,0.04 1.58482,-0.25694 1.73436,-0.3483 0.15811,-0.0997 0.22928,-0.37532 0.14138,-0.56352 -0.11811,-0.27375 -0.2811,-0.29615 -1.0999,-0.12915 z"
       inkscape:connector-curvature="0" />
    <path
       style="stroke-width:0.00255039"
       id="path1493-5-0"
       d="m 137.67787,126.44097 c -0.0522,0.1679 -0.0628,3.95896 -0.0173,4.0527 0.0669,0.1325 0.43431,0.18638 0.74714,0.11029 0.13749,-0.0319 0.29722,-0.0946 0.35086,-0.13871 0.0993,-0.0817 0.18321,-3.95174 0.0963,-4.16145 -0.0815,-0.18933 -0.67733,-0.20525 -1.02921,-0.0282 -0.0602,0.031 -0.12601,0.10371 -0.14781,0.16537 z"
       inkscape:connector-curvature="0" />
    <path
       inkscape:connector-curvature="0"
       d="m 125.03954,159.00657 c -1.2786,0.42943 -2.2031,1.49557 -2.45756,2.81716 -0.17617,0.93947 0.0128,1.82989 0.58716,2.70144 0.50718,0.77257 1.32996,1.32531 2.26534,1.51299 1.66215,0.34363 3.36489,-0.54111 4.04667,-2.09211 0.18578,-0.42347 0.17265,-0.56172 -0.056,-0.74146 -0.29925,-0.22402 -0.59239,-0.1202 -0.7244,0.26375 -0.12549,0.35075 -0.5881,0.96216 -0.90341,1.18196 -0.15729,0.11266 -0.40707,0.25904 -0.5595,0.32804 -0.31541,0.13912 -1.00659,0.24746 -1.37778,0.21102 -0.97639,-0.0906 -1.8965,-0.80797 -2.26227,-1.77204 -0.24932,-0.65633 -0.20432,-1.52964 0.11097,-2.15371 0.23457,-0.46231 0.77374,-1.02463 1.13455,-1.18584 0.11686,-0.0533 0.11756,-0.048 0.0633,0.11018 -0.18113,0.49819 -0.12281,1.541 0.10853,2.10273 0.29338,0.70414 0.91493,1.36472 1.57006,1.67052 0.37315,0.17113 0.58473,0.14287 0.73582,-0.0983 0.20445,-0.32363 0.11928,-0.47925 -0.43317,-0.78246 -0.37257,-0.20888 -0.64313,-0.45809 -0.87386,-0.81524 -0.15645,-0.24309 -0.18492,-0.33628 -0.25775,-0.88151 -0.0778,-0.58225 -0.0736,-0.63116 0.0421,-0.97526 0.0698,-0.20331 0.22297,-0.50912 0.33931,-0.68631 0.26019,-0.39039 0.26156,-0.62223 -0.003,-0.79151 -0.13594,-0.0895 -0.2128,-0.10089 -0.51372,-0.0554 -0.19569,0.0315 -0.45749,0.0878 -0.581,0.1313 z"
       id="path1644"
       style="stroke-width:0.00278661" />
    <path
       inkscape:connector-curvature="0"
       d="m 130.36338,158.3708 c -0.0969,0.12062 -0.10824,0.19776 -0.0722,0.46762 l 0.0424,0.31763 -0.31764,0.0424 c -0.40768,0.0545 -0.56317,0.22057 -0.52004,0.54346 0.0389,0.29112 0.19127,0.38379 0.60844,0.36039 l 0.32643,-0.0166 0.0596,0.32603 c 0.0535,0.27849 0.083,0.33921 0.21223,0.41866 0.19917,0.11874 0.41983,0.0786 0.5749,-0.0928 0.10767,-0.12206 0.12399,-0.19987 0.10921,-0.47256 l -0.0226,-0.33098 0.28588,-0.0382 c 0.37039,-0.0495 0.55053,-0.23519 0.51165,-0.52632 -0.0389,-0.29112 -0.26118,-0.42308 -0.63185,-0.37357 l -0.28588,0.0382 -0.0651,-0.3253 c -0.0573,-0.26701 -0.0935,-0.33781 -0.22941,-0.42732 -0.21176,-0.13309 -0.4446,-0.10199 -0.58606,0.0892 z"
       id="path1646"
       style="stroke-width:0.00278661" />
    <path
       inkscape:connector-curvature="0"
       d="m 154.416,156.38597 c -0.37426,0.0905 -1.85209,0.65077 -2.0475,0.77324 -0.22124,0.14503 -0.38783,0.44052 -0.39189,0.7056 0.001,0.20627 2.02852,5.89006 2.16733,6.05583 0.1376,0.17094 0.37258,0.19141 0.58339,0.0445 0.0993,-0.0692 0.19012,-0.18314 0.20232,-0.25145 0.0122,-0.0683 -0.26503,-0.91526 -0.6172,-1.8894 -0.35217,-0.97415 -0.81749,-2.25611 -1.03071,-2.853 l -0.39221,-1.08434 0.67274,-0.24326 c 0.37562,-0.1282 0.75897,-0.27116 0.85781,-0.30785 l 0.186,-0.0698 1.38189,3.83262 c 0.75768,2.10445 1.38004,3.84305 1.37631,3.8639 -0.004,0.0211 -0.23216,0.11591 -0.51081,0.21785 -0.27771,0.0967 -0.66018,0.23474 -0.84026,0.29994 l -0.33574,0.11891 -0.0646,-0.18506 c -0.10086,-0.31638 -0.23056,-0.46977 -0.42505,-0.50453 -0.14182,-0.0253 -2.24998,0.6612 -9.34064,3.03397 -6.13258,2.0503 -9.20831,3.05224 -9.30816,3.0344 -0.0842,-0.0151 -0.19221,-0.0777 -0.24068,-0.14066 -0.12382,-0.15772 -1.66276,-4.44699 -1.6597,-4.61459 0.004,-0.0806 0.039,-0.18834 0.0809,-0.24059 0.0419,-0.0522 0.50272,-0.26288 1.02209,-0.46843 0.52486,-0.20458 4.19283,-1.63769 8.15266,-3.18652 3.96072,-1.55376 7.25307,-2.85867 7.31701,-2.91236 0.26071,-0.21384 0.12396,-0.69374 -0.21235,-0.75383 -0.14182,-0.0254 -1.80597,0.60493 -8.3438,3.16311 -4.49116,1.75791 -8.24485,3.2462 -8.33797,3.31108 -0.26265,0.16453 -0.4547,0.45037 -0.55197,0.81259 -0.0756,0.30099 -0.0762,0.36599 0.0428,0.76175 0.0656,0.2396 0.0992,0.4463 0.0746,0.46342 -0.031,0.0216 -0.6163,0.23155 -1.30039,0.47816 -0.68437,0.24656 -1.30495,0.47196 -1.37466,0.49772 -0.12341,0.0538 -0.13225,0.0415 -0.19735,-0.17086 -0.0863,-0.27585 -0.26479,-0.49202 -0.43816,-0.523 -0.0735,-0.0131 -0.21191,0.0326 -0.31731,0.10607 -0.15488,0.10792 -0.19249,0.16631 -0.19056,0.30762 -0.004,0.20534 1.52814,4.47162 1.6624,4.6312 0.14611,0.1835 0.40933,0.19798 0.60088,0.0369 0.20999,-0.17393 0.22876,-0.279 0.10655,-0.62637 -0.0534,-0.15589 -0.0835,-0.29149 -0.0712,-0.30032 0.0602,-0.0328 2.77291,-1.00708 2.79924,-1.00238 0.0104,0.002 0.0904,0.16251 0.16967,0.35585 0.31769,0.77267 0.97049,1.09567 1.73787,0.86932 0.26422,-0.083 17.04017,-5.68859 17.52072,-5.85749 l 0.21941,-0.0746 0.0571,0.13505 c 0.15325,0.32574 0.68356,0.54533 1.05019,0.43732 0.64742,-0.19343 1.91939,-0.69309 2.05221,-0.79957 0.21738,-0.18365 0.34628,-0.48049 0.32549,-0.7285 -0.0218,-0.24252 -2.78375,-7.91793 -2.93543,-8.16215 -0.20247,-0.32435 -0.58068,-0.48421 -0.94332,-0.397 z m -19.84709,12.47197 c 0.15988,0.44072 0.28808,0.81634 0.29571,0.83384 0.009,0.0396 -2.84035,1.08194 -2.85584,1.04661 -0.0702,-0.15352 -0.6045,-1.68643 -0.58695,-1.69434 0.0744,-0.0518 2.75514,-0.9995 2.8026,-0.99102 0.0367,0.007 0.18888,0.37033 0.34448,0.80491 z"
       id="path1648"
       style="stroke-width:0.00278661" />
    <path
       inkscape:connector-curvature="0"
       d="m 135.16626,160.04583 c -0.0648,0.0787 -0.11039,0.18174 -0.10474,0.224 0.006,0.0475 -0.0455,0.10307 -0.11149,0.13353 -0.30705,0.1217 -0.35838,0.54351 -0.0923,0.76127 0.0787,0.0648 0.18699,0.10969 0.24002,0.10261 0.053,-0.007 0.10024,0.0243 0.10662,0.0721 0.0177,0.13231 0.34868,0.35208 0.50226,0.33157 0.15357,-0.0205 0.4153,-0.31946 0.39762,-0.45177 -0.006,-0.0475 0.0204,-0.089 0.0627,-0.0947 0.037,-0.005 0.12596,-0.0652 0.19702,-0.13933 0.22271,-0.22907 0.0631,-0.69805 -0.25466,-0.7363 -0.0769,-0.0114 -0.14149,-0.0511 -0.14787,-0.0989 -0.006,-0.0423 -0.0767,-0.12976 -0.15986,-0.18865 -0.19862,-0.15677 -0.4845,-0.11859 -0.63532,0.0846 z"
       id="path1650"
       style="stroke-width:0.00278661" />
    <path
       inkscape:connector-curvature="0"
       d="m 150.56076,160.68742 c -0.26045,0.0619 -5.98561,2.32085 -6.12107,2.41044 -0.19113,0.12861 -0.22353,0.43194 -0.067,0.6173 0.0665,0.0824 0.18236,0.1628 0.25615,0.17599 0.13661,0.0244 5.99075,-2.22765 6.2958,-2.41715 0.27498,-0.17336 0.21966,-0.62258 -0.0945,-0.77638 -0.0548,-0.0259 -0.17337,-0.031 -0.26936,-0.0102 z"
       id="path1652"
       style="stroke-width:0.00278661" />
    <path
       inkscape:connector-curvature="0"
       d="m 142.27208,163.93654 c -0.79565,0.32433 -0.9072,0.40206 -0.94852,0.63331 -0.0389,0.24809 0.12962,0.48967 0.38172,0.53471 0.11027,0.0197 1.50849,-0.54967 1.63824,-0.66746 0.1366,-0.1276 0.1548,-0.41167 0.0332,-0.58004 -0.16737,-0.24674 -0.33167,-0.23816 -1.1046,0.0795 z"
       id="path1654"
       style="stroke-width:0.00278661" />
    <text
       id="text1542"
       y="145.49776"
       x="29.924969"
       style="font-style:normal;font-variant:normal;font-weight:normal;font-stretch:normal;font-size:22.57777786px;line-height:1.25;font-family:Lato;-inkscape-font-specification:Lato;letter-spacing:0px;word-spacing:0px;fill:#000000;fill-opacity:1;stroke:none;stroke-width:0.26458332"
       xml:space="preserve"><tspan
         style="line-height:2;letter-spacing:-0.21431243px;stroke-width:0.26458332"
         y="145.49776"
         x="29.924969"
         id="tspan1540"
         sodipodi:role="line"><tspan
           id="tspan1534"
           style="font-style:normal;font-variant:normal;font-weight:bold;font-stretch:normal;line-height:2;font-family:Lato;-inkscape-font-specification:'Lato Bold';letter-spacing:-0.21431243px"><tspan
             style="letter-spacing:-0.8387292px"
             id="tspan1524">ST</tspan><tspan
             style="letter-spacing:-1.31762493px"
             id="tspan1526">EL</tspan><tspan
             id="tspan1528"
             style="letter-spacing:0.14287502px">L</tspan><tspan
             id="tspan1530"
             style="letter-spacing:-1.07420838px">A</tspan><tspan
             style="letter-spacing:-2.08227086px"
             id="tspan1532">R</tspan></tspan><tspan
           id="tspan1538"
           style="font-style:normal;font-variant:normal;font-weight:300;font-stretch:normal;line-height:2;font-family:Lato;-inkscape-font-specification:'Lato Light';letter-spacing:-0.91545832px"><tspan
   id="tspan1536"
   style="letter-spacing:-1.22502089px">G</tspan>AZE</tspan></tspan></text>
    <g
       transform="matrix(0.26458333,0,0,0.26458333,198.39947,47.450355)"
       id="g1556" />
    <text
       xml:space="preserve"
       style="font-style:normal;font-variant:normal;font-weight:normal;font-stretch:normal;font-size:22.57777786px;line-height:1.25;font-family:Lato;-inkscape-font-specification:Lato;letter-spacing:0px;word-spacing:0px;fill:#000000;fill-opacity:1;stroke:none;stroke-width:0.26458332"
       x="28.832962"
       y="229.10918"
       id="text1576"><tspan
         sodipodi:role="line"
         id="tspan1574"
         x="28.832962"
         y="229.10918"
         style="line-height:2;letter-spacing:-0.21431243px;stroke-width:0.26458332"><tspan
           style="font-style:normal;font-variant:normal;font-weight:bold;font-stretch:normal;line-height:2;font-family:Lato;-inkscape-font-specification:'Lato Bold';letter-spacing:-0.21431243px"
           id="tspan1568"><tspan
             id="tspan1558"
             style="letter-spacing:-0.8387292px">ST</tspan><tspan
             id="tspan1560"
             style="letter-spacing:-1.31762493px">EL</tspan><tspan
             style="letter-spacing:0.14287502px"
             id="tspan1562">L</tspan><tspan
             style="letter-spacing:-1.07420838px"
             id="tspan1564">A</tspan><tspan
             id="tspan1566"
             style="letter-spacing:-2.08227086px">R</tspan></tspan><tspan
           style="font-style:normal;font-variant:normal;font-weight:300;font-stretch:normal;line-height:2;font-family:Lato;-inkscape-font-specification:'Lato Light';letter-spacing:-0.91545832px"
           id="tspan1572"><tspan
   style="letter-spacing:-1.22502089px"
   id="tspan1570">G</tspan>AZE</tspan></tspan></text>
    <text
       xml:space="preserve"
       style="font-style:normal;font-variant:normal;font-weight:normal;font-stretch:normal;font-size:22.57777786px;line-height:1.25;font-family:Lato;-inkscape-font-specification:Lato;letter-spacing:0px;word-spacing:0px;fill:#000000;fill-opacity:1;stroke:none;stroke-width:0.26458332"
       x="29.924969"
       y="145.49776"
       id="text1602"><tspan
         sodipodi:role="line"
         id="tspan1600"
         x="29.924969"
         y="145.49776"
         style="line-height:2;letter-spacing:-0.21431243px;stroke-width:0.26458332"><tspan
           style="font-style:normal;font-variant:normal;font-weight:bold;font-stretch:normal;line-height:2;font-family:Lato;-inkscape-font-specification:'Lato Bold';letter-spacing:-0.21431243px"
           id="tspan1594"><tspan
             id="tspan1584"
             style="letter-spacing:-0.8387292px">ST</tspan><tspan
             id="tspan1586"
             style="letter-spacing:-1.31762493px">EL</tspan><tspan
             style="letter-spacing:0.14287502px"
             id="tspan1588">L</tspan><tspan
             style="letter-spacing:-1.07420838px"
             id="tspan1590">A</tspan><tspan
             id="tspan1592"
             style="letter-spacing:-2.08227086px">R</tspan></tspan><tspan
           style="font-style:normal;font-variant:normal;font-weight:300;font-stretch:normal;line-height:2;font-family:Lato;-inkscape-font-specification:'Lato Light';letter-spacing:-0.91545832px"
           id="tspan1598"><tspan
   style="letter-spacing:-1.22502089px"
   id="tspan1596">G</tspan>AZE</tspan></tspan></text>
    <text
       id="text1674"
       y="187.10565"
       x="29.745476"
       style="font-style:normal;font-variant:normal;font-weight:normal;font-stretch:normal;font-size:22.57777786px;line-height:1.25;font-family:Lato;-inkscape-font-specification:Lato;letter-spacing:0px;word-spacing:0px;fill:#000000;fill-opacity:1;stroke:none;stroke-width:0.26458332"
       xml:space="preserve"><tspan
         style="line-height:2;letter-spacing:-0.21431243px;stroke-width:0.26458332"
         y="187.10565"
         x="29.745476"
         id="tspan1672"
         sodipodi:role="line"><tspan
           id="tspan1666"
           style="font-style:normal;font-variant:normal;font-weight:bold;font-stretch:normal;line-height:2;font-family:Lato;-inkscape-font-specification:'Lato Bold';letter-spacing:-0.21431243px"><tspan
             style="letter-spacing:-0.8387292px"
             id="tspan1656">ST</tspan><tspan
             style="letter-spacing:-1.31762493px"
             id="tspan1658">EL</tspan><tspan
             id="tspan1660"
             style="letter-spacing:0.14287502px">L</tspan><tspan
             id="tspan1662"
             style="letter-spacing:-1.07420838px">A</tspan><tspan
             style="letter-spacing:-2.08227086px"
             id="tspan1664">R</tspan></tspan><tspan
           id="tspan1670"
           style="font-style:normal;font-variant:normal;font-weight:300;font-stretch:normal;line-height:2;font-family:Lato;-inkscape-font-specification:'Lato Light';letter-spacing:-0.91545832px"><tspan
   id="tspan1668"
   style="letter-spacing:-1.22502089px">G</tspan>AZE</tspan></tspan></text>
    <g
       id="g1798"
       transform="matrix(0.09052017,0,0,0.08328648,64.105992,216.64448)">
      <g
         id="g1735"
         transform="matrix(0.47072601,-0.81532137,0.81532137,0.47072601,950.89177,254.69932)"
         style="fill:#dadada;fill-opacity:1">
        <g
           id="g1002"
           clip-path="url(#clipPath1004)"
           transform="translate(24.529621,114.18678)"
           style="fill:#dadada;fill-opacity:1;stroke:none;stroke-opacity:1">
          <g
             inkscape:label="Clip"
             id="g1000"
             style="fill:#dadada;fill-opacity:1;stroke:none;stroke-opacity:1">
            <polygon
               style="fill:#edd9c0;fill-opacity:1;stroke:none;stroke-opacity:1"
               points="305.76,347.208 301.801,370.292 322.532,359.394 343.262,370.292 339.303,347.208 356.074,330.86 332.897,327.493 322.532,306.49 312.166,327.493 288.989,330.86 "
               id="polygon1719"
               transform="translate(-0.001,-5)" />
            <path
               inkscape:connector-curvature="0"
               style="fill:#dadada;fill-opacity:1;stroke:none;stroke-opacity:1"
               d="m 343.261,375.292 c -0.795,0 -1.594,-0.19 -2.326,-0.574 l -18.403,-9.675 -18.403,9.675 c -1.687,0.885 -3.727,0.738 -5.266,-0.381 -1.54,-1.119 -2.312,-3.014 -1.989,-4.89 l 3.515,-20.493 -14.889,-14.513 c -1.362,-1.329 -1.854,-3.315 -1.265,-5.125 0.588,-1.81 2.152,-3.129 4.036,-3.403 l 20.575,-2.99 9.202,-18.645 c 0.842,-1.707 2.58,-2.787 4.483,-2.787 1.903,0 3.642,1.081 4.483,2.787 l 9.202,18.645 20.576,2.99 c 1.884,0.274 3.448,1.593 4.036,3.403 0.589,1.81 0.098,3.797 -1.265,5.125 l -14.89,14.513 3.515,20.493 c 0.322,1.876 -0.449,3.771 -1.989,4.89 -0.87,0.633 -1.901,0.955 -2.938,0.955 z m -20.73,-20.898 c 0.799,0 1.599,0.191 2.327,0.574 l 11.763,6.184 -2.246,-13.098 c -0.278,-1.622 0.259,-3.277 1.438,-4.426 l 9.517,-9.276 -13.151,-1.911 c -1.629,-0.237 -3.036,-1.26 -3.765,-2.735 l -5.882,-11.917 -5.882,11.917 c -0.729,1.476 -2.136,2.499 -3.765,2.735 l -13.151,1.911 9.517,9.276 c 1.179,1.149 1.716,2.804 1.438,4.426 l -2.246,13.098 11.763,-6.184 c 0.727,-0.383 1.526,-0.574 2.325,-0.574 z"
               id="path1721" />
            <path
               inkscape:connector-curvature="0"
               style="fill:#dadada;fill-opacity:1;stroke:none;stroke-opacity:1"
               d="m 36.461,20.439 c -0.903,0 -1.818,-0.245 -2.641,-0.758 C 28.209,16.181 22.445,12.693 16.688,9.313 14.307,7.915 13.51,4.851 14.909,2.47 c 1.399,-2.382 4.462,-3.179 6.844,-1.78 5.832,3.425 11.673,6.96 17.358,10.506 2.344,1.461 3.059,4.545 1.597,6.889 -0.947,1.519 -2.578,2.354 -4.247,2.354 z"
               id="path1723" />
            <path
               inkscape:connector-curvature="0"
               style="fill:#dadada;fill-opacity:1;stroke:none;stroke-opacity:1"
               d="m 294.791,291.639 c -1.756,0 -3.459,-0.926 -4.374,-2.569 C 268.445,249.594 242.682,211.905 213.842,177.05 185.07,142.276 152.914,109.931 118.267,80.912 98.618,64.454 77.89,48.84 56.656,34.504 54.367,32.959 53.764,29.851 55.31,27.562 c 1.545,-2.288 4.652,-2.892 6.941,-1.346 21.518,14.529 42.524,30.352 62.437,47.03 35.111,29.408 67.699,62.188 96.858,97.429 29.229,35.326 55.34,73.523 77.608,113.532 1.343,2.413 0.476,5.458 -1.938,6.8 -0.768,0.428 -1.603,0.632 -2.425,0.632 z"
               id="path1725" />
            <path
               inkscape:connector-curvature="0"
               style="fill:#dadada;fill-opacity:1;stroke:none;stroke-opacity:1"
               d="m 277.908,304.051 c -1.643,0 -3.25,-0.808 -4.206,-2.29 -27.006,-41.855 -58.298,-81.117 -93.008,-116.694 -9.889,-10.137 -20.189,-20.107 -30.614,-29.634 -2.038,-1.863 -2.181,-5.025 -0.318,-7.064 1.863,-2.039 5.027,-2.18 7.064,-0.318 10.565,9.654 21.004,19.759 31.026,30.032 35.175,36.054 66.886,75.841 94.252,118.255 1.497,2.32 0.83,5.415 -1.49,6.912 -0.838,0.543 -1.778,0.801 -2.706,0.801 z"
               id="path1727" />
            <path
               inkscape:connector-curvature="0"
               style="fill:#dadada;fill-opacity:1;stroke:none;stroke-opacity:1"
               d="m 208.646,119.921 c -1.424,0 -2.838,-0.605 -3.827,-1.779 C 172.924,80.273 138.467,46.252 102.406,17.023 100.26,15.284 99.931,12.136 101.67,9.99 c 1.739,-2.145 4.888,-2.475 7.033,-0.736 36.552,29.626 71.463,64.094 103.765,102.445 1.779,2.112 1.509,5.267 -0.604,7.045 -0.936,0.791 -2.08,1.177 -3.218,1.177 z"
               id="path1729" />
            <path
               inkscape:connector-curvature="0"
               style="fill:#dadada;fill-opacity:1;stroke:none;stroke-opacity:1"
               d="m 301.71,258.993 c -1.82,0 -3.575,-0.997 -4.458,-2.73 -20.934,-41.062 -46.361,-80.549 -75.577,-117.366 -1.716,-2.163 -1.354,-5.308 0.809,-7.024 2.165,-1.717 5.309,-1.354 7.025,0.809 29.628,37.336 55.418,77.387 76.651,119.04 1.255,2.46 0.277,5.471 -2.184,6.726 -0.726,0.369 -1.502,0.545 -2.266,0.545 z"
               id="path1731" />
            <path
               inkscape:connector-curvature="0"
               style="fill:#dadada;fill-opacity:1;stroke:none;stroke-opacity:1"
               d="m 315.902,288.333 c -1.898,0 -3.714,-1.087 -4.553,-2.928 -1.424,-3.125 -2.896,-6.294 -4.375,-9.418 -1.182,-2.496 -0.115,-5.477 2.38,-6.659 2.497,-1.18 5.478,-0.116 6.659,2.38 1.499,3.167 2.991,6.38 4.436,9.55 1.146,2.513 0.036,5.478 -2.477,6.623 -0.671,0.306 -1.376,0.452 -2.07,0.452 z"
               id="path1733" />
          </g>
        </g>
      </g>
      <g
         id="g1737" />
      <g
         id="g1739" />
      <g
         id="g1741" />
      <g
         id="g1743" />
      <g
         id="g1745" />
      <g
         id="g1747" />
      <g
         id="g1749" />
      <g
         id="g1751" />
      <g
         id="g1753" />
      <g
         id="g1755" />
      <g
         id="g1757" />
      <g
         id="g1759" />
      <g
         id="g1761" />
      <g
         id="g1763" />
      <g
         id="g1765" />
    </g>
    <text
       xml:space="preserve"
       style="font-style:normal;font-variant:normal;font-weight:normal;font-stretch:normal;font-size:22.57777786px;line-height:1.25;font-family:Lato;-inkscape-font-specification:Lato;letter-spacing:0px;word-spacing:0px;fill:#dadada;fill-opacity:1;stroke:none;stroke-width:0.26458332;stroke-opacity:1"
       x="30.616072"
       y="275.83334"
       id="text1818"><tspan
         sodipodi:role="line"
         id="tspan1816"
         x="30.616072"
         y="275.83334"
         style="line-height:2;letter-spacing:-0.21431243px;fill:#dadada;fill-opacity:1;stroke:none;stroke-width:0.26458332;stroke-opacity:1"><tspan
           style="font-style:normal;font-variant:normal;font-weight:bold;font-stretch:normal;line-height:2;font-family:Lato;-inkscape-font-specification:'Lato Bold';letter-spacing:-0.21431243px;fill:#dadada;fill-opacity:1;stroke:none;stroke-opacity:1"
           id="tspan1810"><tspan
             id="tspan1800"
             style="letter-spacing:-0.8387292px;fill:#dadada;fill-opacity:1;stroke:none;stroke-opacity:1">S<tspan
   style="letter-spacing:-1.24883342px"
   id="tspan1685">T</tspan></tspan><tspan
             id="tspan1802"
             style="letter-spacing:-1.25147915px;fill:#dadada;fill-opacity:1;stroke:none;stroke-opacity:1"><tspan
               style="letter-spacing:-1.65893745px"
               id="tspan1689">E</tspan><tspan
               style="letter-spacing:-1.063625px"
               id="tspan3145">L</tspan></tspan><tspan
             style="letter-spacing:0.14287502px;fill:#dadada;fill-opacity:1;stroke:none;stroke-opacity:1"
             id="tspan1804">L</tspan><tspan
             style="letter-spacing:-1.07420838px;fill:#dadada;fill-opacity:1;stroke:none;stroke-opacity:1"
             id="tspan1806">A</tspan><tspan
             id="tspan1808"
             style="letter-spacing:-2.08227086px;fill:#dadada;fill-opacity:1;stroke:none;stroke-opacity:1">R</tspan></tspan><tspan
           style="font-style:normal;font-variant:normal;font-weight:300;font-stretch:normal;line-height:2;font-family:Lato;-inkscape-font-specification:'Lato Light';letter-spacing:-0.91545832px;fill:#dadada;fill-opacity:1;stroke:none;stroke-opacity:1"
           id="tspan1814"><tspan
   style="letter-spacing:-1.22502089px;fill:#dadada;fill-opacity:1;stroke:none;stroke-opacity:1"
   id="tspan1812">G</tspan>A<tspan
   style="letter-spacing:-2.83897901px"
   id="tspan1683">ZE</tspan></tspan></tspan></text>
  </g>
</svg>
