<?xml version="1.0" encoding="UTF-8"?>
<svg width="5.7748mm" height="8.2079mm" version="1.1" viewBox="0 0 5.7748 8.2079" xmlns="http://www.w3.org/2000/svg" xmlnsCc="http://creativecommons.org/ns#" xmlnsDc="http://purl.org/dc/elements/1.1/" xmlnsRdf="http://www.w3.org/1999/02/22-rdf-syntax-ns#">

<g transform="translate(-92.614 -117.96)">
<g transform="matrix(.26458 0 0 .26458 88.258 114.74)" fill="#edd9c0">
<path d="m34.606 15.843c-1.9305-1.9305-4.4974-2.9938-7.2274-2.9938-2.7305 0-5.2969 1.0633-7.2274 2.9938-3.5726 3.5721-4.0166 10.293-0.96152 14.365l8.1889 11.826 8.1766-11.81c3.0674-4.0886 2.6234-10.81-0.94926-14.382zm-7.133 10.864c-2.0568 0-3.7309-1.6741-3.7309-3.7309s1.6741-3.7309 3.7309-3.7309c2.0568 0 3.7309 1.6741 3.7309 3.7309s-1.6741 3.7309-3.7309 3.7309z" fill="#edd9c0" stroke="#030000" stroke-width="1.333"/>
</g>
</g>
</svg>
