<?xml version="1.0" encoding="UTF-8" standalone="no"?>
<svg
   xmlns:dc="http://purl.org/dc/elements/1.1/"
   xmlns:cc="http://creativecommons.org/ns#"
   xmlns:rdf="http://www.w3.org/1999/02/22-rdf-syntax-ns#"
   xmlns:svg="http://www.w3.org/2000/svg"
   xmlns="http://www.w3.org/2000/svg"
   id="svg8"
   version="1.1"
   viewBox="0 0 6.7603688 9.6523524"
   height="9.6523523mm"
   width="6.7603688mm">
  <defs
     id="defs2" />
  <metadata
     id="metadata5">
    <rdf:RDF>
      <cc:Work
         rdf:about="">
        <dc:format>image/svg+xml</dc:format>
        <dc:type
           rdf:resource="http://purl.org/dc/dcmitype/StillImage" />
        <dc:title></dc:title>
      </cc:Work>
    </rdf:RDF>
  </metadata>
  <g
     transform="translate(-92.121306,-117.15724)"
     id="layer1">
    <g
       transform="matrix(0.15863342,0,0,0.14766775,65.681497,78.68577)"
       id="g860" />
    <g
       transform="matrix(0.26458333,0,0,0.26458333,88.257712,114.73952)"
       id="g928">
      <path
         style="stroke-width:0.66624051;fill:#bb6f6f;fill-opacity:1"
         d="m 36.413574,12.880109 c -2.413123,-2.413124 -5.621737,-3.7422739 -9.034222,-3.7422739 -3.41315,0 -6.621098,1.3291499 -9.034221,3.7422739 -4.46581,4.465144 -5.020789,12.866436 -1.201898,17.956514 L 27.379352,45.619168 37.600148,30.857277 c 3.834214,-5.110732 3.279237,-13.512024 -1.186574,-17.977168 z m -8.916297,13.579979 c -2.571022,0 -4.663684,-2.09266 -4.663684,-4.663683 0,-2.571022 2.092662,-4.663684 4.663684,-4.663684 2.571022,0 4.663684,2.092662 4.663684,4.663684 0,2.571023 -2.092662,4.663683 -4.663684,4.663683 z"
         id="path873" />
      <g
         id="g875">
</g>
      <g
         id="g877">
</g>
      <g
         id="g879">
</g>
      <g
         id="g881">
</g>
      <g
         id="g883">
</g>
      <g
         id="g885">
</g>
      <g
         id="g887">
</g>
      <g
         id="g889">
</g>
      <g
         id="g891">
</g>
      <g
         id="g893">
</g>
      <g
         id="g895">
</g>
      <g
         id="g897">
</g>
      <g
         id="g899">
</g>
      <g
         id="g901">
</g>
      <g
         id="g903">
</g>
    </g>
  </g>
</svg>
