<?xml version="1.0" encoding="UTF-8" standalone="no"?>
<svg
   xmlns:dc="http://purl.org/dc/elements/1.1/"
   xmlns:cc="http://creativecommons.org/ns#"
   xmlns:rdf="http://www.w3.org/1999/02/22-rdf-syntax-ns#"
   xmlns:svg="http://www.w3.org/2000/svg"
   xmlns="http://www.w3.org/2000/svg"
   width="6.7603688mm"
   height="9.6523523mm"
   viewBox="0 0 6.7603688 9.6523524"
   version="1.1"
   id="svg8">
  <defs
     id="defs2" />
  <metadata
     id="metadata5">
    <rdf:RDF>
      <cc:Work
         rdf:about="">
        <dc:format>image/svg+xml</dc:format>
        <dc:type
           rdf:resource="http://purl.org/dc/dcmitype/StillImage" />
        <dc:title></dc:title>
      </cc:Work>
    </rdf:RDF>
  </metadata>
  <g
     id="layer1"
     transform="translate(-92.121306,-117.15724)">
    <g
       id="g860"
       transform="matrix(0.15863342,0,0,0.14766775,65.681497,78.68577)" />
    <g
       style="fill:#edd9c0;fill-opacity:1"
       id="g928"
       transform="matrix(0.26458333,0,0,0.26458333,88.257712,114.73952)">
      <path
         id="path873"
         d="m 36.413574,12.880109 c -2.413123,-2.413124 -5.621737,-3.7422739 -9.034222,-3.7422739 -3.41315,0 -6.621098,1.3291499 -9.034221,3.7422739 -4.46581,4.465144 -5.020789,12.866436 -1.201898,17.956514 L 27.379352,45.619168 37.600148,30.857277 c 3.834214,-5.110732 3.279237,-13.512024 -1.186574,-17.977168 z m -8.916297,13.579979 c -2.571022,0 -4.663684,-2.09266 -4.663684,-4.663683 0,-2.571022 2.092662,-4.663684 4.663684,-4.663684 2.571022,0 4.663684,2.092662 4.663684,4.663684 0,2.571023 -2.092662,4.663683 -4.663684,4.663683 z"
         style="stroke-width:0.66624051;fill:#edd9c0;fill-opacity:1" />
      <g
         style="fill:#edd9c0;fill-opacity:1"
         id="g875" />
      <g
         style="fill:#edd9c0;fill-opacity:1"
         id="g877" />
      <g
         style="fill:#edd9c0;fill-opacity:1"
         id="g879" />
      <g
         style="fill:#edd9c0;fill-opacity:1"
         id="g881" />
      <g
         style="fill:#edd9c0;fill-opacity:1"
         id="g883" />
      <g
         style="fill:#edd9c0;fill-opacity:1"
         id="g885" />
      <g
         style="fill:#edd9c0;fill-opacity:1"
         id="g887" />
      <g
         style="fill:#edd9c0;fill-opacity:1"
         id="g889" />
      <g
         style="fill:#edd9c0;fill-opacity:1"
         id="g891" />
      <g
         style="fill:#edd9c0;fill-opacity:1"
         id="g893" />
      <g
         style="fill:#edd9c0;fill-opacity:1"
         id="g895" />
      <g
         style="fill:#edd9c0;fill-opacity:1"
         id="g897" />
      <g
         style="fill:#edd9c0;fill-opacity:1"
         id="g899" />
      <g
         style="fill:#edd9c0;fill-opacity:1"
         id="g901" />
      <g
         style="fill:#edd9c0;fill-opacity:1"
         id="g903" />
    </g>
  </g>
</svg>
