<?xml version="1.0" encoding="utf-8"?>
<!-- Svg Vector Icons : http://www.onlinewebfonts.com/icon -->
<!DOCTYPE svg PUBLIC "-//W3C//DTD SVG 1.1//EN" "http://www.w3.org/Graphics/SVG/1.1/DTD/svg11.dtd">
<svg version="1.1" xmlns="http://www.w3.org/2000/svg" xmlns:xlink="http://www.w3.org/1999/xlink" x="0px" y="0px" viewBox="0 0 1000 1000" enable-background="new 0 0 1000 1000" xml:space="preserve">
<metadata> Svg Vector Icons : http://www.onlinewebfonts.com/icon </metadata>
<g><g transform="translate(0.000000,512.000000) scale(0.100000,-0.100000)"><path d="M1247.6,5004.9c-689.8-145.6-1195.7-795.2-1144-1469.7c32.6-427.3,413.9-1216.8,1071.2-2222.8c130.3-201.2,224.2-325.7,254.8-339.2c61.3-28.7,153.3-28.7,205-1.9c69,36.4,532.7,766.5,822,1295.3c316.2,572.9,477.1,992.6,492.5,1281.9c34.5,651.5-375.6,1222.5-1021.3,1425.6C1757.3,5026,1425.8,5041.3,1247.6,5004.9z M1791.8,4152.2c212.7-105.4,343-310.4,344.9-548c1.9-339.2-272.1-613.2-613.2-611.3c-329.6,1.9-580.6,245.3-597.8,576.8c-11.5,199.3,32.6,310.4,178.2,456c147.5,147.5,235.7,182,440.7,176.3C1661.5,4198.2,1720.9,4186.7,1791.8,4152.2z"/><path d="M2245.9,1325.8c-126.5-70.9-130.3-287.4-5.8-354.5c17.3-9.6,193.5-26.8,392.8-40.2c404.3-26.8,431.1-21.1,484.8,105.4c36.4,88.1,1.9,195.5-78.6,241.4C2930,1341.2,2337.9,1377.6,2245.9,1325.8z"/><path d="M3648.6,1071c-72.8-13.4-139.9-113.1-139.9-205c0-90.1,34.5-132.2,191.6-231.9c147.5-92,264.4-199.3,364.1-333.4c128.4-174.4,206.9-207,327.7-143.7c70.9,34.5,118.8,139.9,101.6,214.6c-28.7,115-241.4,367.9-435,511.6C3845.9,1044.2,3744.4,1090.2,3648.6,1071z"/><path d="M7896.7,938.8c-436.9-55.6-814.4-231.9-1109.5-521.2c-423.5-417.7-626.6-1007.9-530.8-1554c103.5-592.1,626.6-1755.2,1446.7-3209.6c206.9-369.8,260.6-433.1,362.1-433.1c126.5,0,191.6,92,641.9,919.8c572.9,1057.7,992.6,1996.7,1138.2,2554.3c69,262.5,72.8,590.2,9.6,845c-197.4,791.4-891,1360.5-1703.5,1398.8C8048.1,942.6,7933.2,942.6,7896.7,938.8z M8404.5,66.9c298.9-111.1,521.2-331.5,626.6-624.7c28.7-74.7,44.1-172.4,49.8-302.8c7.7-168.6,1.9-208.9-42.2-341.1c-57.5-168.6-115-266.3-228-392.8c-389-423.5-1082.6-423.5-1481.2-1.9c-298.9,316.2-366,816.3-157.1,1186.1c147.5,264.4,369.8,433,666.8,509.7C7988.7,137.8,8257,122.5,8404.5,66.9z"/><path d="M4455.3-283.8c-74.7-74.7-78.6-113-36.4-314.2c15.3-72.8,40.2-260.6,59.4-417.8c17.2-166.7,42.1-304.7,59.4-329.6c15.3-24.9,57.5-57.5,95.8-72.8c134.1-57.5,274,40.3,274,191.6c0,109.2-51.7,523.1-90.1,720.5c-26.8,136-42.1,174.4-93.9,226.1C4637.3-193.7,4545.4-193.7,4455.3-283.8z"/><path d="M4625.8-1914.4l-69-69l13.4-185.8c19.2-274,86.2-712.8,118.8-781.8c74.7-157.1,308.5-141.8,373.7,28.8c11.5,28.8,7.6,95.8-11.5,195.4c-15.3,84.3-42.1,279.8-57.5,435c-32.6,320-49.8,377.5-126.5,415.8C4775.3-1828.2,4700.6-1839.7,4625.8-1914.4z"/><path d="M5047.4-3449.3c-74.7-36.4-126.4-138-109.2-212.7c55.6-226.1,572.9-753.1,741.6-753.1c67.1,0,159.1,46,185.9,93.9c21.1,42.1,24.9,155.2,7.7,203.1c-7.7,17.2-74.7,76.6-149.5,132.2c-149.5,111.1-274,245.3-381.3,415.8c-47.9,74.7-88.1,115-130.3,130.3C5133.6-3412.9,5122.1-3412.9,5047.4-3449.3z"/><path d="M6319.7-4338.4c-72.8-57.5-99.6-153.3-63.2-235.7c15.3-38.3,47.9-80.5,72.8-95.8c63.2-42.2,394.7-90.1,714.7-103.5l275.9-11.5l67.1,67.1c76.7,76.6,88.1,151.4,40.2,243.4c-38.3,74.7-101.6,93.9-354.5,107.3c-120.7,7.7-306.6,24.9-410.1,40.2C6413.6-4292.4,6379.1-4292.4,6319.7-4338.4z"/></g></g>
</svg>