<svg xmlns="http://www.w3.org/2000/svg" xmlns:xlink="http://www.w3.org/1999/xlink" version="1.1" x="0px" y="0px" viewBox="0 0 16 20" style="enable-background:new 0 0 16 16;" xml:space="preserve"><g><circle cx="9.5" cy="12.5" r="0.5"/><circle cx="6.5" cy="7.5" r="0.5"/><path d="M10.776,3.524C9.958,2.481,9.113,1.403,8.431,0.246c-0.18-0.305-0.682-0.305-0.861,0C6.887,1.403,6.042,2.481,5.224,3.524   C3.566,5.639,2,7.637,2,10c0,3.309,2.691,6,6,6s6-2.691,6-6C14,7.637,12.434,5.639,10.776,3.524z M6.5,6C7.327,6,8,6.673,8,7.5   S7.327,9,6.5,9S5,8.327,5,7.5S5.673,6,6.5,6z M9.5,14C8.673,14,8,13.327,8,12.5S8.673,11,9.5,11s1.5,0.673,1.5,1.5   S10.327,14,9.5,14z M10.854,7.854l-5,5C5.756,12.951,5.628,13,5.5,13s-0.256-0.049-0.354-0.146c-0.195-0.195-0.195-0.512,0-0.707   l5-5c0.195-0.195,0.512-0.195,0.707,0S11.049,7.659,10.854,7.854z"/></g><text x="0" y="31" fill="#000000" font-size="5px" font-weight="bold" font-family="'Helvetica Neue', Helvetica, Arial-Unicode, Arial, Sans-serif">Created by icon 54</text><text x="0" y="36" fill="#000000" font-size="5px" font-weight="bold" font-family="'Helvetica Neue', Helvetica, Arial-Unicode, Arial, Sans-serif">from the Noun Project</text></svg>