<svg xmlns="http://www.w3.org/2000/svg" xmlns:xlink="http://www.w3.org/1999/xlink" viewBox="0 0 724.75 508.31"><defs><style>.cls-1{fill:none;}.cls-2{fill:url(#linear-gradient);}.cls-3{clip-path:url(#clip-path);}.cls-4{opacity:0.3;}.cls-5{fill:#fff;}</style><linearGradient id="linear-gradient" x1="367.93" y1="371.5" x2="367.93" y2="11.41" gradientUnits="userSpaceOnUse"><stop offset="0" stop-color="#445763"/><stop offset="1" stop-color="#0d0e1f"/></linearGradient><clipPath id="clip-path" transform="translate(117.93 8.31)"><rect class="cls-1" y="0.19" width="500" height="500"/></clipPath></defs><title>loginModalPlain</title><g id="_500x500" data-name="500x500"><rect class="cls-2" x="117.93" y="8.31" width="500" height="500"/><g class="cls-3"><g class="cls-4"><path class="cls-5" d="M45.18,199.56a12.82,12.82,0,0,0-7.25,2.23,19.91,19.91,0,0,0-26.66-13.74,28.24,28.24,0,0,0-25.78-16.72,28.24,28.24,0,0,0-26.21,17.74,22.83,22.83,0,0,0-12.14-3.47,23,23,0,0,0-21.78,15.57,12.87,12.87,0,0,0-6.24-1.61,12.91,12.91,0,0,0-12.9,12.82H58.08A12.91,12.91,0,0,0,45.18,199.56Z" transform="translate(117.93 8.31)"/><path class="cls-5" d="M374.26,294.51a14.86,14.86,0,0,0-21.64-13.23,34.29,34.29,0,0,0-60.09-3.45,19.6,19.6,0,0,0-27.06,17.5H374.22C374.24,295.05,374.26,294.78,374.26,294.51Z" transform="translate(117.93 8.31)"/><path class="cls-5" d="M166.48,300.52a12.33,12.33,0,0,0-4.52.87,23.33,23.33,0,0,0-41.13.72,12.22,12.22,0,0,0-18.2,9.55h76A12.25,12.25,0,0,0,166.48,300.52Z" transform="translate(117.93 8.31)"/><path class="cls-5" d="M589.06,216.66a18.45,18.45,0,0,0-8.57,2.11,28.23,28.23,0,0,0-35.2-15.31A32.72,32.72,0,0,0,484,207.2a28.22,28.22,0,0,0-42.82,12.69A12.22,12.22,0,0,0,423.89,230H606.82A18.51,18.51,0,0,0,589.06,216.66Z" transform="translate(117.93 8.31)"/></g><path class="cls-5" d="M-57.64,120.68l4.7-.57-4.7-.58a1.46,1.46,0,0,0-.73-.72l-.57-4.7-.58,4.7a1.41,1.41,0,0,0-.72.72l-4.7.58,4.7.57a1.41,1.41,0,0,0,.72.72l.58,4.71.57-4.71A1.46,1.46,0,0,0-57.64,120.68Z" transform="translate(117.93 8.31)"/><path class="cls-5" d="M591.27,203.41l5.09-.62-5.09-.62a1.58,1.58,0,0,0-.78-.79l-.63-5.09-.62,5.09a1.54,1.54,0,0,0-.78.79l-5.1.62,5.1.62a1.49,1.49,0,0,0,.78.78l.62,5.1.63-5.1A1.52,1.52,0,0,0,591.27,203.41Z" transform="translate(117.93 8.31)"/><path class="cls-5" d="M450.37,92.84l5.49-.67-5.49-.68a1.72,1.72,0,0,0-.84-.84l-.67-5.48-.67,5.48a1.7,1.7,0,0,0-.85.84l-5.48.68,5.48.67a1.7,1.7,0,0,0,.85.84l.67,5.49.67-5.49A1.72,1.72,0,0,0,450.37,92.84Z" transform="translate(117.93 8.31)"/><path class="cls-5" d="M269.91,263.25l3.14-.38-3.14-.38a.87.87,0,0,0-.48-.48l-.38-3.14-.39,3.14a.94.94,0,0,0-.48.48l-3.13.38,3.13.38a1,1,0,0,0,.48.49l.39,3.13.38-3.13A.92.92,0,0,0,269.91,263.25Z" transform="translate(117.93 8.31)"/><path class="cls-5" d="M362.45,129.76l4.31-.53-4.31-.53a1.29,1.29,0,0,0-.66-.66l-.53-4.31-.52,4.31a1.29,1.29,0,0,0-.66.66l-4.32.53,4.32.53a1.29,1.29,0,0,0,.66.66l.52,4.31.53-4.31A1.29,1.29,0,0,0,362.45,129.76Z" transform="translate(117.93 8.31)"/><path class="cls-5" d="M78.71,149.4l3.53-.43-3.53-.43a1.09,1.09,0,0,0-.54-.54l-.43-3.53L77.3,148a1.09,1.09,0,0,0-.54.54l-3.52.43,3.52.43a1.05,1.05,0,0,0,.54.54l.44,3.53.43-3.53A1.05,1.05,0,0,0,78.71,149.4Z" transform="translate(117.93 8.31)"/><path class="cls-5" d="M360.42,43.71l5.37-.65-5.37-.66a1.6,1.6,0,0,0-.82-.82l-.66-5.36-.65,5.36a1.6,1.6,0,0,0-.82.82l-5.37.66,5.37.65a1.62,1.62,0,0,0,.82.83l.65,5.36.66-5.36A1.62,1.62,0,0,0,360.42,43.71Z" transform="translate(117.93 8.31)"/><path class="cls-5" d="M516.65,134.05l4.71-.58-4.71-.57a1.41,1.41,0,0,0-.72-.72l-.57-4.71-.58,4.71a1.41,1.41,0,0,0-.72.72l-4.7.57,4.7.58a1.41,1.41,0,0,0,.72.72l.58,4.7.57-4.7A1.41,1.41,0,0,0,516.65,134.05Z" transform="translate(117.93 8.31)"/><path class="cls-5" d="M233,130.68l4.7-.57-4.7-.58a1.41,1.41,0,0,0-.72-.72l-.58-4.7-.57,4.7a1.41,1.41,0,0,0-.72.72l-4.71.58,4.71.57a1.41,1.41,0,0,0,.72.72l.57,4.71.58-4.71A1.41,1.41,0,0,0,233,130.68Z" transform="translate(117.93 8.31)"/><path class="cls-5" d="M219.36,40.47l3.52-.43-3.52-.43a1.11,1.11,0,0,0-.54-.55l-.43-3.52L218,39.06a1.11,1.11,0,0,0-.54.55l-3.53.43,3.53.43A1.09,1.09,0,0,0,218,41l.44,3.53.43-3.53A1.09,1.09,0,0,0,219.36,40.47Z" transform="translate(117.93 8.31)"/><path class="cls-5" d="M-57.54,23.16l5.1-.63-5.1-.62a1.49,1.49,0,0,0-.78-.78l-.62-5.1-.63,5.1a1.56,1.56,0,0,0-.78.78l-5.09.62,5.09.63a1.64,1.64,0,0,0,.78.78l.63,5.09.62-5.09A1.56,1.56,0,0,0-57.54,23.16Z" transform="translate(117.93 8.31)"/><path class="cls-5" d="M58.54,66.2l3.52-.43-3.52-.43A1.11,1.11,0,0,0,58,64.8l-.43-3.53-.43,3.53a1.09,1.09,0,0,0-.54.54l-3.53.43,3.53.43a1.07,1.07,0,0,0,.54.55l.43,3.52L58,66.75A1.09,1.09,0,0,0,58.54,66.2Z" transform="translate(117.93 8.31)"/><path class="cls-5" d="M490.4,39.31l5.49-.67L490.4,38a1.64,1.64,0,0,0-.84-.84l-.67-5.49-.67,5.49a1.64,1.64,0,0,0-.84.84l-5.49.67,5.49.67a1.57,1.57,0,0,0,.84.84l.67,5.49.67-5.49A1.57,1.57,0,0,0,490.4,39.31Z" transform="translate(117.93 8.31)"/><path class="cls-5" d="M167.48,1l6.67-.82-6.67-.82a2,2,0,0,0-1-1l-.81-6.66-.82,6.66a2,2,0,0,0-1,1l-6.66.81,6.66.82a2,2,0,0,0,1,1l.82,6.66L166.46,2A2,2,0,0,0,167.48,1Z" transform="translate(117.93 8.31)"/><path class="cls-5" d="M167.85,123.94a1.55,1.55,0,0,0,0-3.1,1.55,1.55,0,0,0,0,3.1Z" transform="translate(117.93 8.31)"/><path class="cls-5" d="M35.85,259.48a1.76,1.76,0,0,0,0-3.52,1.76,1.76,0,0,0,0,3.52Z" transform="translate(117.93 8.31)"/><path class="cls-5" d="M562.1,83.8a1.76,1.76,0,0,0,0-3.51,1.76,1.76,0,0,0,0,3.51Z" transform="translate(117.93 8.31)"/><path class="cls-5" d="M231.69,283.57a1,1,0,0,0,0-2.07,1,1,0,0,0,0,2.07Z" transform="translate(117.93 8.31)"/><path class="cls-5" d="M62.93,200.75a1.61,1.61,0,0,0,0-3.21,1.61,1.61,0,0,0,0,3.21Z" transform="translate(117.93 8.31)"/><path class="cls-5" d="M-43.3,242a.57.57,0,0,1-.18,0l.84.64h0V244a1.54,1.54,0,0,0,.2-.73,1.43,1.43,0,0,0-1.42-1.42,1.42,1.42,0,0,0-1.42,1.42h0a1.48,1.48,0,0,0,.41,1,1.42,1.42,0,0,0,1.38.37h0l-.38.05.2,0a1.43,1.43,0,0,0,.7-.18,1.43,1.43,0,0,0,.63-.83,1.41,1.41,0,0,0-.14-1.06,1.33,1.33,0,0,0-.82-.63Z" transform="translate(117.93 8.31)"/><path class="cls-5" d="M317.6,330.14a1.5,1.5,0,0,0,0-3,1.5,1.5,0,0,0,0,3Z" transform="translate(117.93 8.31)"/><path class="cls-5" d="M219.38,159.92a1,1,0,0,0,0-2.06,1,1,0,0,0,0,2.06Z" transform="translate(117.93 8.31)"/><path class="cls-5" d="M452.52,314.41a1.7,1.7,0,0,0-1.65.69,1.2,1.2,0,0,0,0,1.24,1.7,1.7,0,0,0,1.65.69,1.31,1.31,0,0,0,0-2.62Z" transform="translate(117.93 8.31)"/><path class="cls-5" d="M462.52,478.45c2.66,0,2.66-4.13,0-4.13s-2.66,4.13,0,4.13Z" transform="translate(117.93 8.31)"/><path class="cls-5" d="M288.47,237.2c2.61,0,2.61-4,0-4s-2.61,4,0,4Z" transform="translate(117.93 8.31)"/><path class="cls-5" d="M294.82,17c2.61,0,2.61-4,0-4s-2.61,4,0,4Z" transform="translate(117.93 8.31)"/><path class="cls-5" d="M427.26,42.87c2.61,0,2.61-4,0-4s-2.6,4,0,4Z" transform="translate(117.93 8.31)"/><path class="cls-5" d="M89.85,36.87c2.61,0,2.61-4,0-4s-2.6,4,0,4Z" transform="translate(117.93 8.31)"/><path class="cls-5" d="M-117.15,340.53a.52.52,0,0,0,0-1,.52.52,0,0,0,0,1Z" transform="translate(117.93 8.31)"/><path class="cls-5" d="M324.77,251.25a1.25,1.25,0,0,0,0-2.5,1.25,1.25,0,0,0,0,2.5Z" transform="translate(117.93 8.31)"/><path class="cls-5" d="M568.68,264.12a1.25,1.25,0,0,0,0-2.5,1.25,1.25,0,0,0,0,2.5Z" transform="translate(117.93 8.31)"/><path class="cls-5" d="M534.69,52.3a1.25,1.25,0,0,0,0-2.5,1.25,1.25,0,0,0,0,2.5Z" transform="translate(117.93 8.31)"/><path class="cls-5" d="M330.13,344a1.25,1.25,0,0,0,0-2.5,1.25,1.25,0,0,0,0,2.5Z" transform="translate(117.93 8.31)"/><path class="cls-5" d="M443.44,273.65a1.25,1.25,0,0,0,0-2.5,1.25,1.25,0,0,0,0,2.5Z" transform="translate(117.93 8.31)"/><path class="cls-5" d="M378.59,228a1.25,1.25,0,0,0,0-2.5,1.25,1.25,0,0,0,0,2.5Z" transform="translate(117.93 8.31)"/><path class="cls-5" d="M123.18,87.42a1,1,0,0,0,0-2.07,1,1,0,0,0,0,2.07Z" transform="translate(117.93 8.31)"/><path class="cls-5" d="M18.17,106.45l.35-.24a1.36,1.36,0,0,0,0-2.31l-.35-.24c-3-2.06-3,4.85,0,2.79Z" transform="translate(117.93 8.31)"/><path class="cls-5" d="M155.65,62.87l.35-.24a1.36,1.36,0,0,0,0-2.31l-.35-.24c-3-2.06-3,4.85,0,2.79Z" transform="translate(117.93 8.31)"/><path class="cls-5" d="M23.19,311.85a1,1,0,0,0,0-2.07,1,1,0,0,0,0,2.07Z" transform="translate(117.93 8.31)"/><path class="cls-5" d="M195.67,339a1,1,0,0,0,0-2.07,1,1,0,0,0,0,2.07Z" transform="translate(117.93 8.31)"/><path class="cls-5" d="M6.49,224.35a1.55,1.55,0,0,0,0-3.1,1.55,1.55,0,0,0,0,3.1Z" transform="translate(117.93 8.31)"/><path class="cls-5" d="M379.8,68c2.85,0,2.85-4.42,0-4.42S377,68,379.8,68Z" transform="translate(117.93 8.31)"/><path class="cls-5" d="M303.42,123.33a1,1,0,0,0,0-1.89.95.95,0,0,0,0,1.89Z" transform="translate(117.93 8.31)"/><path class="cls-5" d="M116.52,212.17v.19a1.09,1.09,0,0,0,1.08,1.07,1.08,1.08,0,0,0,1.07-1.07c0-.25,0-.49-.05-.73a1,1,0,0,0-.75-1,1.28,1.28,0,0,0-.55,0,1,1,0,0,0-.75,1c0,.24,0,.48,0,.73a1.08,1.08,0,0,0,2.15,0v-.19c.09-1.4-2.26-1.4-2.17,0Z" transform="translate(117.93 8.31)"/><path class="cls-5" d="M354.42,169.87a.82.82,0,0,0,0-1.63.82.82,0,0,0,0,1.63Z" transform="translate(117.93 8.31)"/><path class="cls-5" d="M365.45,266.39a.82.82,0,0,0,0-1.63.82.82,0,0,0,0,1.63Z" transform="translate(117.93 8.31)"/><path class="cls-5" d="M41.86,282.53a.81.81,0,0,0,0-1.62.81.81,0,0,0,0,1.62Z" transform="translate(117.93 8.31)"/><path class="cls-5" d="M38,130a.81.81,0,0,0,0-1.62A.81.81,0,0,0,38,130Z" transform="translate(117.93 8.31)"/><path class="cls-5" d="M-117.15,41.66a.81.81,0,0,0,0-1.62.81.81,0,0,0,0,1.62Z" transform="translate(117.93 8.31)"/><path class="cls-5" d="M57.56,26.53a.81.81,0,0,0,0-1.62.81.81,0,0,0,0,1.62Z" transform="translate(117.93 8.31)"/><path class="cls-5" d="M182.92,26.53a.81.81,0,0,0,0-1.62.81.81,0,0,0,0,1.62Z" transform="translate(117.93 8.31)"/><path class="cls-5" d="M145.24,186.69a1.55,1.55,0,0,0,0-3.1,1.55,1.55,0,0,0,0,3.1Z" transform="translate(117.93 8.31)"/><path class="cls-5" d="M78,206.29a.82.82,0,0,0,0-1.63.82.82,0,0,0,0,1.63Z" transform="translate(117.93 8.31)"/><path class="cls-5" d="M171,273.64a1,1,0,0,0,0-2.06,1,1,0,0,0,0,2.06Z" transform="translate(117.93 8.31)"/><path class="cls-5" d="M97.19,263.68a.81.81,0,0,0,0-1.62.81.81,0,0,0,0,1.62Z" transform="translate(117.93 8.31)"/><path class="cls-5" d="M36.94,142a.81.81,0,0,0,0-1.62.81.81,0,0,0,0,1.62Z" transform="translate(117.93 8.31)"/><path class="cls-5" d="M-75.48,407.87a.82.82,0,0,0,0-1.63.82.82,0,0,0,0,1.63Z" transform="translate(117.93 8.31)"/><path class="cls-5" d="M151,135.1a.82.82,0,0,0,0-1.63.82.82,0,0,0,0,1.63Z" transform="translate(117.93 8.31)"/><path class="cls-5" d="M-117.15,487.28a.81.81,0,0,0,0-1.62.81.81,0,0,0,0,1.62Z" transform="translate(117.93 8.31)"/><path class="cls-5" d="M471.19,336.48a.82.82,0,0,0,0-1.63.82.82,0,0,0,0,1.63Z" transform="translate(117.93 8.31)"/><path class="cls-5" d="M531.19,294.53a.81.81,0,0,0,0-1.62.81.81,0,0,0,0,1.62Z" transform="translate(117.93 8.31)"/><path class="cls-5" d="M579.28,438.56a.82.82,0,0,0,0-1.63.82.82,0,0,0,0,1.63Z" transform="translate(117.93 8.31)"/><path class="cls-5" d="M427.26,442.24a.81.81,0,0,0,0-1.62.81.81,0,0,0,0,1.62Z" transform="translate(117.93 8.31)"/><path class="cls-5" d="M444.22,364.53a.81.81,0,0,0,0-1.62.81.81,0,0,0,0,1.62Z" transform="translate(117.93 8.31)"/><path class="cls-5" d="M568.6,160.33a.81.81,0,0,0,0-1.62.81.81,0,0,0,0,1.62Z" transform="translate(117.93 8.31)"/><path class="cls-5" d="M278.45,62.19a.81.81,0,0,0,0-1.62.81.81,0,0,0,0,1.62Z" transform="translate(117.93 8.31)"/><path class="cls-5" d="M452.52,195.42a1,1,0,0,0,0-2.07,1,1,0,0,0,0,2.07Z" transform="translate(117.93 8.31)"/><path class="cls-5" d="M503.19,73.62a.82.82,0,0,0,0-1.63.82.82,0,0,0,0,1.63Z" transform="translate(117.93 8.31)"/><path class="cls-5" d="M-52.09,178.13a.81.81,0,0,0,0-1.62.81.81,0,0,0,0,1.62Z" transform="translate(117.93 8.31)"/><path class="cls-5" d="M-94.07,311.63a.82.82,0,0,0,0-1.63.82.82,0,0,0,0,1.63Z" transform="translate(117.93 8.31)"/><path class="cls-5" d="M471.19,26.53a.81.81,0,0,0,0-1.62.81.81,0,0,0,0,1.62Z" transform="translate(117.93 8.31)"/><path class="cls-5" d="M305.39,79.45a.82.82,0,0,0,0-1.63.82.82,0,0,0,0,1.63Z" transform="translate(117.93 8.31)"/><path class="cls-5" d="M1.86,350.13a.81.81,0,0,0,0-1.62.81.81,0,0,0,0,1.62Z" transform="translate(117.93 8.31)"/><path class="cls-5" d="M397,26.53a.81.81,0,0,0,0-1.62.81.81,0,0,0,0,1.62Z" transform="translate(117.93 8.31)"/><path class="cls-5" d="M257.21,106.53a.82.82,0,0,0,0-1.63.82.82,0,0,0,0,1.63Z" transform="translate(117.93 8.31)"/><path class="cls-5" d="M407.25,109.16a.82.82,0,0,0,0-1.63.82.82,0,0,0,0,1.63Z" transform="translate(117.93 8.31)"/><path class="cls-5" d="M75.83,96.1a.81.81,0,0,0,0-1.62.81.81,0,0,0,0,1.62Z" transform="translate(117.93 8.31)"/><path class="cls-5" d="M323.85,109.16a.82.82,0,0,0,0-1.63.82.82,0,0,0,0,1.63Z" transform="translate(117.93 8.31)"/><path class="cls-5" d="M199.2,243.43a.81.81,0,0,0,0-1.62.81.81,0,0,0,0,1.62Z" transform="translate(117.93 8.31)"/><path class="cls-5" d="M158.85,41.66a.81.81,0,0,0,0-1.62.81.81,0,0,0,0,1.62Z" transform="translate(117.93 8.31)"/><path class="cls-5" d="M-110.15,212.63a.81.81,0,0,0,0-1.62.81.81,0,0,0,0,1.62Z" transform="translate(117.93 8.31)"/><path class="cls-5" d="M-38.15,328.23a.81.81,0,0,0,0-1.62.81.81,0,0,0,0,1.62Z" transform="translate(117.93 8.31)"/><path class="cls-5" d="M343.08,79.33a.82.82,0,0,0,0-1.63.82.82,0,0,0,0,1.63Z" transform="translate(117.93 8.31)"/><path class="cls-5" d="M88.75,166.25a.82.82,0,0,0,0-1.63.82.82,0,0,0,0,1.63Z" transform="translate(117.93 8.31)"/><path class="cls-5" d="M9.33,164a.82.82,0,0,0,0-1.63.82.82,0,0,0,0,1.63Z" transform="translate(117.93 8.31)"/><path class="cls-5" d="M480.47,247.23a1.55,1.55,0,0,0,0-3.1,1.55,1.55,0,0,0,0,3.1Z" transform="translate(117.93 8.31)"/><path class="cls-5" d="M594.52,27.79c2.67,0,2.67-4.14,0-4.14s-2.67,4.14,0,4.14Z" transform="translate(117.93 8.31)"/><path class="cls-5" d="M240.86,77a1,1,0,0,0,0-2.07,1,1,0,0,0,0,2.07Z" transform="translate(117.93 8.31)"/><path class="cls-5" d="M266,35.66A.81.81,0,0,0,266,34a.81.81,0,0,0,0,1.62Z" transform="translate(117.93 8.31)"/><path class="cls-5" d="M-94.07,100.81c2.61,0,2.61-4,0-4s-2.61,4,0,4Z" transform="translate(117.93 8.31)"/><path class="cls-5" d="M-34.07,41.09v.19A1.09,1.09,0,0,0-33,42.35a1.09,1.09,0,0,0,1.08-1.07c0-.25,0-.49-.05-.73a1,1,0,0,0-.75-1,1.28,1.28,0,0,0-.55,0,1,1,0,0,0-.75,1c0,.24,0,.48-.05.73A1.08,1.08,0,0,0-33,42.35a1.09,1.09,0,0,0,1.08-1.07v-.19c.09-1.4-2.26-1.4-2.17,0Z" transform="translate(117.93 8.31)"/><path class="cls-5" d="M-82.88,261a1.55,1.55,0,0,0,0-3.1,1.55,1.55,0,0,0,0,3.1Z" transform="translate(117.93 8.31)"/><path class="cls-5" d="M-37.21,239.55a.78.78,0,0,0,0-1.55.78.78,0,0,0,0,1.55Z" transform="translate(117.93 8.31)"/><path class="cls-5" d="M490.88,181.28a.81.81,0,0,0,0-1.62.81.81,0,0,0,0,1.62Z" transform="translate(117.93 8.31)"/><path class="cls-5" d="M111.19,164.05a.82.82,0,0,0,0-1.63.82.82,0,0,0,0,1.63Z" transform="translate(117.93 8.31)"/><path class="cls-5" d="M-94.07,434.43a1,1,0,0,0,0-2.06,1,1,0,0,0,0,2.06Z" transform="translate(117.93 8.31)"/><path class="cls-5" d="M-42.07,468.21a.81.81,0,0,0,0-1.62.81.81,0,0,0,0,1.62Z" transform="translate(117.93 8.31)"/><path class="cls-5" d="M386.52,158.46c2.67,0,2.67-4.14,0-4.14s-2.67,4.14,0,4.14Z" transform="translate(117.93 8.31)"/></g></g></svg>