<?xml version="1.0" encoding="UTF-8" standalone="no"?>
<svg
   xmlns:dc="http://purl.org/dc/elements/1.1/"
   xmlns:cc="http://creativecommons.org/ns#"
   xmlns:rdf="http://www.w3.org/1999/02/22-rdf-syntax-ns#"
   xmlns:svg="http://www.w3.org/2000/svg"
   xmlns="http://www.w3.org/2000/svg"
   xmlns:sodipodi="http://sodipodi.sourceforge.net/DTD/sodipodi-0.dtd"
   xmlns:inkscape="http://www.inkscape.org/namespaces/inkscape"
   viewBox="0 0 402.52408 500"
   version="1.1"
   id="svg1271"
   sodipodi:docname="loginModalPlain.svg"
   width="402.52408"
   height="500"
   inkscape:version="0.92.4 (5da689c313, 2019-01-14)">
  <metadata
     id="metadata1275">
    <rdf:RDF>
      <cc:Work
         rdf:about="">
        <dc:format>image/svg+xml</dc:format>
        <dc:type
           rdf:resource="http://purl.org/dc/dcmitype/StillImage" />
        <dc:title>loginModalPlain</dc:title>
      </cc:Work>
    </rdf:RDF>
  </metadata>
  <sodipodi:namedview
     pagecolor="#ffffff"
     bordercolor="#666666"
     borderopacity="1"
     objecttolerance="10"
     gridtolerance="10"
     guidetolerance="10"
     inkscape:pageopacity="0"
     inkscape:pageshadow="2"
     inkscape:window-width="1920"
     inkscape:window-height="1017"
     id="namedview1273"
     showgrid="false"
     inkscape:zoom="1.6722079"
     inkscape:cx="244.445"
     inkscape:cy="301.99594"
     inkscape:window-x="-8"
     inkscape:window-y="-8"
     inkscape:window-maximized="1"
     inkscape:current-layer="_500x500" />
  <defs
     id="defs1056">
    <style
       id="style1046">.cls-1{fill:none;}.cls-2{fill:url(#linear-gradient);}.cls-3{clip-path:url(#clip-path);}.cls-4{opacity:0.3;}.cls-5{fill:#fff;}</style>
    <linearGradient
       id="linear-gradient"
       x1="367.92999"
       y1="371.5"
       x2="367.92999"
       y2="11.41"
       gradientUnits="userSpaceOnUse"
       gradientTransform="matrix(0.80504817,0,0,1,22.99067,0)">
      <stop
         offset="0"
         stop-color="#445763"
         id="stop1048" />
      <stop
         offset="1"
         stop-color="#0d0e1f"
         id="stop1050" />
    </linearGradient>
    <clipPath
       id="clip-path"
       transform="translate(117.93 8.31)">
      <rect
         class="cls-1"
         y="0.19"
         width="500"
         height="500"
         id="rect1053"
         x="0"
         style="fill:none" />
    </clipPath>
  </defs>
  <title
     id="title1058">loginModalPlain</title>
  <g
     id="_500x500"
     data-name="500x500"
     transform="translate(-117.93,-8.3100004)">
    <rect
       class="cls-2"
       x="117.93"
       y="8.3100004"
       width="402.52408"
       height="500"
       id="rect1060"
       style="fill:url(#linear-gradient);stroke-width:0.89724475" />
    <g
       class="cls-3"
       clip-path="url(#clip-path)"
       id="g1268">
      <path
         class="cls-5"
         d="m -57.64,120.68 4.7,-0.57 -4.7,-0.58 a 1.46,1.46 0 0 0 -0.73,-0.72 l -0.57,-4.7 -0.58,4.7 a 1.41,1.41 0 0 0 -0.72,0.72 l -4.7,0.58 4.7,0.57 a 1.41,1.41 0 0 0 0.72,0.72 l 0.58,4.71 0.57,-4.71 a 1.46,1.46 0 0 0 0.73,-0.72 z"
         transform="translate(117.93,8.31)"
         id="path1072"
         inkscape:connector-curvature="0"
         style="fill:#ffffff" />
      <path
         class="cls-5"
         d="m 591.27,203.41 5.09,-0.62 -5.09,-0.62 a 1.58,1.58 0 0 0 -0.78,-0.79 l -0.63,-5.09 -0.62,5.09 a 1.54,1.54 0 0 0 -0.78,0.79 l -5.1,0.62 5.1,0.62 a 1.49,1.49 0 0 0 0.78,0.78 l 0.62,5.1 0.63,-5.1 a 1.52,1.52 0 0 0 0.78,-0.78 z"
         transform="translate(117.93,8.31)"
         id="path1074"
         inkscape:connector-curvature="0"
         style="fill:#ffffff" />
      <path
         class="cls-5"
         d="m 450.37,92.84 5.49,-0.67 -5.49,-0.68 a 1.72,1.72 0 0 0 -0.84,-0.84 l -0.67,-5.48 -0.67,5.48 a 1.7,1.7 0 0 0 -0.85,0.84 l -5.48,0.68 5.48,0.67 a 1.7,1.7 0 0 0 0.85,0.84 l 0.67,5.49 0.67,-5.49 a 1.72,1.72 0 0 0 0.84,-0.84 z"
         transform="translate(117.93,8.31)"
         id="path1076"
         inkscape:connector-curvature="0"
         style="fill:#ffffff" />
      <path
         class="cls-5"
         d="m 269.91,263.25 3.14,-0.38 -3.14,-0.38 a 0.87,0.87 0 0 0 -0.48,-0.48 l -0.38,-3.14 -0.39,3.14 a 0.94,0.94 0 0 0 -0.48,0.48 l -3.13,0.38 3.13,0.38 a 1,1 0 0 0 0.48,0.49 l 0.39,3.13 0.38,-3.13 a 0.92,0.92 0 0 0 0.48,-0.49 z"
         transform="translate(117.93,8.31)"
         id="path1078"
         inkscape:connector-curvature="0"
         style="fill:#ffffff" />
      <path
         class="cls-5"
         d="m 362.45,129.76 4.31,-0.53 -4.31,-0.53 a 1.29,1.29 0 0 0 -0.66,-0.66 l -0.53,-4.31 -0.52,4.31 a 1.29,1.29 0 0 0 -0.66,0.66 l -4.32,0.53 4.32,0.53 a 1.29,1.29 0 0 0 0.66,0.66 l 0.52,4.31 0.53,-4.31 a 1.29,1.29 0 0 0 0.66,-0.66 z"
         transform="translate(117.93,8.31)"
         id="path1080"
         inkscape:connector-curvature="0"
         style="fill:#ffffff" />
      <path
         class="cls-5"
         d="m 78.71,149.4 3.53,-0.43 -3.53,-0.43 A 1.09,1.09 0 0 0 78.17,148 L 77.74,144.47 77.3,148 a 1.09,1.09 0 0 0 -0.54,0.54 l -3.52,0.43 3.52,0.43 a 1.05,1.05 0 0 0 0.54,0.54 l 0.44,3.53 0.43,-3.53 a 1.05,1.05 0 0 0 0.54,-0.54 z"
         transform="translate(117.93,8.31)"
         id="path1082"
         inkscape:connector-curvature="0"
         style="fill:#ffffff" />
      <path
         class="cls-5"
         d="m 360.42,43.71 5.37,-0.65 -5.37,-0.66 a 1.6,1.6 0 0 0 -0.82,-0.82 l -0.66,-5.36 -0.65,5.36 a 1.6,1.6 0 0 0 -0.82,0.82 l -5.37,0.66 5.37,0.65 a 1.62,1.62 0 0 0 0.82,0.83 l 0.65,5.36 0.66,-5.36 a 1.62,1.62 0 0 0 0.82,-0.83 z"
         transform="translate(117.93,8.31)"
         id="path1084"
         inkscape:connector-curvature="0"
         style="fill:#ffffff" />
      <path
         class="cls-5"
         d="m 516.65,134.05 4.71,-0.58 -4.71,-0.57 a 1.41,1.41 0 0 0 -0.72,-0.72 l -0.57,-4.71 -0.58,4.71 a 1.41,1.41 0 0 0 -0.72,0.72 l -4.7,0.57 4.7,0.58 a 1.41,1.41 0 0 0 0.72,0.72 l 0.58,4.7 0.57,-4.7 a 1.41,1.41 0 0 0 0.72,-0.72 z"
         transform="translate(117.93,8.31)"
         id="path1086"
         inkscape:connector-curvature="0"
         style="fill:#ffffff" />
      <path
         class="cls-5"
         d="m 233,130.68 4.7,-0.57 -4.7,-0.58 a 1.41,1.41 0 0 0 -0.72,-0.72 l -0.58,-4.7 -0.57,4.7 a 1.41,1.41 0 0 0 -0.72,0.72 l -4.71,0.58 4.71,0.57 a 1.41,1.41 0 0 0 0.72,0.72 l 0.57,4.71 0.58,-4.71 a 1.41,1.41 0 0 0 0.72,-0.72 z"
         transform="translate(117.93,8.31)"
         id="path1088"
         inkscape:connector-curvature="0"
         style="fill:#ffffff" />
      <path
         class="cls-5"
         d="m 219.36,40.47 3.52,-0.43 -3.52,-0.43 a 1.11,1.11 0 0 0 -0.54,-0.55 l -0.43,-3.52 -0.39,3.52 a 1.11,1.11 0 0 0 -0.54,0.55 l -3.53,0.43 3.53,0.43 A 1.09,1.09 0 0 0 218,41 l 0.44,3.53 0.43,-3.53 a 1.09,1.09 0 0 0 0.49,-0.53 z"
         transform="translate(117.93,8.31)"
         id="path1090"
         inkscape:connector-curvature="0"
         style="fill:#ffffff" />
      <path
         class="cls-5"
         d="m -57.54,23.16 5.1,-0.63 -5.1,-0.62 a 1.49,1.49 0 0 0 -0.78,-0.78 l -0.62,-5.1 -0.63,5.1 a 1.56,1.56 0 0 0 -0.78,0.78 l -5.09,0.62 5.09,0.63 a 1.64,1.64 0 0 0 0.78,0.78 l 0.63,5.09 0.62,-5.09 a 1.56,1.56 0 0 0 0.78,-0.78 z"
         transform="translate(117.93,8.31)"
         id="path1092"
         inkscape:connector-curvature="0"
         style="fill:#ffffff" />
      <path
         class="cls-5"
         d="m 58.54,66.2 3.52,-0.43 -3.52,-0.43 A 1.11,1.11 0 0 0 58,64.8 l -0.43,-3.53 -0.43,3.53 a 1.09,1.09 0 0 0 -0.54,0.54 l -3.53,0.43 3.53,0.43 a 1.07,1.07 0 0 0 0.54,0.55 l 0.43,3.52 0.43,-3.52 a 1.09,1.09 0 0 0 0.54,-0.55 z"
         transform="translate(117.93,8.31)"
         id="path1094"
         inkscape:connector-curvature="0"
         style="fill:#ffffff" />
      <path
         class="cls-5"
         d="M 490.4,39.31 495.89,38.64 490.4,38 a 1.64,1.64 0 0 0 -0.84,-0.84 l -0.67,-5.49 -0.67,5.49 A 1.64,1.64 0 0 0 487.38,38 l -5.49,0.67 5.49,0.67 a 1.57,1.57 0 0 0 0.84,0.84 l 0.67,5.49 0.67,-5.49 a 1.57,1.57 0 0 0 0.84,-0.87 z"
         transform="translate(117.93,8.31)"
         id="path1096"
         inkscape:connector-curvature="0"
         style="fill:#ffffff" />
      <path
         class="cls-5"
         d="m 167.48,1 6.67,-0.82 -6.67,-0.82 a 2,2 0 0 0 -1,-1 l -0.81,-6.66 -0.82,6.66 a 2,2 0 0 0 -1,1 l -6.66,0.81 6.66,0.82 a 2,2 0 0 0 1,1 l 0.82,6.66 0.79,-6.65 a 2,2 0 0 0 1.02,-1 z"
         transform="translate(117.93,8.31)"
         id="path1098"
         inkscape:connector-curvature="0"
         style="fill:#ffffff" />
      <path
         class="cls-5"
         d="m 167.85,123.94 a 1.55,1.55 0 0 0 0,-3.1 1.55,1.55 0 0 0 0,3.1 z"
         transform="translate(117.93,8.31)"
         id="path1100"
         inkscape:connector-curvature="0"
         style="fill:#ffffff" />
      <path
         class="cls-5"
         d="m 35.85,259.48 a 1.76,1.76 0 0 0 0,-3.52 1.76,1.76 0 0 0 0,3.52 z"
         transform="translate(117.93,8.31)"
         id="path1102"
         inkscape:connector-curvature="0"
         style="fill:#ffffff" />
      <path
         class="cls-5"
         d="m 562.1,83.8 a 1.76,1.76 0 0 0 0,-3.51 1.76,1.76 0 0 0 0,3.51 z"
         transform="translate(117.93,8.31)"
         id="path1104"
         inkscape:connector-curvature="0"
         style="fill:#ffffff" />
      <path
         class="cls-5"
         d="m 231.69,283.57 a 1.035,1.035 0 0 0 0,-2.07 1.035,1.035 0 0 0 0,2.07 z"
         transform="translate(117.93,8.31)"
         id="path1106"
         inkscape:connector-curvature="0"
         style="fill:#ffffff" />
      <path
         class="cls-5"
         d="m 62.93,200.75 a 1.61,1.61 0 0 0 0,-3.21 1.61,1.61 0 0 0 0,3.21 z"
         transform="translate(117.93,8.31)"
         id="path1108"
         inkscape:connector-curvature="0"
         style="fill:#ffffff" />
      <path
         class="cls-5"
         d="m -43.3,242 a 0.57,0.57 0 0 1 -0.18,0 l 0.84,0.64 v 0 1.36 a 1.54,1.54 0 0 0 0.2,-0.73 1.43,1.43 0 0 0 -1.42,-1.42 1.42,1.42 0 0 0 -1.42,1.42 v 0 a 1.48,1.48 0 0 0 0.41,1 1.42,1.42 0 0 0 1.38,0.37 v 0 l -0.38,0.05 h 0.2 a 1.43,1.43 0 0 0 0.7,-0.18 1.43,1.43 0 0 0 0.63,-0.83 1.41,1.41 0 0 0 -0.14,-1.06 1.33,1.33 0 0 0 -0.82,-0.63 z"
         transform="translate(117.93,8.31)"
         id="path1110"
         inkscape:connector-curvature="0"
         style="fill:#ffffff" />
      <path
         class="cls-5"
         d="m 317.6,330.14 a 1.5,1.5 0 0 0 0,-3 1.5,1.5 0 0 0 0,3 z"
         transform="translate(117.93,8.31)"
         id="path1112"
         inkscape:connector-curvature="0"
         style="fill:#ffffff" />
      <path
         class="cls-5"
         d="m 219.38,159.92 a 1.03,1.03 0 0 0 0,-2.06 1.03,1.03 0 0 0 0,2.06 z"
         transform="translate(117.93,8.31)"
         id="path1114"
         inkscape:connector-curvature="0"
         style="fill:#ffffff" />
      <path
         class="cls-5"
         d="m 452.52,314.41 a 1.7,1.7 0 0 0 -1.65,0.69 1.2,1.2 0 0 0 0,1.24 1.7,1.7 0 0 0 1.65,0.69 1.31,1.31 0 0 0 0,-2.62 z"
         transform="translate(117.93,8.31)"
         id="path1116"
         inkscape:connector-curvature="0"
         style="fill:#ffffff" />
      <path
         class="cls-5"
         d="m 462.52,478.45 c 2.66,0 2.66,-4.13 0,-4.13 -2.66,0 -2.66,4.13 0,4.13 z"
         transform="translate(117.93,8.31)"
         id="path1118"
         inkscape:connector-curvature="0"
         style="fill:#ffffff" />
      <path
         class="cls-5"
         d="m 288.47,237.2 c 2.61,0 2.61,-4 0,-4 -2.61,0 -2.61,4 0,4 z"
         transform="translate(117.93,8.31)"
         id="path1120"
         inkscape:connector-curvature="0"
         style="fill:#ffffff" />
      <path
         class="cls-5"
         d="m 294.82,17 c 2.61,0 2.61,-4 0,-4 -2.61,0 -2.61,4 0,4 z"
         transform="translate(117.93,8.31)"
         id="path1122"
         inkscape:connector-curvature="0"
         style="fill:#ffffff" />
      <path
         class="cls-5"
         d="m 427.26,42.87 c 2.61,0 2.61,-4 0,-4 -2.61,0 -2.6,4 0,4 z"
         transform="translate(117.93,8.31)"
         id="path1124"
         inkscape:connector-curvature="0"
         style="fill:#ffffff" />
      <path
         class="cls-5"
         d="m 89.85,36.87 c 2.61,0 2.61,-4 0,-4 -2.61,0 -2.6,4 0,4 z"
         transform="translate(117.93,8.31)"
         id="path1126"
         inkscape:connector-curvature="0"
         style="fill:#ffffff" />
      <path
         class="cls-5"
         d="m -117.15,340.53 a 0.52,0.52 0 0 0 0,-1 0.52,0.52 0 0 0 0,1 z"
         transform="translate(117.93,8.31)"
         id="path1128"
         inkscape:connector-curvature="0"
         style="fill:#ffffff" />
      <path
         class="cls-5"
         d="m 324.77,251.25 a 1.25,1.25 0 0 0 0,-2.5 1.25,1.25 0 0 0 0,2.5 z"
         transform="translate(117.93,8.31)"
         id="path1130"
         inkscape:connector-curvature="0"
         style="fill:#ffffff" />
      <path
         class="cls-5"
         d="m 568.68,264.12 a 1.25,1.25 0 0 0 0,-2.5 1.25,1.25 0 0 0 0,2.5 z"
         transform="translate(117.93,8.31)"
         id="path1132"
         inkscape:connector-curvature="0"
         style="fill:#ffffff" />
      <path
         class="cls-5"
         d="m 534.69,52.3 a 1.25,1.25 0 0 0 0,-2.5 1.25,1.25 0 0 0 0,2.5 z"
         transform="translate(117.93,8.31)"
         id="path1134"
         inkscape:connector-curvature="0"
         style="fill:#ffffff" />
      <path
         class="cls-5"
         d="m 330.13,344 a 1.25,1.25 0 0 0 0,-2.5 1.25,1.25 0 0 0 0,2.5 z"
         transform="translate(117.93,8.31)"
         id="path1136"
         inkscape:connector-curvature="0"
         style="fill:#ffffff" />
      <path
         class="cls-5"
         d="m 443.44,273.65 a 1.25,1.25 0 0 0 0,-2.5 1.25,1.25 0 0 0 0,2.5 z"
         transform="translate(117.93,8.31)"
         id="path1138"
         inkscape:connector-curvature="0"
         style="fill:#ffffff" />
      <path
         class="cls-5"
         d="m 378.59,228 a 1.25,1.25 0 0 0 0,-2.5 1.25,1.25 0 0 0 0,2.5 z"
         transform="translate(117.93,8.31)"
         id="path1140"
         inkscape:connector-curvature="0"
         style="fill:#ffffff" />
      <path
         class="cls-5"
         d="m 123.18,87.42 a 1.035,1.035 0 0 0 0,-2.07 1.035,1.035 0 0 0 0,2.07 z"
         transform="translate(117.93,8.31)"
         id="path1142"
         inkscape:connector-curvature="0"
         style="fill:#ffffff" />
      <path
         class="cls-5"
         d="m 18.17,106.45 0.35,-0.24 a 1.36,1.36 0 0 0 0,-2.31 l -0.35,-0.24 c -3,-2.06 -3,4.85 0,2.79 z"
         transform="translate(117.93,8.31)"
         id="path1144"
         inkscape:connector-curvature="0"
         style="fill:#ffffff" />
      <path
         class="cls-5"
         d="M 155.65,62.87 156,62.63 a 1.36,1.36 0 0 0 0,-2.31 l -0.35,-0.24 c -3,-2.06 -3,4.85 0,2.79 z"
         transform="translate(117.93,8.31)"
         id="path1146"
         inkscape:connector-curvature="0"
         style="fill:#ffffff" />
      <path
         class="cls-5"
         d="m 23.19,311.85 a 1.035,1.035 0 0 0 0,-2.07 1.035,1.035 0 0 0 0,2.07 z"
         transform="translate(117.93,8.31)"
         id="path1148"
         inkscape:connector-curvature="0"
         style="fill:#ffffff" />
      <path
         class="cls-5"
         d="m 195.67,339 a 1.035,1.035 0 0 0 0,-2.07 1.035,1.035 0 0 0 0,2.07 z"
         transform="translate(117.93,8.31)"
         id="path1150"
         inkscape:connector-curvature="0"
         style="fill:#ffffff" />
      <path
         class="cls-5"
         d="m 6.49,224.35 a 1.55,1.55 0 0 0 0,-3.1 1.55,1.55 0 0 0 0,3.1 z"
         transform="translate(117.93,8.31)"
         id="path1152"
         inkscape:connector-curvature="0"
         style="fill:#ffffff" />
      <path
         class="cls-5"
         d="m 379.8,68 c 2.85,0 2.85,-4.42 0,-4.42 -2.85,0 -2.8,4.42 0,4.42 z"
         transform="translate(117.93,8.31)"
         id="path1154"
         inkscape:connector-curvature="0"
         style="fill:#ffffff" />
      <path
         class="cls-5"
         d="m 303.42,123.33 a 1,1 0 0 0 0,-1.89 0.95,0.95 0 0 0 0,1.89 z"
         transform="translate(117.93,8.31)"
         id="path1156"
         inkscape:connector-curvature="0"
         style="fill:#ffffff" />
      <path
         class="cls-5"
         d="m 116.52,212.17 v 0.19 a 1.09,1.09 0 0 0 1.08,1.07 1.08,1.08 0 0 0 1.07,-1.07 c 0,-0.25 0,-0.49 -0.05,-0.73 a 1,1 0 0 0 -0.75,-1 1.28,1.28 0 0 0 -0.55,0 1,1 0 0 0 -0.75,1 c 0,0.24 0,0.48 0,0.73 a 1.08,1.08 0 0 0 2.15,0 v -0.19 c 0.09,-1.4 -2.26,-1.4 -2.17,0 z"
         transform="translate(117.93,8.31)"
         id="path1158"
         inkscape:connector-curvature="0"
         style="fill:#ffffff" />
      <path
         class="cls-5"
         d="m 354.42,169.87 a 0.82,0.82 0 0 0 0,-1.63 0.82,0.82 0 0 0 0,1.63 z"
         transform="translate(117.93,8.31)"
         id="path1160"
         inkscape:connector-curvature="0"
         style="fill:#ffffff" />
      <path
         class="cls-5"
         d="m 365.45,266.39 a 0.82,0.82 0 0 0 0,-1.63 0.82,0.82 0 0 0 0,1.63 z"
         transform="translate(117.93,8.31)"
         id="path1162"
         inkscape:connector-curvature="0"
         style="fill:#ffffff" />
      <path
         class="cls-5"
         d="m 41.86,282.53 a 0.81,0.81 0 0 0 0,-1.62 0.81,0.81 0 0 0 0,1.62 z"
         transform="translate(117.93,8.31)"
         id="path1164"
         inkscape:connector-curvature="0"
         style="fill:#ffffff" />
      <path
         class="cls-5"
         d="m 38,130 a 0.81,0.81 0 0 0 0,-1.62 0.81,0.81 0 0 0 0,1.62 z"
         transform="translate(117.93,8.31)"
         id="path1166"
         inkscape:connector-curvature="0"
         style="fill:#ffffff" />
      <path
         class="cls-5"
         d="m -117.15,41.66 a 0.81,0.81 0 0 0 0,-1.62 0.81,0.81 0 0 0 0,1.62 z"
         transform="translate(117.93,8.31)"
         id="path1168"
         inkscape:connector-curvature="0"
         style="fill:#ffffff" />
      <path
         class="cls-5"
         d="m 57.56,26.53 a 0.81,0.81 0 0 0 0,-1.62 0.81,0.81 0 0 0 0,1.62 z"
         transform="translate(117.93,8.31)"
         id="path1170"
         inkscape:connector-curvature="0"
         style="fill:#ffffff" />
      <path
         class="cls-5"
         d="m 182.92,26.53 a 0.81,0.81 0 0 0 0,-1.62 0.81,0.81 0 0 0 0,1.62 z"
         transform="translate(117.93,8.31)"
         id="path1172"
         inkscape:connector-curvature="0"
         style="fill:#ffffff" />
      <path
         class="cls-5"
         d="m 145.24,186.69 a 1.55,1.55 0 0 0 0,-3.1 1.55,1.55 0 0 0 0,3.1 z"
         transform="translate(117.93,8.31)"
         id="path1174"
         inkscape:connector-curvature="0"
         style="fill:#ffffff" />
      <path
         class="cls-5"
         d="m 78,206.29 a 0.82,0.82 0 0 0 0,-1.63 0.82,0.82 0 0 0 0,1.63 z"
         transform="translate(117.93,8.31)"
         id="path1176"
         inkscape:connector-curvature="0"
         style="fill:#ffffff" />
      <path
         class="cls-5"
         d="m 171,273.64 a 1.03,1.03 0 0 0 0,-2.06 1.03,1.03 0 0 0 0,2.06 z"
         transform="translate(117.93,8.31)"
         id="path1178"
         inkscape:connector-curvature="0"
         style="fill:#ffffff" />
      <path
         class="cls-5"
         d="m 97.19,263.68 a 0.81,0.81 0 0 0 0,-1.62 0.81,0.81 0 0 0 0,1.62 z"
         transform="translate(117.93,8.31)"
         id="path1180"
         inkscape:connector-curvature="0"
         style="fill:#ffffff" />
      <path
         class="cls-5"
         d="m 36.94,142 a 0.81,0.81 0 0 0 0,-1.62 0.81,0.81 0 0 0 0,1.62 z"
         transform="translate(117.93,8.31)"
         id="path1182"
         inkscape:connector-curvature="0"
         style="fill:#ffffff" />
      <path
         class="cls-5"
         d="m -75.48,407.87 a 0.82,0.82 0 0 0 0,-1.63 0.82,0.82 0 0 0 0,1.63 z"
         transform="translate(117.93,8.31)"
         id="path1184"
         inkscape:connector-curvature="0"
         style="fill:#ffffff" />
      <path
         class="cls-5"
         d="m 151,135.1 a 0.82,0.82 0 0 0 0,-1.63 0.82,0.82 0 0 0 0,1.63 z"
         transform="translate(117.93,8.31)"
         id="path1186"
         inkscape:connector-curvature="0"
         style="fill:#ffffff" />
      <path
         class="cls-5"
         d="m -117.15,487.28 a 0.81,0.81 0 0 0 0,-1.62 0.81,0.81 0 0 0 0,1.62 z"
         transform="translate(117.93,8.31)"
         id="path1188"
         inkscape:connector-curvature="0"
         style="fill:#ffffff" />
      <path
         class="cls-5"
         d="m 471.19,336.48 a 0.82,0.82 0 0 0 0,-1.63 0.82,0.82 0 0 0 0,1.63 z"
         transform="translate(117.93,8.31)"
         id="path1190"
         inkscape:connector-curvature="0"
         style="fill:#ffffff" />
      <path
         class="cls-5"
         d="m 531.19,294.53 a 0.81,0.81 0 0 0 0,-1.62 0.81,0.81 0 0 0 0,1.62 z"
         transform="translate(117.93,8.31)"
         id="path1192"
         inkscape:connector-curvature="0"
         style="fill:#ffffff" />
      <path
         class="cls-5"
         d="m 579.28,438.56 a 0.82,0.82 0 0 0 0,-1.63 0.82,0.82 0 0 0 0,1.63 z"
         transform="translate(117.93,8.31)"
         id="path1194"
         inkscape:connector-curvature="0"
         style="fill:#ffffff" />
      <path
         class="cls-5"
         d="m 427.26,442.24 a 0.81,0.81 0 0 0 0,-1.62 0.81,0.81 0 0 0 0,1.62 z"
         transform="translate(117.93,8.31)"
         id="path1196"
         inkscape:connector-curvature="0"
         style="fill:#ffffff" />
      <path
         class="cls-5"
         d="m 444.22,364.53 a 0.81,0.81 0 0 0 0,-1.62 0.81,0.81 0 0 0 0,1.62 z"
         transform="translate(117.93,8.31)"
         id="path1198"
         inkscape:connector-curvature="0"
         style="fill:#ffffff" />
      <path
         class="cls-5"
         d="m 568.6,160.33 a 0.81,0.81 0 0 0 0,-1.62 0.81,0.81 0 0 0 0,1.62 z"
         transform="translate(117.93,8.31)"
         id="path1200"
         inkscape:connector-curvature="0"
         style="fill:#ffffff" />
      <path
         class="cls-5"
         d="m 278.45,62.19 a 0.81,0.81 0 0 0 0,-1.62 0.81,0.81 0 0 0 0,1.62 z"
         transform="translate(117.93,8.31)"
         id="path1202"
         inkscape:connector-curvature="0"
         style="fill:#ffffff" />
      <path
         class="cls-5"
         d="m 452.52,195.42 a 1.035,1.035 0 0 0 0,-2.07 1.035,1.035 0 0 0 0,2.07 z"
         transform="translate(117.93,8.31)"
         id="path1204"
         inkscape:connector-curvature="0"
         style="fill:#ffffff" />
      <path
         class="cls-5"
         d="m 503.19,73.62 a 0.82,0.82 0 0 0 0,-1.63 0.82,0.82 0 0 0 0,1.63 z"
         transform="translate(117.93,8.31)"
         id="path1206"
         inkscape:connector-curvature="0"
         style="fill:#ffffff" />
      <path
         class="cls-5"
         d="m -52.09,178.13 a 0.81,0.81 0 0 0 0,-1.62 0.81,0.81 0 0 0 0,1.62 z"
         transform="translate(117.93,8.31)"
         id="path1208"
         inkscape:connector-curvature="0"
         style="fill:#ffffff" />
      <path
         class="cls-5"
         d="m -94.07,311.63 a 0.82,0.82 0 0 0 0,-1.63 0.82,0.82 0 0 0 0,1.63 z"
         transform="translate(117.93,8.31)"
         id="path1210"
         inkscape:connector-curvature="0"
         style="fill:#ffffff" />
      <path
         class="cls-5"
         d="m 471.19,26.53 a 0.81,0.81 0 0 0 0,-1.62 0.81,0.81 0 0 0 0,1.62 z"
         transform="translate(117.93,8.31)"
         id="path1212"
         inkscape:connector-curvature="0"
         style="fill:#ffffff" />
      <path
         class="cls-5"
         d="m 305.39,79.45 a 0.82,0.82 0 0 0 0,-1.63 0.82,0.82 0 0 0 0,1.63 z"
         transform="translate(117.93,8.31)"
         id="path1214"
         inkscape:connector-curvature="0"
         style="fill:#ffffff" />
      <path
         class="cls-5"
         d="m 1.86,350.13 a 0.81,0.81 0 0 0 0,-1.62 0.81,0.81 0 0 0 0,1.62 z"
         transform="translate(117.93,8.31)"
         id="path1216"
         inkscape:connector-curvature="0"
         style="fill:#ffffff" />
      <path
         class="cls-5"
         d="m 397,26.53 a 0.81,0.81 0 0 0 0,-1.62 0.81,0.81 0 0 0 0,1.62 z"
         transform="translate(117.93,8.31)"
         id="path1218"
         inkscape:connector-curvature="0"
         style="fill:#ffffff" />
      <path
         class="cls-5"
         d="m 257.21,106.53 a 0.82,0.82 0 0 0 0,-1.63 0.82,0.82 0 0 0 0,1.63 z"
         transform="translate(117.93,8.31)"
         id="path1220"
         inkscape:connector-curvature="0"
         style="fill:#ffffff" />
      <path
         class="cls-5"
         d="m 407.25,109.16 a 0.82,0.82 0 0 0 0,-1.63 0.82,0.82 0 0 0 0,1.63 z"
         transform="translate(117.93,8.31)"
         id="path1222"
         inkscape:connector-curvature="0"
         style="fill:#ffffff" />
      <path
         class="cls-5"
         d="m 75.83,96.1 a 0.81,0.81 0 0 0 0,-1.62 0.81,0.81 0 0 0 0,1.62 z"
         transform="translate(117.93,8.31)"
         id="path1224"
         inkscape:connector-curvature="0"
         style="fill:#ffffff" />
      <path
         class="cls-5"
         d="m 323.85,109.16 a 0.82,0.82 0 0 0 0,-1.63 0.82,0.82 0 0 0 0,1.63 z"
         transform="translate(117.93,8.31)"
         id="path1226"
         inkscape:connector-curvature="0"
         style="fill:#ffffff" />
      <path
         class="cls-5"
         d="m 199.2,243.43 a 0.81,0.81 0 0 0 0,-1.62 0.81,0.81 0 0 0 0,1.62 z"
         transform="translate(117.93,8.31)"
         id="path1228"
         inkscape:connector-curvature="0"
         style="fill:#ffffff" />
      <path
         class="cls-5"
         d="m 158.85,41.66 a 0.81,0.81 0 0 0 0,-1.62 0.81,0.81 0 0 0 0,1.62 z"
         transform="translate(117.93,8.31)"
         id="path1230"
         inkscape:connector-curvature="0"
         style="fill:#ffffff" />
      <path
         class="cls-5"
         d="m -110.15,212.63 a 0.81,0.81 0 0 0 0,-1.62 0.81,0.81 0 0 0 0,1.62 z"
         transform="translate(117.93,8.31)"
         id="path1232"
         inkscape:connector-curvature="0"
         style="fill:#ffffff" />
      <path
         class="cls-5"
         d="m -38.15,328.23 a 0.81,0.81 0 0 0 0,-1.62 0.81,0.81 0 0 0 0,1.62 z"
         transform="translate(117.93,8.31)"
         id="path1234"
         inkscape:connector-curvature="0"
         style="fill:#ffffff" />
      <path
         class="cls-5"
         d="m 343.08,79.33 a 0.82,0.82 0 0 0 0,-1.63 0.82,0.82 0 0 0 0,1.63 z"
         transform="translate(117.93,8.31)"
         id="path1236"
         inkscape:connector-curvature="0"
         style="fill:#ffffff" />
      <path
         class="cls-5"
         d="m 88.75,166.25 a 0.82,0.82 0 0 0 0,-1.63 0.82,0.82 0 0 0 0,1.63 z"
         transform="translate(117.93,8.31)"
         id="path1238"
         inkscape:connector-curvature="0"
         style="fill:#ffffff" />
      <path
         class="cls-5"
         d="m 9.33,164 a 0.82,0.82 0 0 0 0,-1.63 0.82,0.82 0 0 0 0,1.63 z"
         transform="translate(117.93,8.31)"
         id="path1240"
         inkscape:connector-curvature="0"
         style="fill:#ffffff" />
      <path
         class="cls-5"
         d="m 480.47,247.23 a 1.55,1.55 0 0 0 0,-3.1 1.55,1.55 0 0 0 0,3.1 z"
         transform="translate(117.93,8.31)"
         id="path1242"
         inkscape:connector-curvature="0"
         style="fill:#ffffff" />
      <path
         class="cls-5"
         d="m 594.52,27.79 c 2.67,0 2.67,-4.14 0,-4.14 -2.67,0 -2.67,4.14 0,4.14 z"
         transform="translate(117.93,8.31)"
         id="path1244"
         inkscape:connector-curvature="0"
         style="fill:#ffffff" />
      <path
         class="cls-5"
         d="m 240.86,77 a 1.035,1.035 0 0 0 0,-2.07 1.035,1.035 0 0 0 0,2.07 z"
         transform="translate(117.93,8.31)"
         id="path1246"
         inkscape:connector-curvature="0"
         style="fill:#ffffff" />
      <path
         class="cls-5"
         d="m 266,35.66 a 0.83,0.83 0 0 0 0,-1.66 0.81,0.81 0 0 0 0,1.62 z"
         transform="translate(117.93,8.31)"
         id="path1248"
         inkscape:connector-curvature="0"
         style="fill:#ffffff" />
      <path
         class="cls-5"
         d="m -94.07,100.81 c 2.61,0 2.61,-4 0,-4 -2.61,0 -2.61,4 0,4 z"
         transform="translate(117.93,8.31)"
         id="path1250"
         inkscape:connector-curvature="0"
         style="fill:#ffffff" />
      <path
         class="cls-5"
         d="m -34.07,41.09 v 0.19 a 1.09,1.09 0 0 0 1.07,1.07 1.09,1.09 0 0 0 1.08,-1.07 c 0,-0.25 0,-0.49 -0.05,-0.73 a 1,1 0 0 0 -0.75,-1 1.28,1.28 0 0 0 -0.55,0 1,1 0 0 0 -0.75,1 c 0,0.24 0,0.48 -0.05,0.73 a 1.08,1.08 0 0 0 1.07,1.07 1.09,1.09 0 0 0 1.08,-1.07 v -0.19 c 0.09,-1.4 -2.26,-1.4 -2.17,0 z"
         transform="translate(117.93,8.31)"
         id="path1252"
         inkscape:connector-curvature="0"
         style="fill:#ffffff" />
      <path
         class="cls-5"
         d="m -82.88,261 a 1.55,1.55 0 0 0 0,-3.1 1.55,1.55 0 0 0 0,3.1 z"
         transform="translate(117.93,8.31)"
         id="path1254"
         inkscape:connector-curvature="0"
         style="fill:#ffffff" />
      <path
         class="cls-5"
         d="m -37.21,239.55 a 0.78,0.78 0 0 0 0,-1.55 0.78,0.78 0 0 0 0,1.55 z"
         transform="translate(117.93,8.31)"
         id="path1256"
         inkscape:connector-curvature="0"
         style="fill:#ffffff" />
      <path
         class="cls-5"
         d="m 490.88,181.28 a 0.81,0.81 0 0 0 0,-1.62 0.81,0.81 0 0 0 0,1.62 z"
         transform="translate(117.93,8.31)"
         id="path1258"
         inkscape:connector-curvature="0"
         style="fill:#ffffff" />
      <path
         class="cls-5"
         d="m 111.19,164.05 a 0.82,0.82 0 0 0 0,-1.63 0.82,0.82 0 0 0 0,1.63 z"
         transform="translate(117.93,8.31)"
         id="path1260"
         inkscape:connector-curvature="0"
         style="fill:#ffffff" />
      <path
         class="cls-5"
         d="m -94.07,434.43 a 1.03,1.03 0 0 0 0,-2.06 1.03,1.03 0 0 0 0,2.06 z"
         transform="translate(117.93,8.31)"
         id="path1262"
         inkscape:connector-curvature="0"
         style="fill:#ffffff" />
      <path
         class="cls-5"
         d="m -42.07,468.21 a 0.81,0.81 0 0 0 0,-1.62 0.81,0.81 0 0 0 0,1.62 z"
         transform="translate(117.93,8.31)"
         id="path1264"
         inkscape:connector-curvature="0"
         style="fill:#ffffff" />
      <path
         class="cls-5"
         d="m 386.52,158.46 c 2.67,0 2.67,-4.14 0,-4.14 -2.67,0 -2.67,4.14 0,4.14 z"
         transform="translate(117.93,8.31)"
         id="path1266"
         inkscape:connector-curvature="0"
         style="fill:#ffffff" />
    </g>
  </g>
</svg>
