<svg xmlns="http://www.w3.org/2000/svg" xmlns:xlink="http://www.w3.org/1999/xlink" viewBox="0 0 1253.49 652.43"><defs><style>.cls-1{fill:none;}.cls-2{fill:#fff;}.cls-3{isolation:isolate;}.cls-4{fill:url(#linear-gradient);}.cls-5{clip-path:url(#clip-path);}.cls-15,.cls-6{opacity:0.3;}.cls-7{fill:#2f3840;}.cls-8{fill:#cfd1d2;}.cls-11,.cls-15,.cls-8{mix-blend-mode:multiply;}.cls-9{fill:#232b2e;}.cls-10{fill:#414a4f;}.cls-12{fill:#eff0f0;}.cls-13{fill:#738a89;}.cls-14{fill:#a3aeb5;}.cls-16{clip-path:url(#clip-path-2);}.cls-17{fill:#e4e5e6;}</style><linearGradient id="linear-gradient" x1="719.86" y1="371.5" x2="719.86" y2="11.41" gradientUnits="userSpaceOnUse"><stop offset="0" stop-color="#445763"/><stop offset="1" stop-color="#0d0e1f"/></linearGradient><clipPath id="clip-path" transform="translate(469.86 8.31)"><rect class="cls-1" y="0.19" width="500" height="500"/></clipPath><clipPath id="clip-path-2" transform="translate(469.86 8.31)"><path class="cls-2" d="M-244.7,473.74c31,0,23,41.12,55.21,41.12s46.33-66.23,95-66.23,47.56,73.72,91.54,73.72,38.87-54.21,84-54.21,40.29,53.09,76,53.09S202.46,470,239.36,470s38.23,44.84,68.05,44.84,29.2-60.26,73.18-60.26,33,60.26,71.12,60.26,19.33-45.8,57.41-45.8,26.28,44.61,52.55,44.61,29.47-24.18,46.53-24.18,14.57,24.18,43.2,24.18,31.94-46.46,67.65-46.46,64.58,92.89,64.58,92.89H-324.49S-275.69,473.74-244.7,473.74Z"/></clipPath></defs><title>loginModal</title><g class="cls-3"><g id="_500x500" data-name="500x500"><rect class="cls-4" x="469.86" y="8.31" width="500" height="500"/><g class="cls-5"><g class="cls-6"><path class="cls-2" d="M45.18,199.56a12.82,12.82,0,0,0-7.25,2.23,19.91,19.91,0,0,0-26.66-13.74,28.24,28.24,0,0,0-25.78-16.72,28.24,28.24,0,0,0-26.21,17.74,22.83,22.83,0,0,0-12.14-3.47,23,23,0,0,0-21.78,15.57,12.87,12.87,0,0,0-6.24-1.61,12.91,12.91,0,0,0-12.9,12.82H58.08A12.91,12.91,0,0,0,45.18,199.56Z" transform="translate(469.86 8.31)"/><path class="cls-2" d="M374.26,294.51a14.86,14.86,0,0,0-21.64-13.23,34.29,34.29,0,0,0-60.09-3.45,19.6,19.6,0,0,0-27.06,17.5H374.22C374.24,295.05,374.26,294.78,374.26,294.51Z" transform="translate(469.86 8.31)"/><path class="cls-2" d="M166.48,300.52a12.33,12.33,0,0,0-4.52.87,23.33,23.33,0,0,0-41.13.72,12.22,12.22,0,0,0-18.2,9.55h76A12.25,12.25,0,0,0,166.48,300.52Z" transform="translate(469.86 8.31)"/><path class="cls-2" d="M589.06,216.66a18.45,18.45,0,0,0-8.57,2.11,28.23,28.23,0,0,0-35.2-15.31A32.72,32.72,0,0,0,484,207.2a28.22,28.22,0,0,0-42.82,12.69A12.22,12.22,0,0,0,423.89,230H606.82A18.51,18.51,0,0,0,589.06,216.66Z" transform="translate(469.86 8.31)"/></g><path class="cls-2" d="M-57.64,120.68l4.7-.57-4.7-.58a1.46,1.46,0,0,0-.73-.72l-.57-4.7-.58,4.7a1.41,1.41,0,0,0-.72.72l-4.7.58,4.7.57a1.41,1.41,0,0,0,.72.72l.58,4.71.57-4.71A1.46,1.46,0,0,0-57.64,120.68Z" transform="translate(469.86 8.31)"/><path class="cls-2" d="M591.27,203.41l5.09-.62-5.09-.62a1.58,1.58,0,0,0-.78-.79l-.63-5.09-.62,5.09a1.54,1.54,0,0,0-.78.79l-5.1.62,5.1.62a1.49,1.49,0,0,0,.78.78l.62,5.1.63-5.1A1.52,1.52,0,0,0,591.27,203.41Z" transform="translate(469.86 8.31)"/><path class="cls-2" d="M450.37,92.84l5.49-.67-5.49-.68a1.72,1.72,0,0,0-.84-.84l-.67-5.48-.67,5.48a1.7,1.7,0,0,0-.85.84l-5.48.68,5.48.67a1.7,1.7,0,0,0,.85.84l.67,5.49.67-5.49A1.72,1.72,0,0,0,450.37,92.84Z" transform="translate(469.86 8.31)"/><path class="cls-2" d="M269.91,263.25l3.14-.38-3.14-.38a.87.87,0,0,0-.48-.48l-.38-3.14-.39,3.14a.94.94,0,0,0-.48.48l-3.13.38,3.13.38a1,1,0,0,0,.48.49l.39,3.13.38-3.13A.92.92,0,0,0,269.91,263.25Z" transform="translate(469.86 8.31)"/><path class="cls-2" d="M362.45,129.76l4.31-.53-4.31-.53a1.29,1.29,0,0,0-.66-.66l-.53-4.31-.52,4.31a1.29,1.29,0,0,0-.66.66l-4.32.53,4.32.53a1.29,1.29,0,0,0,.66.66l.52,4.31.53-4.31A1.29,1.29,0,0,0,362.45,129.76Z" transform="translate(469.86 8.31)"/><path class="cls-2" d="M78.71,149.4l3.53-.43-3.53-.43a1.09,1.09,0,0,0-.54-.54l-.43-3.53L77.3,148a1.09,1.09,0,0,0-.54.54l-3.52.43,3.52.43a1.05,1.05,0,0,0,.54.54l.44,3.53.43-3.53A1.05,1.05,0,0,0,78.71,149.4Z" transform="translate(469.86 8.31)"/><path class="cls-2" d="M360.42,43.71l5.37-.65-5.37-.66a1.6,1.6,0,0,0-.82-.82l-.66-5.36-.65,5.36a1.6,1.6,0,0,0-.82.82l-5.37.66,5.37.65a1.62,1.62,0,0,0,.82.83l.65,5.36.66-5.36A1.62,1.62,0,0,0,360.42,43.71Z" transform="translate(469.86 8.31)"/><path class="cls-2" d="M516.65,134.05l4.71-.58-4.71-.57a1.41,1.41,0,0,0-.72-.72l-.57-4.71-.58,4.71a1.41,1.41,0,0,0-.72.72l-4.7.57,4.7.58a1.41,1.41,0,0,0,.72.72l.58,4.7.57-4.7A1.41,1.41,0,0,0,516.65,134.05Z" transform="translate(469.86 8.31)"/><path class="cls-2" d="M233,130.68l4.7-.57-4.7-.58a1.41,1.41,0,0,0-.72-.72l-.58-4.7-.57,4.7a1.41,1.41,0,0,0-.72.72l-4.71.58,4.71.57a1.41,1.41,0,0,0,.72.72l.57,4.71.58-4.71A1.41,1.41,0,0,0,233,130.68Z" transform="translate(469.86 8.31)"/><path class="cls-2" d="M219.36,40.47l3.52-.43-3.52-.43a1.11,1.11,0,0,0-.54-.55l-.44-3.52L218,39.06a1.11,1.11,0,0,0-.54.55l-3.53.43,3.53.43A1.09,1.09,0,0,0,218,41l.43,3.53.44-3.53A1.09,1.09,0,0,0,219.36,40.47Z" transform="translate(469.86 8.31)"/><path class="cls-2" d="M-57.54,23.16l5.1-.63-5.1-.62a1.49,1.49,0,0,0-.78-.78l-.62-5.1-.63,5.1a1.56,1.56,0,0,0-.78.78l-5.09.62,5.09.63a1.64,1.64,0,0,0,.78.78l.63,5.09.62-5.09A1.56,1.56,0,0,0-57.54,23.16Z" transform="translate(469.86 8.31)"/><path class="cls-2" d="M58.54,66.2l3.52-.43-3.52-.43A1.11,1.11,0,0,0,58,64.8l-.43-3.53-.43,3.53a1.09,1.09,0,0,0-.54.54l-3.53.43,3.53.43a1.07,1.07,0,0,0,.54.55l.43,3.52L58,66.75A1.09,1.09,0,0,0,58.54,66.2Z" transform="translate(469.86 8.31)"/><path class="cls-2" d="M490.4,39.31l5.49-.67L490.4,38a1.64,1.64,0,0,0-.84-.84l-.67-5.49-.67,5.49a1.64,1.64,0,0,0-.84.84l-5.49.67,5.49.67a1.57,1.57,0,0,0,.84.84l.67,5.49.67-5.49A1.57,1.57,0,0,0,490.4,39.31Z" transform="translate(469.86 8.31)"/><path class="cls-2" d="M167.48,1l6.67-.82-6.67-.82a2,2,0,0,0-1-1l-.81-6.66-.82,6.66a2,2,0,0,0-1,1l-6.66.81,6.66.82a2,2,0,0,0,1,1l.82,6.66L166.46,2A2,2,0,0,0,167.48,1Z" transform="translate(469.86 8.31)"/><path class="cls-2" d="M167.85,123.94a1.55,1.55,0,0,0,0-3.1,1.55,1.55,0,0,0,0,3.1Z" transform="translate(469.86 8.31)"/><path class="cls-2" d="M35.85,259.48a1.76,1.76,0,0,0,0-3.52,1.76,1.76,0,0,0,0,3.52Z" transform="translate(469.86 8.31)"/><path class="cls-2" d="M562.1,83.8a1.76,1.76,0,0,0,0-3.51,1.76,1.76,0,0,0,0,3.51Z" transform="translate(469.86 8.31)"/><path class="cls-2" d="M231.69,283.57a1,1,0,0,0,0-2.07,1,1,0,0,0,0,2.07Z" transform="translate(469.86 8.31)"/><path class="cls-2" d="M62.93,200.75a1.61,1.61,0,0,0,0-3.21,1.61,1.61,0,0,0,0,3.21Z" transform="translate(469.86 8.31)"/><path class="cls-2" d="M-43.3,242a.57.57,0,0,1-.18,0l.84.64h0V244a1.54,1.54,0,0,0,.2-.73,1.43,1.43,0,0,0-1.42-1.42,1.42,1.42,0,0,0-1.42,1.42h0a1.48,1.48,0,0,0,.41,1,1.42,1.42,0,0,0,1.38.37h0l-.38.05.2,0a1.43,1.43,0,0,0,.7-.18,1.43,1.43,0,0,0,.63-.83,1.41,1.41,0,0,0-.14-1.06,1.33,1.33,0,0,0-.82-.63Z" transform="translate(469.86 8.31)"/><path class="cls-2" d="M317.6,330.14a1.5,1.5,0,0,0,0-3,1.5,1.5,0,0,0,0,3Z" transform="translate(469.86 8.31)"/><path class="cls-2" d="M219.38,159.92a1,1,0,0,0,0-2.06,1,1,0,0,0,0,2.06Z" transform="translate(469.86 8.31)"/><path class="cls-2" d="M452.52,314.41a1.7,1.7,0,0,0-1.65.69,1.2,1.2,0,0,0,0,1.24,1.7,1.7,0,0,0,1.65.69,1.31,1.31,0,0,0,0-2.62Z" transform="translate(469.86 8.31)"/><path class="cls-2" d="M462.52,478.45c2.66,0,2.66-4.13,0-4.13s-2.66,4.13,0,4.13Z" transform="translate(469.86 8.31)"/><path class="cls-2" d="M288.47,237.2c2.61,0,2.61-4,0-4s-2.61,4,0,4Z" transform="translate(469.86 8.31)"/><path class="cls-2" d="M294.82,17c2.61,0,2.61-4,0-4s-2.61,4,0,4Z" transform="translate(469.86 8.31)"/><path class="cls-2" d="M427.26,42.87c2.61,0,2.61-4,0-4s-2.6,4,0,4Z" transform="translate(469.86 8.31)"/><path class="cls-2" d="M89.85,36.87c2.61,0,2.61-4,0-4s-2.6,4,0,4Z" transform="translate(469.86 8.31)"/><path class="cls-2" d="M-117.15,340.53a.52.52,0,0,0,0-1,.52.52,0,0,0,0,1Z" transform="translate(469.86 8.31)"/><path class="cls-2" d="M324.77,251.25a1.25,1.25,0,0,0,0-2.5,1.25,1.25,0,0,0,0,2.5Z" transform="translate(469.86 8.31)"/><path class="cls-2" d="M568.68,264.12a1.25,1.25,0,0,0,0-2.5,1.25,1.25,0,0,0,0,2.5Z" transform="translate(469.86 8.31)"/><path class="cls-2" d="M534.69,52.3a1.25,1.25,0,0,0,0-2.5,1.25,1.25,0,0,0,0,2.5Z" transform="translate(469.86 8.31)"/><path class="cls-2" d="M330.13,344a1.25,1.25,0,0,0,0-2.5,1.25,1.25,0,0,0,0,2.5Z" transform="translate(469.86 8.31)"/><path class="cls-2" d="M443.44,273.65a1.25,1.25,0,0,0,0-2.5,1.25,1.25,0,0,0,0,2.5Z" transform="translate(469.86 8.31)"/><path class="cls-2" d="M378.59,228a1.25,1.25,0,0,0,0-2.5,1.25,1.25,0,0,0,0,2.5Z" transform="translate(469.86 8.31)"/><path class="cls-2" d="M123.18,87.42a1,1,0,0,0,0-2.07,1,1,0,0,0,0,2.07Z" transform="translate(469.86 8.31)"/><path class="cls-2" d="M18.17,106.45l.35-.24a1.36,1.36,0,0,0,0-2.31l-.35-.24c-3-2.06-3,4.85,0,2.79Z" transform="translate(469.86 8.31)"/><path class="cls-2" d="M155.65,62.87l.35-.24a1.36,1.36,0,0,0,0-2.31l-.35-.24c-3-2.06-3,4.85,0,2.79Z" transform="translate(469.86 8.31)"/><path class="cls-2" d="M23.19,311.85a1,1,0,0,0,0-2.07,1,1,0,0,0,0,2.07Z" transform="translate(469.86 8.31)"/><path class="cls-2" d="M195.67,339a1,1,0,0,0,0-2.07,1,1,0,0,0,0,2.07Z" transform="translate(469.86 8.31)"/><path class="cls-2" d="M6.49,224.35a1.55,1.55,0,0,0,0-3.1,1.55,1.55,0,0,0,0,3.1Z" transform="translate(469.86 8.31)"/><path class="cls-2" d="M379.8,68c2.85,0,2.85-4.42,0-4.42S377,68,379.8,68Z" transform="translate(469.86 8.31)"/><path class="cls-2" d="M303.42,123.33a1,1,0,0,0,0-1.89.95.95,0,0,0,0,1.89Z" transform="translate(469.86 8.31)"/><path class="cls-2" d="M116.52,212.17v.19a1.09,1.09,0,0,0,1.08,1.07,1.08,1.08,0,0,0,1.07-1.07c0-.25,0-.49-.05-.73a1,1,0,0,0-.75-1,1.28,1.28,0,0,0-.55,0,1,1,0,0,0-.75,1c0,.24,0,.48,0,.73a1.08,1.08,0,0,0,2.15,0v-.19c.09-1.4-2.26-1.4-2.17,0Z" transform="translate(469.86 8.31)"/><path class="cls-2" d="M354.42,169.87a.82.82,0,0,0,0-1.63.82.82,0,0,0,0,1.63Z" transform="translate(469.86 8.31)"/><path class="cls-2" d="M365.45,266.39a.82.82,0,0,0,0-1.63.82.82,0,0,0,0,1.63Z" transform="translate(469.86 8.31)"/><path class="cls-2" d="M41.86,282.53a.81.81,0,0,0,0-1.62.81.81,0,0,0,0,1.62Z" transform="translate(469.86 8.31)"/><path class="cls-2" d="M38,130a.81.81,0,0,0,0-1.62A.81.81,0,0,0,38,130Z" transform="translate(469.86 8.31)"/><path class="cls-2" d="M-117.15,41.66a.81.81,0,0,0,0-1.62.81.81,0,0,0,0,1.62Z" transform="translate(469.86 8.31)"/><path class="cls-2" d="M57.56,26.53a.81.81,0,0,0,0-1.62.81.81,0,0,0,0,1.62Z" transform="translate(469.86 8.31)"/><path class="cls-2" d="M182.92,26.53a.81.81,0,0,0,0-1.62.81.81,0,0,0,0,1.62Z" transform="translate(469.86 8.31)"/><path class="cls-2" d="M145.24,186.69a1.55,1.55,0,0,0,0-3.1,1.55,1.55,0,0,0,0,3.1Z" transform="translate(469.86 8.31)"/><path class="cls-2" d="M78,206.29a.82.82,0,0,0,0-1.63.82.82,0,0,0,0,1.63Z" transform="translate(469.86 8.31)"/><path class="cls-2" d="M171,273.64a1,1,0,0,0,0-2.06,1,1,0,0,0,0,2.06Z" transform="translate(469.86 8.31)"/><path class="cls-2" d="M97.19,263.68a.81.81,0,0,0,0-1.62.81.81,0,0,0,0,1.62Z" transform="translate(469.86 8.31)"/><path class="cls-2" d="M36.94,142a.81.81,0,0,0,0-1.62.81.81,0,0,0,0,1.62Z" transform="translate(469.86 8.31)"/><path class="cls-2" d="M-75.48,407.87a.82.82,0,0,0,0-1.63.82.82,0,0,0,0,1.63Z" transform="translate(469.86 8.31)"/><path class="cls-2" d="M151,135.1a.82.82,0,0,0,0-1.63.82.82,0,0,0,0,1.63Z" transform="translate(469.86 8.31)"/><path class="cls-2" d="M-117.15,487.28a.81.81,0,0,0,0-1.62.81.81,0,0,0,0,1.62Z" transform="translate(469.86 8.31)"/><path class="cls-2" d="M471.19,336.48a.82.82,0,0,0,0-1.63.82.82,0,0,0,0,1.63Z" transform="translate(469.86 8.31)"/><path class="cls-2" d="M531.19,294.53a.81.81,0,0,0,0-1.62.81.81,0,0,0,0,1.62Z" transform="translate(469.86 8.31)"/><path class="cls-2" d="M579.28,438.56a.82.82,0,0,0,0-1.63.82.82,0,0,0,0,1.63Z" transform="translate(469.86 8.31)"/><path class="cls-2" d="M427.26,442.24a.81.81,0,0,0,0-1.62.81.81,0,0,0,0,1.62Z" transform="translate(469.86 8.31)"/><path class="cls-2" d="M444.22,364.53a.81.81,0,0,0,0-1.62.81.81,0,0,0,0,1.62Z" transform="translate(469.86 8.31)"/><path class="cls-2" d="M568.6,160.33a.81.81,0,0,0,0-1.62.81.81,0,0,0,0,1.62Z" transform="translate(469.86 8.31)"/><path class="cls-2" d="M278.45,62.19a.81.81,0,0,0,0-1.62.81.81,0,0,0,0,1.62Z" transform="translate(469.86 8.31)"/><path class="cls-2" d="M452.52,195.42a1,1,0,0,0,0-2.07,1,1,0,0,0,0,2.07Z" transform="translate(469.86 8.31)"/><path class="cls-2" d="M503.19,73.62a.82.82,0,0,0,0-1.63.82.82,0,0,0,0,1.63Z" transform="translate(469.86 8.31)"/><path class="cls-2" d="M-52.09,178.13a.81.81,0,0,0,0-1.62.81.81,0,0,0,0,1.62Z" transform="translate(469.86 8.31)"/><path class="cls-2" d="M-94.07,311.63a.82.82,0,0,0,0-1.63.82.82,0,0,0,0,1.63Z" transform="translate(469.86 8.31)"/><path class="cls-2" d="M471.19,26.53a.81.81,0,0,0,0-1.62.81.81,0,0,0,0,1.62Z" transform="translate(469.86 8.31)"/><path class="cls-2" d="M305.39,79.45a.82.82,0,0,0,0-1.63.82.82,0,0,0,0,1.63Z" transform="translate(469.86 8.31)"/><path class="cls-2" d="M1.86,350.13a.81.81,0,0,0,0-1.62.81.81,0,0,0,0,1.62Z" transform="translate(469.86 8.31)"/><path class="cls-2" d="M397,26.53a.81.81,0,0,0,0-1.62.81.81,0,0,0,0,1.62Z" transform="translate(469.86 8.31)"/><path class="cls-2" d="M257.21,106.53a.82.82,0,0,0,0-1.63.82.82,0,0,0,0,1.63Z" transform="translate(469.86 8.31)"/><path class="cls-2" d="M407.25,109.16a.82.82,0,0,0,0-1.63.82.82,0,0,0,0,1.63Z" transform="translate(469.86 8.31)"/><path class="cls-2" d="M75.83,96.1a.81.81,0,0,0,0-1.62.81.81,0,0,0,0,1.62Z" transform="translate(469.86 8.31)"/><path class="cls-2" d="M323.85,109.16a.82.82,0,0,0,0-1.63.82.82,0,0,0,0,1.63Z" transform="translate(469.86 8.31)"/><path class="cls-2" d="M199.2,243.43a.81.81,0,0,0,0-1.62.81.81,0,0,0,0,1.62Z" transform="translate(469.86 8.31)"/><path class="cls-2" d="M158.85,41.66a.81.81,0,0,0,0-1.62.81.81,0,0,0,0,1.62Z" transform="translate(469.86 8.31)"/><path class="cls-2" d="M-110.15,212.63a.81.81,0,0,0,0-1.62.81.81,0,0,0,0,1.62Z" transform="translate(469.86 8.31)"/><path class="cls-2" d="M-38.15,328.23a.81.81,0,0,0,0-1.62.81.81,0,0,0,0,1.62Z" transform="translate(469.86 8.31)"/><path class="cls-2" d="M343.08,79.33a.82.82,0,0,0,0-1.63.82.82,0,0,0,0,1.63Z" transform="translate(469.86 8.31)"/><path class="cls-2" d="M88.75,166.25a.82.82,0,0,0,0-1.63.82.82,0,0,0,0,1.63Z" transform="translate(469.86 8.31)"/><path class="cls-2" d="M9.33,164a.82.82,0,0,0,0-1.63.82.82,0,0,0,0,1.63Z" transform="translate(469.86 8.31)"/><path class="cls-2" d="M480.47,247.23a1.55,1.55,0,0,0,0-3.1,1.55,1.55,0,0,0,0,3.1Z" transform="translate(469.86 8.31)"/><path class="cls-2" d="M594.52,27.79c2.67,0,2.67-4.14,0-4.14s-2.67,4.14,0,4.14Z" transform="translate(469.86 8.31)"/><path class="cls-2" d="M240.86,77a1,1,0,0,0,0-2.07,1,1,0,0,0,0,2.07Z" transform="translate(469.86 8.31)"/><path class="cls-2" d="M266,35.66A.81.81,0,0,0,266,34a.81.81,0,0,0,0,1.62Z" transform="translate(469.86 8.31)"/><path class="cls-2" d="M-94.07,100.81c2.61,0,2.61-4,0-4s-2.61,4,0,4Z" transform="translate(469.86 8.31)"/><path class="cls-2" d="M-34.07,41.09v.19A1.09,1.09,0,0,0-33,42.35a1.09,1.09,0,0,0,1.08-1.07c0-.25,0-.49-.05-.73a1,1,0,0,0-.75-1,1.28,1.28,0,0,0-.55,0,1,1,0,0,0-.75,1c0,.24,0,.48-.05.73A1.08,1.08,0,0,0-33,42.35a1.09,1.09,0,0,0,1.08-1.07v-.19c.09-1.4-2.26-1.4-2.17,0Z" transform="translate(469.86 8.31)"/><path class="cls-2" d="M-82.88,261a1.55,1.55,0,0,0,0-3.1,1.55,1.55,0,0,0,0,3.1Z" transform="translate(469.86 8.31)"/><path class="cls-2" d="M-37.21,239.55a.78.78,0,0,0,0-1.55.78.78,0,0,0,0,1.55Z" transform="translate(469.86 8.31)"/><path class="cls-2" d="M490.88,181.28a.81.81,0,0,0,0-1.62.81.81,0,0,0,0,1.62Z" transform="translate(469.86 8.31)"/><path class="cls-2" d="M111.19,164.05a.82.82,0,0,0,0-1.63.82.82,0,0,0,0,1.63Z" transform="translate(469.86 8.31)"/><path class="cls-2" d="M-94.07,434.43a1,1,0,0,0,0-2.06,1,1,0,0,0,0,2.06Z" transform="translate(469.86 8.31)"/><path class="cls-2" d="M-42.07,468.21a.81.81,0,0,0,0-1.62.81.81,0,0,0,0,1.62Z" transform="translate(469.86 8.31)"/><path class="cls-2" d="M386.52,158.46c2.67,0,2.67-4.14,0-4.14s-2.67,4.14,0,4.14Z" transform="translate(469.86 8.31)"/><polygon class="cls-7" points="847.05 574.94 1003.77 355.12 1139.99 510.94 847.05 574.94"/><polygon class="cls-8" points="966.35 529.02 1011.17 442.85 990.72 400.14 1003.77 355.12 1139.99 510.94 966.35 529.02"/><polygon class="cls-7" points="575.62 591.95 712.41 333.67 892.35 596.39 575.62 591.95"/><path class="cls-8" d="M264.12,534S232.41,456.72,234,456.72s26.05-29.63,26.05-29.63l-26-48.26,8.48-53.47L370,511.05Z" transform="translate(469.86 8.31)"/><polygon class="cls-9" points="700.46 589.9 858.05 299.91 1009.61 584.47 700.46 589.9"/><polygon class="cls-8" points="841.64 587.58 814.01 491.32 847.91 425.27 838.05 386 858.05 299.91 1009.61 584.47 841.64 587.58"/><polygon class="cls-7" points="267.6 509.45 398.81 324.24 573.57 524.16 267.6 509.45"/><polygon class="cls-8" points="362.55 514.02 408.3 436.8 382.06 382.01 398.81 324.24 573.57 524.16 362.55 514.02"/><polygon class="cls-9" points="395.11 581.96 577.53 284.1 756.12 574.94 395.11 581.96"/><polygon class="cls-8" points="525.36 568.12 588.49 423.02 558.36 363.73 577.53 284.1 756.12 574.94 525.36 568.12"/><path class="cls-10" d="M94,527.64c14.6-45.7-67.42-124.06-121.51-124.06S-81.33,450-123.52,450-190,413.5-239.5,413.5s-103.62,61.71-103.29,104.16S79.43,573.33,94,527.64Z" transform="translate(469.86 8.31)"/><g class="cls-11"><path class="cls-12" d="M-37.08,416.88c0,1.9-3,3.44-6.68,3.44s-6.69-1.54-6.69-3.44,3-3.43,6.69-3.43S-37.08,415-37.08,416.88Z" transform="translate(469.86 8.31)"/><path class="cls-12" d="M-12.7,413.45c0,1.89-3,3.43-6.68,3.43s-6.69-1.54-6.69-3.43,3-3.44,6.69-3.44S-12.7,411.55-12.7,413.45Z" transform="translate(469.86 8.31)"/><ellipse class="cls-12" cx="442.28" cy="436.29" rx="6.69" ry="3.44"/><ellipse class="cls-12" cx="405.51" cy="437.85" rx="6.69" ry="3.44"/><path class="cls-12" d="M-39.7,440c0,1.9-3,3.44-6.68,3.44s-6.69-1.54-6.69-3.44,3-3.44,6.69-3.44S-39.7,438.11-39.7,440Z" transform="translate(469.86 8.31)"/><ellipse class="cls-12" cx="395.19" cy="455.2" rx="6.69" ry="3.44"/><ellipse class="cls-12" cx="340.97" cy="466.45" rx="6.69" ry="3.44"/><ellipse class="cls-12" cx="324.09" cy="486.79" rx="6.69" ry="3.44"/><ellipse class="cls-12" cx="321.75" cy="473.32" rx="6.69" ry="3.44"/><ellipse class="cls-12" cx="300.65" cy="488.23" rx="6.69" ry="3.44"/><path class="cls-12" d="M-171,460.89c0,1.9-3,3.44-6.69,3.44s-6.68-1.54-6.68-3.44,3-3.44,6.68-3.44S-171,459-171,460.89Z" transform="translate(469.86 8.31)"/><ellipse class="cls-12" cx="310.18" cy="458.63" rx="6.69" ry="3.44"/><ellipse class="cls-12" cx="290.81" cy="451.76" rx="6.69" ry="3.44"/><path class="cls-12" d="M-189.87,452.07c0,1.9-3,3.44-6.68,3.44s-6.69-1.54-6.69-3.44,3-3.44,6.69-3.44S-189.87,450.17-189.87,452.07Z" transform="translate(469.86 8.31)"/><path class="cls-12" d="M-208.34,441.91c0,1.9-3,3.44-6.68,3.44s-6.69-1.54-6.69-3.44,3-3.43,6.69-3.43S-208.34,440-208.34,441.91Z" transform="translate(469.86 8.31)"/><ellipse class="cls-12" cx="270.46" cy="442.41" rx="6.69" ry="3.44"/><path class="cls-12" d="M-208.34,421.76c0,1.89-3,3.43-6.68,3.43s-6.69-1.54-6.69-3.43,3-3.44,6.69-3.44S-208.34,419.86-208.34,421.76Z" transform="translate(469.86 8.31)"/><ellipse class="cls-12" cx="236.71" cy="442.41" rx="6.69" ry="3.44"/><path class="cls-12" d="M-245.28,446.89c0,1.89-3,3.43-6.69,3.43s-6.68-1.54-6.68-3.43,3-3.44,6.68-3.44S-245.28,445-245.28,446.89Z" transform="translate(469.86 8.31)"/><ellipse class="cls-12" cx="216.8" cy="436.94" rx="6.69" ry="3.44"/><ellipse class="cls-12" cx="231.27" cy="428.03" rx="6.69" ry="3.44"/><ellipse class="cls-12" cx="190.48" cy="443.82" rx="6.69" ry="3.44"/><path class="cls-12" d="M-268.51,451.26c0,1.9-3,3.44-6.68,3.44s-6.69-1.54-6.69-3.44,3-3.44,6.69-3.44S-268.51,449.36-268.51,451.26Z" transform="translate(469.86 8.31)"/><path class="cls-12" d="M-292.84,453.76c0,1.9-3,3.44-6.69,3.44s-6.69-1.54-6.69-3.44,3-3.44,6.69-3.44S-292.84,451.86-292.84,453.76Z" transform="translate(469.86 8.31)"/><ellipse class="cls-12" cx="152.06" cy="480.82" rx="6.69" ry="3.44"/><path class="cls-12" d="M-279.38,466.58c0,1.89-3,3.43-6.68,3.43s-6.69-1.54-6.69-3.43,3-3.44,6.69-3.44S-279.38,464.68-279.38,466.58Z" transform="translate(469.86 8.31)"/><ellipse class="cls-12" cx="171.27" cy="491.67" rx="6.69" ry="3.44"/><path class="cls-12" d="M-316.44,492.24c0,1.9-3,3.44-6.69,3.44s-6.68-1.54-6.68-3.44,3-3.44,6.68-3.44S-316.44,490.34-316.44,492.24Z" transform="translate(469.86 8.31)"/><ellipse class="cls-12" cx="416.79" cy="464.57" rx="6.69" ry="3.44"/><path class="cls-12" d="M-14.21,460.89c0,1.9-3,3.44-6.69,3.44s-6.68-1.54-6.68-3.44,3-3.44,6.68-3.44S-14.21,459-14.21,460.89Z" transform="translate(469.86 8.31)"/><ellipse class="cls-12" cx="451.81" cy="452.64" rx="6.69" ry="3.44"/><path class="cls-12" d="M-2.11,483.36c-3.69,0-6.69-1.54-6.69-3.44s3-3.43,6.69-3.43" transform="translate(469.86 8.31)"/></g><path class="cls-13" d="M502.41,459.44c-51.94,0-55.68,29.53-81.93,29.53s-19.68-24.66-50.42-24.66S349.51,502,305.53,502c-75.94,0-75.92-47.26-134.78-47.26s-30.05,60.1-118.22,60.1c-42.6,0-51.78-58.23-95.76-58.23s-70.08,35.3-108.16,35.3-43.15-43.3-81.22-43.3S-302.83,507-331.46,507s-38.11-51.47-73.82-51.47S-469.86,560.1-469.86,560.1H671.79C642.17,560.1,554.35,459.44,502.41,459.44Z" transform="translate(469.86 8.31)"/><g class="cls-11"><ellipse class="cls-12" cx="234.1" cy="481.36" rx="11.79" ry="2.3"/><path class="cls-12" d="M-241.27,465c0,1.27-5.28,2.3-11.79,2.3s-11.79-1-11.79-2.3,5.28-2.3,11.79-2.3S-241.27,463.74-241.27,465Z" transform="translate(469.86 8.31)"/><path class="cls-12" d="M-253.06,474.61c0,1.27-5.28,2.3-11.79,2.3s-11.79-1-11.79-2.3,5.28-2.3,11.79-2.3S-253.06,473.34-253.06,474.61Z" transform="translate(469.86 8.31)"/><path class="cls-12" d="M-203.23,481.92c0,1.27-5.28,2.3-11.79,2.3s-11.79-1-11.79-2.3,5.27-2.3,11.79-2.3S-203.23,480.65-203.23,481.92Z" transform="translate(469.86 8.31)"/><path class="cls-12" d="M-238.26,484.22c0,1.27-5.28,2.3-11.79,2.3s-11.79-1-11.79-2.3,5.28-2.3,11.79-2.3S-238.26,483-238.26,484.22Z" transform="translate(469.86 8.31)"/><path class="cls-12" d="M-215,495.68c0,1.27-5.28,2.3-11.79,2.3s-11.8-1-11.8-2.3,5.28-2.3,11.8-2.3S-215,494.41-215,495.68Z" transform="translate(469.86 8.31)"/><path class="cls-12" d="M-240.17,502c0,1.27-5.28,2.3-11.8,2.3s-11.79-1-11.79-2.3,5.28-2.3,11.79-2.3S-240.17,500.75-240.17,502Z" transform="translate(469.86 8.31)"/><path class="cls-12" d="M-240.17,515.25c0,1.27-5.28,2.3-11.8,2.3s-11.79-1-11.79-2.3,5.28-2.3,11.79-2.3S-240.17,514-240.17,515.25Z" transform="translate(469.86 8.31)"/><path class="cls-12" d="M-180.92,489.46c0,1.27-5.28,2.29-11.79,2.29s-11.79-1-11.79-2.29,5.28-2.3,11.79-2.3S-180.92,488.19-180.92,489.46Z" transform="translate(469.86 8.31)"/><path class="cls-12" d="M-215,459.7c0,1.27-5.28,2.3-11.79,2.3s-11.8-1-11.8-2.3,5.28-2.3,11.8-2.3S-215,458.43-215,459.7Z" transform="translate(469.86 8.31)"/><ellipse class="cls-12" cx="263.78" cy="478.32" rx="11.79" ry="2.3"/><path class="cls-12" d="M-150.73,495.68c0,1.27-5.28,2.3-11.79,2.3s-11.79-1-11.79-2.3,5.28-2.3,11.79-2.3S-150.73,494.41-150.73,495.68Z" transform="translate(469.86 8.31)"/><path class="cls-12" d="M-187.61,504.32c0,1.27-5.28,2.3-11.79,2.3s-11.79-1-11.79-2.3,5.28-2.3,11.79-2.3S-187.61,503.05-187.61,504.32Z" transform="translate(469.86 8.31)"/><path class="cls-12" d="M-150.73,506.62c0,1.27-5.28,2.3-11.79,2.3s-11.79-1-11.79-2.3,5.28-2.3,11.79-2.3S-150.73,505.35-150.73,506.62Z" transform="translate(469.86 8.31)"/><path class="cls-12" d="M-172.54,519.84c0,1.27-5.28,2.3-11.79,2.3s-11.79-1-11.79-2.3,5.28-2.29,11.79-2.29S-172.54,518.57-172.54,519.84Z" transform="translate(469.86 8.31)"/><path class="cls-12" d="M-209.92,513c0,1.27-5.28,2.3-11.79,2.3s-11.79-1-11.79-2.3,5.28-2.3,11.79-2.3S-209.92,511.68-209.92,513Z" transform="translate(469.86 8.31)"/><path class="cls-12" d="M-50.69,478.45c0,1.27-5.28,2.3-11.79,2.3s-11.79-1-11.79-2.3,5.28-2.3,11.79-2.3S-50.69,477.18-50.69,478.45Z" transform="translate(469.86 8.31)"/><ellipse class="cls-12" cx="430.61" cy="497.93" rx="11.79" ry="2.3"/><path class="cls-12" d="M-62.48,491.92c0,1.27-5.28,2.3-11.79,2.3s-11.79-1-11.79-2.3,5.28-2.3,11.79-2.3S-62.48,490.65-62.48,491.92Z" transform="translate(469.86 8.31)"/><ellipse class="cls-12" cx="378.4" cy="488.23" rx="11.79" ry="2.3"/><ellipse class="cls-12" cx="458.5" cy="494.8" rx="11.79" ry="2.3"/><path class="cls-12" d="M-96.33,506.62c0,1.27-5.28,2.3-11.79,2.3s-11.79-1-11.79-2.3,5.28-2.3,11.79-2.3S-96.33,505.35-96.33,506.62Z" transform="translate(469.86 8.31)"/><path class="cls-12" d="M-39.25,503.38c0,1.26-5.28,2.29-11.79,2.29s-11.79-1-11.79-2.29,5.28-2.3,11.79-2.3S-39.25,502.11-39.25,503.38Z" transform="translate(469.86 8.31)"/><path class="cls-12" d="M-64.4,509.72c0,1.27-5.28,2.3-11.79,2.3S-88,511-88,509.72s5.28-2.3,11.79-2.3S-64.4,508.45-64.4,509.72Z" transform="translate(469.86 8.31)"/><ellipse class="cls-12" cx="393.67" cy="531.26" rx="11.79" ry="2.3"/><ellipse class="cls-12" cx="452.92" cy="505.46" rx="11.79" ry="2.3"/><path class="cls-12" d="M-39.25,467.4c0,1.27-5.28,2.3-11.79,2.3s-11.79-1-11.79-2.3,5.28-2.3,11.79-2.3S-39.25,466.13-39.25,467.4Z" transform="translate(469.86 8.31)"/><path class="cls-12" d="M-18.52,477.71c0,1.27-5.27,2.3-11.79,2.3s-11.79-1-11.79-2.3,5.28-2.3,11.79-2.3S-18.52,476.44-18.52,477.71Z" transform="translate(469.86 8.31)"/><path class="cls-12" d="M-11.83,512c0,1.27-5.28,2.3-11.79,2.3s-11.79-1-11.79-2.3,5.28-2.3,11.79-2.3S-11.83,510.75-11.83,512Z" transform="translate(469.86 8.31)"/><path class="cls-12" d="M3.24,527.54c0,1.27-5.28,2.3-11.79,2.3s-11.8-1-11.8-2.3,5.28-2.3,11.8-2.3S3.24,526.27,3.24,527.54Z" transform="translate(469.86 8.31)"/><path class="cls-12" d="M-34.14,520.65c0,1.27-5.28,2.3-11.79,2.3s-11.79-1-11.79-2.3,5.28-2.3,11.79-2.3S-34.14,519.38-34.14,520.65Z" transform="translate(469.86 8.31)"/><path class="cls-12" d="M148.83,505.63c0,1.27-5.28,2.3-11.79,2.3s-11.79-1-11.79-2.3,5.28-2.3,11.79-2.3S148.83,504.36,148.83,505.63Z" transform="translate(469.86 8.31)"/><path class="cls-12" d="M148.83,518.85c0,1.27-5.28,2.3-11.79,2.3s-11.79-1-11.79-2.3,5.28-2.3,11.79-2.3S148.83,517.58,148.83,518.85Z" transform="translate(469.86 8.31)"/><ellipse class="cls-12" cx="659.47" cy="516.24" rx="11.79" ry="2.3"/><ellipse class="cls-12" cx="674.53" cy="531.76" rx="11.79" ry="2.3"/><ellipse class="cls-12" cx="637.16" cy="524.86" rx="11.79" ry="2.3"/><path class="cls-12" d="M490.34,505.31c0,1.27-5.28,2.3-11.79,2.3s-11.79-1-11.79-2.3S472,503,478.55,503,490.34,504,490.34,505.31Z" transform="translate(469.86 8.31)"/><ellipse class="cls-12" cx="923.26" cy="519.97" rx="11.79" ry="2.3"/><path class="cls-12" d="M465.19,524.88c0,1.27-5.28,2.3-11.79,2.3s-11.79-1-11.79-2.3,5.28-2.3,11.79-2.3S465.19,523.61,465.19,524.88Z" transform="translate(469.86 8.31)"/><path class="cls-12" d="M524.45,499.09c0,1.27-5.28,2.3-11.79,2.3s-11.8-1-11.8-2.3,5.28-2.3,11.8-2.3S524.45,497.82,524.45,499.09Z" transform="translate(469.86 8.31)"/><path class="cls-12" d="M511.08,479.65c0,1.27-5.28,2.3-11.8,2.3s-11.79-1-11.79-2.3,5.28-2.3,11.79-2.3S511.08,478.38,511.08,479.65Z" transform="translate(469.86 8.31)"/><ellipse class="cls-12" cx="975.83" cy="522.27" rx="11.79" ry="2.3"/><ellipse class="cls-12" cx="990.9" cy="537.79" rx="11.79" ry="2.3"/><path class="cls-12" d="M495.45,522.58c0,1.27-5.28,2.3-11.79,2.3s-11.79-1-11.79-2.3,5.28-2.29,11.79-2.29S495.45,521.31,495.45,522.58Z" transform="translate(469.86 8.31)"/><path class="cls-12" d="M394.06,499.83c0,1.27-5.28,2.3-11.79,2.3s-11.79-1-11.79-2.3,5.28-2.3,11.79-2.3S394.06,498.56,394.06,499.83Z" transform="translate(469.86 8.31)"/><ellipse class="cls-12" cx="875.36" cy="519.31" rx="11.79" ry="2.3"/><path class="cls-12" d="M382.27,513.3c0,1.27-5.28,2.3-11.79,2.3s-11.79-1-11.79-2.3S364,511,370.48,511,382.27,512,382.27,513.3Z" transform="translate(469.86 8.31)"/><ellipse class="cls-12" cx="863.57" cy="533.07" rx="11.79" ry="2.3"/><path class="cls-12" d="M380.35,531.11c0,1.26-5.27,2.29-11.79,2.29s-11.79-1-11.79-2.29,5.28-2.3,11.79-2.3S380.35,529.84,380.35,531.11Z" transform="translate(469.86 8.31)"/><ellipse class="cls-12" cx="838.42" cy="552.64" rx="11.79" ry="2.3"/><ellipse class="cls-12" cx="897.68" cy="526.85" rx="11.79" ry="2.3"/><ellipse class="cls-12" cx="863.57" cy="497.09" rx="11.79" ry="2.3"/><path class="cls-12" d="M426.24,499.09c0,1.27-5.28,2.3-11.79,2.3s-11.8-1-11.8-2.3,5.28-2.29,11.8-2.29S426.24,497.82,426.24,499.09Z" transform="translate(469.86 8.31)"/><path class="cls-12" d="M454.82,501.39c0,1.27-5.28,2.3-11.79,2.3s-11.79-1-11.79-2.3,5.28-2.3,11.79-2.3S454.82,500.12,454.82,501.39Z" transform="translate(469.86 8.31)"/><path class="cls-12" d="M432.92,533.4c0,1.27-5.28,2.3-11.79,2.3s-11.79-1-11.79-2.3,5.28-2.29,11.79-2.29S432.92,532.13,432.92,533.4Z" transform="translate(469.86 8.31)"/><path class="cls-12" d="M448,548.93c0,1.27-5.28,2.29-11.79,2.29s-11.79-1-11.79-2.29,5.28-2.3,11.79-2.3S448,547.66,448,548.93Z" transform="translate(469.86 8.31)"/><path class="cls-12" d="M410.61,542c0,1.27-5.28,2.3-11.79,2.3S387,543.3,387,542s5.28-2.3,11.79-2.3S410.61,540.76,410.61,542Z" transform="translate(469.86 8.31)"/><path class="cls-12" d="M242,499.83c0,1.27-5.28,2.3-11.8,2.3s-11.79-1-11.79-2.3,5.28-2.3,11.79-2.3S242,498.56,242,499.83Z" transform="translate(469.86 8.31)"/><ellipse class="cls-12" cx="723.27" cy="519.31" rx="11.79" ry="2.3"/><path class="cls-12" d="M230.17,513.3c0,1.27-5.27,2.3-11.79,2.3s-11.79-1-11.79-2.3,5.28-2.3,11.79-2.3S230.17,512,230.17,513.3Z" transform="translate(469.86 8.31)"/><ellipse class="cls-12" cx="711.48" cy="533.07" rx="11.79" ry="2.3"/><path class="cls-12" d="M228.26,531.11c0,1.26-5.28,2.29-11.8,2.29s-11.79-1-11.79-2.29,5.28-2.3,11.79-2.3S228.26,529.84,228.26,531.11Z" transform="translate(469.86 8.31)"/><ellipse class="cls-12" cx="686.32" cy="552.64" rx="11.79" ry="2.3"/><ellipse class="cls-12" cx="745.58" cy="526.85" rx="11.79" ry="2.3"/><ellipse class="cls-12" cx="700.03" cy="497.09" rx="11.79" ry="2.3"/><path class="cls-12" d="M271.22,499.83c0,1.27-5.28,2.3-11.79,2.3s-11.79-1-11.79-2.3,5.28-2.3,11.79-2.3S271.22,498.56,271.22,499.83Z" transform="translate(469.86 8.31)"/><path class="cls-12" d="M300.39,506.67c0,1.26-5.28,2.29-11.79,2.29s-11.79-1-11.79-2.29,5.28-2.3,11.79-2.3S300.39,505.4,300.39,506.67Z" transform="translate(469.86 8.31)"/><path class="cls-12" d="M334.77,505.63c0,1.27-5.28,2.3-11.79,2.3s-11.79-1-11.79-2.3,5.27-2.3,11.79-2.3S334.77,504.36,334.77,505.63Z" transform="translate(469.86 8.31)"/><ellipse class="cls-12" cx="777.54" cy="524.86" rx="11.79" ry="2.3"/><path class="cls-12" d="M359.22,495.36c0,1.27-5.28,2.3-11.79,2.3s-11.79-1-11.79-2.3,5.28-2.3,11.79-2.3S359.22,494.09,359.22,495.36Z" transform="translate(469.86 8.31)"/><path class="cls-12" d="M280.82,533.4c0,1.27-5.28,2.3-11.79,2.3s-11.79-1-11.79-2.3,5.28-2.29,11.79-2.29S280.82,532.13,280.82,533.4Z" transform="translate(469.86 8.31)"/><path class="cls-12" d="M295.89,548.93c0,1.27-5.28,2.29-11.79,2.29s-11.79-1-11.79-2.29,5.28-2.3,11.79-2.3S295.89,547.66,295.89,548.93Z" transform="translate(469.86 8.31)"/><path class="cls-12" d="M258.51,542c0,1.27-5.28,2.3-11.79,2.3s-11.79-1-11.79-2.3,5.28-2.3,11.79-2.3S258.51,540.76,258.51,542Z" transform="translate(469.86 8.31)"/><ellipse class="cls-12" cx="475.22" cy="513.98" rx="11.79" ry="2.3"/><path class="cls-12" d="M97,534.42c0,1.27-5.28,2.3-11.79,2.3s-11.79-1-11.79-2.3,5.28-2.3,11.79-2.3S97,533.15,97,534.42Z" transform="translate(469.86 8.31)"/><path class="cls-12" d="M125.07,510.23c0,1.27-5.28,2.3-11.79,2.3s-11.79-1-11.79-2.3,5.28-2.3,11.79-2.3S125.07,509,125.07,510.23Z" transform="translate(469.86 8.31)"/><path class="cls-12" d="M47.44,518.91c0,1.27-5.27,2.3-11.79,2.3s-11.79-1-11.79-2.3,5.28-2.29,11.79-2.29S47.44,517.65,47.44,518.91Z" transform="translate(469.86 8.31)"/><path class="cls-12" d="M17,518.91c0,1.27-5.28,2.3-11.8,2.3s-11.79-1-11.79-2.3,5.28-2.29,11.79-2.29S17,517.65,17,518.91Z" transform="translate(469.86 8.31)"/><path class="cls-12" d="M40.22,530.37c0,1.27-5.28,2.3-11.79,2.3s-11.79-1-11.79-2.3,5.27-2.3,11.79-2.3S40.22,529.1,40.22,530.37Z" transform="translate(469.86 8.31)"/><ellipse class="cls-12" cx="473.14" cy="545.03" rx="11.79" ry="2.3"/><path class="cls-12" d="M15.07,549.94c0,1.27-5.28,2.3-11.79,2.3s-11.8-1-11.8-2.3,5.28-2.3,11.8-2.3S15.07,548.67,15.07,549.94Z" transform="translate(469.86 8.31)"/><path class="cls-12" d="M74.32,524.15c0,1.27-5.28,2.3-11.79,2.3s-11.79-1-11.79-2.3,5.28-2.3,11.79-2.3S74.32,522.88,74.32,524.15Z" transform="translate(469.86 8.31)"/><path class="cls-12" d="M106.28,518.91c0,1.27-5.28,2.3-11.79,2.3s-11.79-1-11.79-2.3,5.28-2.29,11.79-2.29S106.28,517.65,106.28,518.91Z" transform="translate(469.86 8.31)"/><path class="cls-12" d="M132,530.37c0,1.27-5.28,2.3-11.79,2.3s-11.79-1-11.79-2.3,5.28-2.3,11.79-2.3S132,529.1,132,530.37Z" transform="translate(469.86 8.31)"/><ellipse class="cls-12" cx="519.02" cy="513.02" rx="11.79" ry="2.3"/><ellipse class="cls-12" cx="525.7" cy="547.33" rx="11.79" ry="2.3"/><ellipse class="cls-12" cx="540.77" cy="562.85" rx="11.79" ry="2.3"/><path class="cls-12" d="M45.32,547.64c0,1.27-5.28,2.3-11.79,2.3s-11.79-1-11.79-2.3,5.28-2.3,11.79-2.3S45.32,546.37,45.32,547.64Z" transform="translate(469.86 8.31)"/><path class="cls-12" d="M-119.91,499.77c0,1.27-5.28,2.3-11.79,2.3s-11.79-1-11.79-2.3,5.27-2.3,11.79-2.3S-119.91,498.5-119.91,499.77Z" transform="translate(469.86 8.31)"/><path class="cls-12" d="M-98.62,491.75c0,1.27-5.28,2.3-11.79,2.3s-11.8-1-11.8-2.3,5.28-2.29,11.8-2.29S-98.62,490.48-98.62,491.75Z" transform="translate(469.86 8.31)"/></g><path class="cls-14" d="M-244.7,473.74c31,0,23,41.12,55.21,41.12s46.33-66.23,95-66.23,47.56,73.72,91.54,73.72,38.87-54.21,84-54.21,40.29,53.09,76,53.09S202.46,470,239.36,470s38.23,44.84,68.05,44.84,29.2-60.26,73.18-60.26,33,60.26,71.12,60.26,19.33-45.8,57.41-45.8,26.28,44.61,52.55,44.61,29.47-24.18,46.53-24.18,14.57,24.18,43.2,24.18,31.94-46.46,67.65-46.46,64.58,92.89,64.58,92.89H-324.49S-275.69,473.74-244.7,473.74Z" transform="translate(469.86 8.31)"/><g class="cls-15"><path class="cls-2" d="M-244.7,473.74c31,0,23,41.12,55.21,41.12s46.33-66.23,95-66.23,47.56,73.72,91.54,73.72,38.87-54.21,84-54.21,40.29,53.09,76,53.09S202.46,470,239.36,470s38.23,44.84,68.05,44.84,29.2-60.26,73.18-60.26,33,60.26,71.12,60.26,19.33-45.8,57.41-45.8,26.28,44.61,52.55,44.61,29.47-24.18,46.53-24.18,14.57,24.18,43.2,24.18,31.94-46.46,67.65-46.46,64.58,92.89,64.58,92.89H-324.49S-275.69,473.74-244.7,473.74Z" transform="translate(469.86 8.31)"/><g class="cls-16"><path class="cls-17" d="M-15.88,591.91c-23.07-23.07-41-42.57-40-43.57s20.5,16.91,43.57,40,41,42.57,40,43.57S7.19,615-15.88,591.91Z" transform="translate(469.86 8.31)"/><path class="cls-17" d="M-199.83,552.3c-23.07-23.06-41-42.57-40-43.56s20.49,16.9,43.56,40,41,42.57,40,43.56S-176.77,575.37-199.83,552.3Z" transform="translate(469.86 8.31)"/><path class="cls-17" d="M-288.16,462.92c-23.07-23.06-41-42.57-40-43.56s20.5,16.9,43.57,40,41,42.57,40,43.56S-265.09,486-288.16,462.92Z" transform="translate(469.86 8.31)"/><path class="cls-17" d="M-31.74,559.53c-23.07-23.06-41-42.57-40-43.56s20.5,16.9,43.57,40,41,42.57,40,43.56S-8.67,582.6-31.74,559.53Z" transform="translate(469.86 8.31)"/><path class="cls-17" d="M-67.72,506.93c-23.07-23.06-41-42.57-40-43.56s20.5,16.9,43.57,40,41,42.57,40,43.56S-44.65,530-67.72,506.93Z" transform="translate(469.86 8.31)"/><path class="cls-17" d="M-105.33,501.25c-23.07-23.07-41-42.57-40-43.57s20.5,16.91,43.56,40,41,42.58,40,43.57S-82.26,524.32-105.33,501.25Z" transform="translate(469.86 8.31)"/><path class="cls-17" d="M-120.83,470.45c-23.07-23.07-41-42.58-40-43.57s20.49,16.9,43.56,40,41,42.57,40,43.56S-97.77,493.51-120.83,470.45Z" transform="translate(469.86 8.31)"/><path class="cls-17" d="M-97.81,460.44c-23.07-23.06-41-42.57-40-43.56s20.5,16.9,43.56,40,41,42.57,40,43.56S-74.74,483.51-97.81,460.44Z" transform="translate(469.86 8.31)"/><path class="cls-17" d="M-1.89,554.9c-23.07-23.07-41-42.58-40-43.57s20.5,16.9,43.56,40,41,42.57,40,43.56S21.18,578-1.89,554.9Z" transform="translate(469.86 8.31)"/><path class="cls-17" d="M-55.44,485.87c-23.06-23.06-41-42.57-40-43.56s20.49,16.9,43.56,40,41,42.57,40,43.56S-32.37,508.94-55.44,485.87Z" transform="translate(469.86 8.31)"/><path class="cls-17" d="M24.85,540.4c-23.07-23.07-41-42.57-40-43.57s20.5,16.9,43.57,40,41,42.57,40,43.57S47.92,563.46,24.85,540.4Z" transform="translate(469.86 8.31)"/><path class="cls-17" d="M37.86,573.69c-23.07-23.07-41-42.58-40-43.57s20.49,16.9,43.56,40,41,42.57,40,43.57S60.92,596.75,37.86,573.69Z" transform="translate(469.86 8.31)"/><path class="cls-17" d="M-171,511.42c-23.07-23.07-41-42.57-40-43.57s20.49,16.91,43.56,40,41,42.58,40,43.57S-147.93,534.49-171,511.42Z" transform="translate(469.86 8.31)"/><path class="cls-17" d="M-129.77,534.66c-23.07-23.07-41-42.57-40-43.57s20.5,16.91,43.56,40,41,42.57,40,43.57S-106.7,557.73-129.77,534.66Z" transform="translate(469.86 8.31)"/><path class="cls-17" d="M-168.69,477.1c-23.07-23.07-41-42.57-40-43.57s20.5,16.91,43.57,40,41,42.58,40,43.57S-145.62,500.17-168.69,477.1Z" transform="translate(469.86 8.31)"/><path class="cls-17" d="M-98.18,528.44c-23.07-23.07-41-42.57-40-43.57s20.5,16.91,43.57,40,41,42.57,40,43.57S-75.11,551.51-98.18,528.44Z" transform="translate(469.86 8.31)"/><path class="cls-17" d="M-79,569.49c-23.06-23.07-41-42.57-40-43.57s20.5,16.9,43.57,40,41,42.57,40,43.57S-56,592.55-79,569.49Z" transform="translate(469.86 8.31)"/><path class="cls-17" d="M-202.42,517.09c-23.07-23.07-41-42.57-40-43.57s20.5,16.91,43.57,40,41,42.58,40,43.57S-179.35,540.16-202.42,517.09Z" transform="translate(469.86 8.31)"/><path class="cls-17" d="M-154.92,579.06c-23.06-23.07-41-42.58-40-43.57s20.5,16.9,43.57,40,41,42.57,40,43.57S-131.85,602.12-154.92,579.06Z" transform="translate(469.86 8.31)"/><path class="cls-17" d="M-177.84,586.82c-23.06-23.07-41-42.57-40-43.56s20.49,16.9,43.56,40,41,42.57,40,43.56S-154.77,609.89-177.84,586.82Z" transform="translate(469.86 8.31)"/><path class="cls-17" d="M-243.52,554.06c-23.06-23.07-41-42.57-40-43.57s20.5,16.91,43.57,40,41,42.58,40,43.57S-220.45,577.13-243.52,554.06Z" transform="translate(469.86 8.31)"/><path class="cls-17" d="M-267.29,498.59c-23.06-23.07-41-42.57-40-43.56s20.5,16.9,43.57,40,41,42.57,40,43.56S-244.22,521.66-267.29,498.59Z" transform="translate(469.86 8.31)"/><path class="cls-17" d="M-247.19,489.36c-23.06-23.07-41-42.57-40-43.56s20.5,16.9,43.57,40,41,42.58,40,43.57S-224.12,512.43-247.19,489.36Z" transform="translate(469.86 8.31)"/><path class="cls-17" d="M-243.52,536.57c-23.06-23.07-41-42.58-40-43.57s20.49,16.9,43.56,40,41,42.57,40,43.56S-220.45,559.63-243.52,536.57Z" transform="translate(469.86 8.31)"/><path class="cls-17" d="M26,492.66C2.9,469.6-15,450.09-14,449.1s20.5,16.9,43.56,40,41,42.57,40,43.56S49,515.73,26,492.66Z" transform="translate(469.86 8.31)"/><path class="cls-17" d="M-139.62,562.33c-23.07-23.07-41-42.58-40-43.57s20.5,16.9,43.57,40,41,42.57,40,43.56S-116.55,585.39-139.62,562.33Z" transform="translate(469.86 8.31)"/><path class="cls-17" d="M10.2,508.37c-23.06-23.06-41-42.57-40-43.56s20.5,16.9,43.57,40,41,42.57,40,43.56S33.27,531.44,10.2,508.37Z" transform="translate(469.86 8.31)"/><path class="cls-17" d="M59.06,540.4c-23.07-23.07-41-42.57-40-43.57s20.5,16.9,43.56,40,41,42.57,40,43.57S82.13,563.46,59.06,540.4Z" transform="translate(469.86 8.31)"/><path class="cls-17" d="M286.58,554.94c-23.07-23.07-41-42.58-40-43.57s20.5,16.9,43.57,40,41,42.57,40,43.56S309.65,578,286.58,554.94Z" transform="translate(469.86 8.31)"/><path class="cls-17" d="M296,584.41c-23.07-23.07-41-42.58-40-43.57s20.5,16.9,43.57,40,41,42.57,40,43.57S319,607.47,296,584.41Z" transform="translate(469.86 8.31)"/><path class="cls-17" d="M142.77,553.07c-23.06-23.07-41-42.58-40-43.57s20.49,16.9,43.56,40,41,42.57,40,43.57S165.84,576.13,142.77,553.07Z" transform="translate(469.86 8.31)"/><path class="cls-17" d="M173.24,604.11c-23.07-23.06-41-42.57-40-43.56s20.5,16.9,43.57,40,41,42.57,40,43.56S196.31,627.18,173.24,604.11Z" transform="translate(469.86 8.31)"/><path class="cls-17" d="M113.19,579.06c-23.06-23.07-41-42.58-40-43.57s20.5,16.9,43.57,40,41,42.57,40,43.57S136.26,602.12,113.19,579.06Z" transform="translate(469.86 8.31)"/><path class="cls-17" d="M409.32,549.78c-23.06-23.07-41-42.57-40-43.57s20.49,16.91,43.56,40,41,42.58,40,43.57S432.39,572.85,409.32,549.78Z" transform="translate(469.86 8.31)"/><path class="cls-17" d="M169.39,549.69c-23.07-23.07-41-42.57-40-43.56s20.49,16.9,43.56,40,41,42.57,40,43.56S192.45,572.76,169.39,549.69Z" transform="translate(469.86 8.31)"/><path class="cls-17" d="M220.92,565.23c-23.06-23.07-41-42.57-40-43.56s20.5,16.9,43.57,40,41,42.57,40,43.56S244,588.3,220.92,565.23Z" transform="translate(469.86 8.31)"/><path class="cls-17" d="M254.15,578.37c-23.07-23.07-41-42.57-40-43.56s20.5,16.9,43.56,40,41,42.57,40,43.56S277.22,601.44,254.15,578.37Z" transform="translate(469.86 8.31)"/><path class="cls-17" d="M195.34,558.41c-23.07-23.06-41-42.57-40-43.56s20.5,16.9,43.57,40,41,42.57,40,43.56S218.41,581.48,195.34,558.41Z" transform="translate(469.86 8.31)"/><path class="cls-17" d="M320.41,551.91c-23.07-23.06-41-42.57-40-43.56s20.5,16.9,43.57,40,41,42.57,40,43.56S343.48,575,320.41,551.91Z" transform="translate(469.86 8.31)"/><path class="cls-17" d="M226.26,457.22c-23.07-23.07-41-42.57-40-43.57s20.5,16.91,43.57,40" transform="translate(469.86 8.31)"/><path class="cls-17" d="M269.83,497.19" transform="translate(469.86 8.31)"/><path class="cls-17" d="M390.16,567.4c-23.07-23.07-41-42.58-40-43.57s20.5,16.9,43.57,40,41,42.57,40,43.57S413.23,590.46,390.16,567.4Z" transform="translate(469.86 8.31)"/><path class="cls-17" d="M307.1,501.21c-23.07-23.06-41-42.57-40-43.56s20.5,16.9,43.57,40,41,42.57,40,43.56S330.17,524.28,307.1,501.21Z" transform="translate(469.86 8.31)"/><path class="cls-17" d="M395.31,591.5c-23.07-23.07-41-42.57-40-43.57s20.5,16.91,43.56,40,41,42.57,40,43.57S418.38,614.57,395.31,591.5Z" transform="translate(469.86 8.31)"/><path class="cls-17" d="M482.92,572.12c-23.07-23.06-41-42.57-40-43.56s20.5,16.9,43.56,40,41,42.57,40,43.56S506,595.19,482.92,572.12Z" transform="translate(469.86 8.31)"/><path class="cls-17" d="M463.85,585c-23.06-23.07-41-42.57-40-43.57s20.49,16.91,43.56,40,41,42.58,40,43.57S486.92,608.06,463.85,585Z" transform="translate(469.86 8.31)"/><path class="cls-17" d="M482.74,553.79c-23.07-23.06-41-42.57-40-43.56s20.5,16.9,43.56,40,41,42.57,40,43.56S505.81,576.86,482.74,553.79Z" transform="translate(469.86 8.31)"/><path class="cls-17" d="M514.93,554.77c-23.07-23.07-41-42.58-40-43.57s20.5,16.9,43.56,40,41,42.57,40,43.56S538,577.83,514.93,554.77Z" transform="translate(469.86 8.31)"/><path class="cls-17" d="M303.29,478.34c-23.06-23.06-41-42.57-40-43.56s20.49,16.9,43.56,40,41,42.57,40,43.56S326.36,501.41,303.29,478.34Z" transform="translate(469.86 8.31)"/><path class="cls-17" d="M310,519.71c-23.07-23.07-41-42.57-40-43.56s20.5,16.9,43.56,40,41,42.57,40,43.56S333.09,542.78,310,519.71Z" transform="translate(469.86 8.31)"/><path class="cls-17" d="M212.9,520.15c-23.06-23.07-41-42.57-40-43.56s20.5,16.9,43.57,40,41,42.57,40,43.56S236,543.22,212.9,520.15Z" transform="translate(469.86 8.31)"/><path class="cls-17" d="M166,492.15c-23.06-23.07-41-42.58-40-43.57s20.5,16.9,43.57,40,41,42.57,40,43.57S189.06,515.21,166,492.15Z" transform="translate(469.86 8.31)"/><path class="cls-17" d="M441.64,495.65c-23.07-23.07-41-42.58-40-43.57s20.49,16.9,43.56,40,41,42.57,40,43.57S464.7,518.71,441.64,495.65Z" transform="translate(469.86 8.31)"/><path class="cls-17" d="M186.64,581.26c-23.07-23.07-41-42.57-40-43.57s20.49,16.91,43.56,40,41,42.57,40,43.57S209.7,604.33,186.64,581.26Z" transform="translate(469.86 8.31)"/><path class="cls-17" d="M106,602.79c-23.07-23.07-41-42.57-40-43.57s20.5,16.91,43.56,40,41,42.57,40,43.57S129.07,625.86,106,602.79Z" transform="translate(469.86 8.31)"/></g></g></g></g></g></svg>