<svg id="svg" xmlns="http://www.w3.org/2000/svg" xmlns:xlink="http://www.w3.org/1999/xlink" width="203" height="44" viewBox="0, 0, 400,86.61290322580646"><g id="svgg"><path id="path0" d="M216.500 0.832 C 215.996 1.012,214.646 1.427,213.500 1.756 C 212.354 2.085,211.117 2.455,210.750 2.578 C 210.383 2.702,209.408 3.011,208.583 3.266 C 206.225 3.993,205.509 5.061,206.036 7.064 C 206.183 7.624,206.329 8.187,206.360 8.313 C 206.416 8.539,203.704 9.506,202.083 9.839 C 201.717 9.914,199.017 10.705,196.083 11.597 C 189.909 13.473,187.991 14.041,185.917 14.608 C 185.092 14.834,183.292 15.362,181.917 15.782 C 180.542 16.203,178.704 16.754,177.833 17.008 C 169.372 19.475,169.000 19.670,169.000 21.653 C 169.000 22.243,169.547 24.671,169.756 25.009 C 169.795 25.073,169.384 25.249,168.844 25.400 C 162.707 27.122,162.182 27.699,163.325 31.464 C 165.488 38.590,165.409 38.371,165.973 38.785 C 166.971 39.516,167.854 39.564,169.807 38.993 C 173.998 37.767,173.593 37.700,174.250 39.726 C 175.267 42.857,176.161 43.082,180.994 41.426 C 181.678 41.192,182.319 41.000,182.418 41.000 C 182.571 41.000,184.930 40.294,189.667 38.830 C 190.262 38.646,190.856 38.496,190.985 38.498 C 191.115 38.499,191.602 38.387,192.069 38.248 C 192.535 38.110,193.854 37.730,195.000 37.405 C 196.146 37.080,198.096 36.485,199.333 36.083 C 203.530 34.719,207.062 33.667,207.440 33.667 C 207.783 33.667,208.054 33.582,209.083 33.153 C 209.505 32.977,213.559 31.830,213.583 31.880 C 213.593 31.900,213.733 32.352,213.895 32.884 C 214.597 35.190,216.066 35.816,218.721 34.938 C 220.300 34.415,222.129 33.872,222.750 33.740 C 225.877 33.079,228.492 31.996,228.897 31.195 C 229.550 29.905,229.457 29.485,226.468 20.167 C 225.641 17.587,225.000 15.391,225.000 15.135 C 225.000 15.029,224.705 13.999,224.344 12.846 C 223.983 11.693,223.486 10.075,223.238 9.250 C 222.991 8.425,222.652 7.337,222.486 6.833 C 222.319 6.329,221.911 5.027,221.579 3.939 C 220.578 0.654,219.262 -0.151,216.500 0.832 M216.881 7.709 C 217.262 9.038,218.150 11.899,219.171 15.083 C 219.612 16.458,220.130 18.221,220.322 19.000 C 220.514 19.779,220.967 21.354,221.330 22.500 C 222.138 25.057,222.988 27.908,222.947 27.922 C 221.616 28.391,219.459 29.022,219.101 29.048 C 218.563 29.087,218.679 29.358,217.258 24.750 C 216.919 23.650,216.345 21.830,215.984 20.705 C 215.623 19.580,215.213 18.155,215.073 17.538 C 214.934 16.921,214.603 15.742,214.337 14.917 C 212.865 10.350,212.196 8.072,212.300 7.981 C 212.364 7.924,213.129 7.672,214.000 7.419 C 214.871 7.167,215.771 6.900,216.000 6.827 C 216.229 6.753,216.454 6.687,216.500 6.680 C 216.546 6.673,216.717 7.136,216.881 7.709 M209.211 17.377 C 209.831 19.324,210.337 21.027,210.336 21.163 C 210.334 21.298,210.678 22.524,211.100 23.888 C 211.522 25.251,211.803 26.426,211.725 26.498 C 211.563 26.649,205.255 28.596,203.750 28.959 C 203.200 29.092,201.550 29.561,200.083 30.002 C 198.617 30.443,196.367 31.117,195.083 31.500 C 193.800 31.883,191.700 32.523,190.417 32.922 C 189.133 33.322,187.183 33.882,186.083 34.167 C 184.983 34.452,183.035 35.019,181.755 35.426 C 180.474 35.833,179.336 36.167,179.227 36.167 C 179.018 36.167,178.772 35.492,177.680 31.917 C 177.316 30.725,176.893 29.375,176.740 28.917 C 176.588 28.458,176.403 27.858,176.330 27.583 C 176.256 27.308,175.960 26.342,175.671 25.436 C 175.038 23.451,174.747 23.736,178.583 22.588 C 180.325 22.067,182.162 21.502,182.667 21.332 C 183.171 21.162,184.146 20.861,184.833 20.663 C 185.521 20.466,186.908 20.056,187.917 19.752 C 188.925 19.448,190.500 19.001,191.417 18.759 C 192.333 18.517,193.908 18.063,194.917 17.749 C 195.925 17.435,197.275 17.026,197.917 16.841 C 198.558 16.655,199.796 16.277,200.667 16.001 C 203.809 15.006,205.527 14.500,205.803 14.489 C 205.957 14.483,206.496 14.338,207.000 14.167 C 207.504 13.995,207.954 13.851,208.000 13.846 C 208.046 13.841,208.591 15.430,209.211 17.377 M171.680 31.584 C 171.848 32.126,171.970 32.577,171.951 32.585 C 171.932 32.594,171.504 32.733,171.000 32.895 C 170.496 33.057,170.006 33.223,169.910 33.264 C 169.761 33.327,169.062 31.192,169.199 31.092 C 169.325 31.001,171.099 30.544,171.229 30.569 C 171.310 30.585,171.513 31.041,171.680 31.584 M194.647 42.001 C 194.479 42.099,193.610 44.503,192.346 48.371 C 191.228 51.788,189.192 57.996,187.821 62.167 C 186.449 66.337,185.332 69.825,185.337 69.917 C 185.343 70.008,184.243 73.383,182.894 77.417 C 181.021 83.017,180.468 84.858,180.557 85.208 L 180.673 85.667 182.823 85.667 C 184.005 85.667,185.090 85.622,185.233 85.567 C 185.401 85.502,185.978 83.985,186.853 81.314 C 187.998 77.815,188.268 77.148,188.564 77.076 C 188.758 77.029,192.887 77.012,197.741 77.037 L 206.564 77.083 207.917 81.226 C 209.492 86.048,209.157 85.690,212.036 85.630 L 214.250 85.583 214.302 85.132 C 214.332 84.873,213.454 82.032,212.241 78.466 C 211.079 75.047,210.075 71.950,210.010 71.583 C 209.901 70.973,206.884 61.897,205.558 58.188 C 205.251 57.330,205.000 56.482,205.000 56.305 C 205.000 56.043,201.590 45.753,200.596 43.014 C 200.156 41.803,200.236 41.833,197.438 41.838 C 196.051 41.841,194.795 41.914,194.647 42.001 M198.905 52.802 C 199.691 55.215,200.333 57.293,200.333 57.422 C 200.333 57.550,200.736 58.876,201.229 60.369 C 203.443 67.078,205.333 72.863,205.333 72.929 C 205.333 72.968,201.778 73.000,197.434 73.000 L 189.534 73.000 189.924 71.542 C 190.138 70.740,191.144 67.571,192.159 64.500 C 193.173 61.429,194.236 58.129,194.519 57.167 C 195.410 54.142,197.391 48.089,197.435 48.256 C 197.458 48.345,198.120 50.390,198.905 52.802 " stroke="none" fill="#2c3454" fill-rule="evenodd"></path><path id="path1" d="M12.250 41.685 C 2.257 43.126,-1.540 53.458,5.444 60.200 C 6.134 60.866,8.742 62.500,9.114 62.500 C 9.239 62.500,9.846 62.753,10.462 63.063 C 11.079 63.373,12.258 63.905,13.083 64.246 C 13.908 64.586,14.883 65.000,15.250 65.165 C 15.617 65.330,17.097 65.993,18.539 66.639 C 23.848 69.018,25.703 70.734,26.200 73.729 C 27.106 79.197,21.789 82.824,14.388 81.785 C 8.706 80.987,5.675 78.105,5.669 73.492 C 5.666 71.653,5.683 71.666,3.425 71.669 C 0.969 71.673,1.075 71.564,1.121 74.018 C 1.193 77.905,2.093 79.971,4.744 82.339 C 11.128 88.039,25.098 87.065,29.364 80.621 C 31.289 77.713,31.456 72.396,29.720 69.250 C 28.614 67.244,24.425 64.101,21.288 62.923 C 20.717 62.709,19.575 62.234,18.750 61.868 C 17.925 61.502,16.275 60.788,15.083 60.281 C 8.681 57.559,7.214 56.352,6.672 53.362 C 5.834 48.740,9.409 45.644,15.583 45.644 C 22.002 45.644,25.642 48.431,25.952 53.583 C 26.071 55.555,26.005 55.500,28.259 55.500 C 30.763 55.500,30.748 55.514,30.609 53.173 C 30.259 47.297,27.521 43.927,21.738 42.251 C 19.248 41.530,15.060 41.280,12.250 41.685 M269.605 41.749 C 268.062 42.069,266.946 42.443,265.750 43.040 C 265.200 43.315,264.590 43.614,264.394 43.704 C 262.325 44.662,259.834 48.081,258.896 51.250 C 258.459 52.725,258.338 73.350,258.754 75.403 C 261.392 88.420,281.785 90.145,286.736 77.769 C 287.713 75.327,288.378 64.069,287.592 63.282 C 287.230 62.921,273.724 62.842,273.367 63.200 C 273.236 63.330,273.167 64.015,273.167 65.167 C 273.167 67.524,272.715 67.333,278.297 67.333 L 283.026 67.333 282.965 71.292 C 282.909 74.937,282.874 75.326,282.525 76.204 C 279.358 84.178,266.854 83.841,263.683 75.696 L 263.250 74.583 263.198 64.333 C 263.161 57.113,263.203 53.788,263.337 53.083 C 263.643 51.487,265.455 48.000,265.979 48.000 C 266.058 48.000,266.614 47.671,267.214 47.268 C 270.593 45.002,275.908 45.064,279.341 47.410 C 281.641 48.982,282.774 51.122,282.989 54.305 C 283.131 56.394,283.050 56.327,285.446 56.331 C 288.015 56.334,288.111 56.185,287.653 52.894 C 287.128 49.121,284.470 44.846,281.945 43.713 C 281.746 43.624,281.021 43.283,280.333 42.955 C 277.602 41.653,272.713 41.104,269.605 41.749 M35.533 42.200 C 35.291 42.442,35.261 45.460,35.496 45.833 C 35.631 46.047,36.557 46.090,41.826 46.131 L 47.999 46.178 48.041 65.798 L 48.083 85.417 50.237 85.464 C 51.848 85.499,52.425 85.457,52.526 85.297 C 52.601 85.179,52.663 76.327,52.664 65.625 L 52.667 46.167 58.905 46.167 C 64.354 46.167,65.176 46.134,65.405 45.905 C 65.714 45.596,65.782 42.860,65.494 42.322 C 65.281 41.923,35.930 41.803,35.533 42.200 M74.006 42.321 C 73.717 42.862,73.770 85.073,74.060 85.314 C 74.225 85.451,78.055 85.490,88.185 85.459 L 102.083 85.417 102.083 83.500 L 102.083 81.583 90.375 81.541 L 78.667 81.498 78.667 73.582 L 78.667 65.667 86.800 65.667 C 96.207 65.667,95.334 65.870,95.331 63.675 C 95.327 61.351,96.279 61.590,86.839 61.537 L 78.667 61.491 78.667 53.829 L 78.667 46.167 89.989 46.167 C 97.040 46.167,101.475 46.105,101.745 46.002 L 102.178 45.837 102.130 43.960 L 102.083 42.083 88.131 42.041 C 74.471 41.999,74.176 42.005,74.006 42.321 M111.410 42.208 C 111.367 42.323,111.350 52.092,111.374 63.917 L 111.417 85.417 124.898 85.459 C 134.720 85.490,138.442 85.451,138.607 85.314 C 138.905 85.066,138.928 81.994,138.633 81.700 C 138.482 81.548,135.719 81.500,127.217 81.500 L 116.000 81.500 116.000 61.950 C 116.000 46.967,115.953 42.353,115.800 42.200 C 115.514 41.914,111.519 41.921,111.410 42.208 M146.577 42.208 C 146.533 42.323,146.517 52.092,146.540 63.917 L 146.583 85.417 160.065 85.459 C 169.887 85.490,173.608 85.451,173.773 85.314 C 174.092 85.050,174.094 81.952,173.776 81.688 C 173.617 81.557,170.301 81.490,162.401 81.460 L 151.250 81.417 151.208 61.933 C 151.177 47.871,151.113 42.387,150.979 42.225 C 150.722 41.915,146.694 41.900,146.577 42.208 M222.033 42.200 C 221.799 42.434,221.741 84.929,221.974 85.297 C 222.075 85.457,222.652 85.499,224.263 85.464 L 226.417 85.417 226.460 75.625 L 226.503 65.833 231.890 65.833 L 237.278 65.833 238.627 68.625 C 239.369 70.160,240.309 72.167,240.716 73.083 C 241.123 74.000,242.320 76.512,243.375 78.667 C 244.430 80.821,245.454 82.998,245.651 83.505 C 245.848 84.012,246.157 84.670,246.338 84.968 L 246.668 85.510 248.873 85.463 C 251.874 85.400,252.008 86.220,247.489 77.024 C 246.153 74.307,244.774 71.446,244.423 70.667 C 244.073 69.887,243.341 68.406,242.798 67.374 C 242.100 66.048,241.875 65.478,242.030 65.429 C 242.151 65.391,242.662 65.232,243.167 65.076 C 247.958 63.597,250.569 59.686,250.564 54.000 C 250.558 47.569,247.324 43.343,241.565 42.241 C 239.880 41.919,222.352 41.882,222.033 42.200 M307.931 42.364 C 307.790 42.564,307.145 44.383,306.497 46.406 C 305.849 48.428,304.196 53.496,302.824 57.667 C 301.453 61.837,300.333 65.325,300.336 65.417 C 300.340 65.508,299.218 68.996,297.843 73.167 C 294.634 82.904,294.167 84.410,294.167 85.008 L 294.167 85.500 296.413 85.500 C 299.065 85.500,298.892 85.627,299.595 83.167 C 299.844 82.296,300.358 80.571,300.739 79.333 L 301.430 77.083 310.835 77.083 L 320.241 77.083 320.360 77.750 C 320.527 78.681,322.613 84.984,322.848 85.268 C 323.152 85.634,327.425 85.602,327.567 85.232 C 327.624 85.084,327.074 83.153,326.346 80.940 C 325.618 78.727,323.895 73.467,322.517 69.250 C 321.140 65.033,319.030 58.621,317.830 55.000 C 316.629 51.379,315.494 47.892,315.307 47.250 C 314.652 45.001,313.789 42.415,313.625 42.208 C 313.291 41.788,308.237 41.926,307.931 42.364 M333.673 42.322 C 333.578 42.500,333.500 43.287,333.500 44.072 C 333.500 46.393,332.231 46.167,345.264 46.167 L 356.361 46.167 356.023 46.713 C 355.838 47.013,355.587 47.444,355.466 47.671 C 355.345 47.898,354.140 49.741,352.789 51.767 C 351.439 53.794,350.333 55.494,350.333 55.545 C 350.333 55.597,349.190 57.370,347.792 59.484 C 341.169 69.502,340.333 70.777,340.333 70.866 C 340.333 70.919,339.311 72.490,338.062 74.356 C 336.812 76.223,335.294 78.575,334.687 79.583 L 333.583 81.417 333.527 83.108 C 333.492 84.151,333.543 84.935,333.658 85.150 L 333.845 85.500 347.667 85.500 C 363.612 85.500,361.833 85.751,361.833 83.500 C 361.833 81.259,363.231 81.500,350.230 81.500 C 343.963 81.500,338.997 81.436,339.028 81.356 C 339.168 80.993,341.447 77.275,341.688 77.015 C 341.838 76.855,342.654 75.642,343.503 74.320 C 345.869 70.634,347.777 67.720,348.784 66.250 C 349.286 65.517,349.784 64.729,349.890 64.499 C 350.082 64.084,352.879 59.794,357.477 52.860 C 358.794 50.874,359.940 49.071,360.024 48.852 C 360.108 48.633,360.373 48.220,360.614 47.935 C 361.702 46.646,362.290 43.497,361.661 42.322 C 361.390 41.816,333.943 41.816,333.673 42.322 M370.700 42.200 C 370.409 42.491,370.409 85.009,370.700 85.300 C 371.046 85.646,398.766 85.583,398.899 85.236 C 399.106 84.696,399.009 81.881,398.776 81.688 C 398.617 81.556,395.170 81.490,386.901 81.459 L 375.250 81.417 375.250 73.583 L 375.250 65.750 383.500 65.708 C 393.091 65.659,392.168 65.884,392.164 63.593 C 392.160 61.363,393.117 61.590,383.506 61.537 L 375.167 61.491 375.167 53.832 L 375.167 46.173 386.923 46.128 C 397.158 46.089,398.699 46.051,398.837 45.833 C 399.073 45.460,399.042 42.442,398.800 42.200 C 398.510 41.910,370.990 41.910,370.700 42.200 M240.752 46.466 C 241.491 46.722,242.351 47.186,243.593 48.000 C 246.707 50.039,246.771 57.092,243.702 59.865 C 241.558 61.802,240.969 61.917,233.167 61.917 L 226.583 61.917 226.540 54.042 L 226.497 46.167 233.207 46.172 C 239.131 46.177,240.014 46.211,240.752 46.466 M315.413 62.250 C 315.547 62.800,316.372 65.419,317.245 68.070 C 318.119 70.721,318.833 72.952,318.833 73.028 C 318.833 73.172,302.951 73.229,302.808 73.086 C 302.763 73.041,303.238 71.447,303.863 69.544 C 304.488 67.641,304.999 65.982,304.999 65.858 C 305.000 65.734,306.125 62.209,307.500 58.025 C 308.876 53.840,310.001 50.300,310.000 50.157 C 310.000 50.015,310.163 49.415,310.363 48.824 L 310.726 47.750 312.948 54.500 C 314.170 58.212,315.279 61.700,315.413 62.250 " stroke="none" fill="#f4fcfc" fill-rule="evenodd"></path></g></svg>