<svg id="svg" xmlns="http://www.w3.org/2000/svg" xmlns:xlink="http://www.w3.org/1999/xlink" width="400" height="85.36098923015557" viewBox="0, 0, 400,85.36098923015557"><g id="svgg"><path id="path0" d="M14.417 40.917 C 4.564 42.263,1.214 54.423,9.213 59.806 C 11.312 61.218,12.620 61.862,16.750 63.511 C 26.450 67.385,29.654 70.302,28.865 74.543 C 28.057 78.888,23.544 81.236,17.417 80.501 C 11.609 79.805,8.500 76.936,8.500 72.273 C 8.500 70.405,8.621 70.500,6.250 70.500 C 3.837 70.500,4.000 70.339,4.002 72.726 C 4.012 80.734,10.654 85.401,20.966 84.646 C 30.749 83.930,36.332 76.296,32.593 68.750 C 31.683 66.914,27.840 63.333,26.779 63.333 C 26.650 63.333,26.358 63.186,26.130 63.007 C 25.581 62.575,20.657 60.279,19.310 59.827 C 12.274 57.464,9.441 54.998,9.460 51.250 C 9.481 47.021,12.644 44.642,18.244 44.643 C 24.613 44.645,28.667 47.896,28.667 53.002 C 28.667 54.473,28.707 54.500,30.938 54.500 C 33.430 54.500,33.415 54.515,33.272 52.163 C 32.947 46.815,30.245 43.332,24.917 41.392 C 23.124 40.740,17.561 40.488,14.417 40.917 M38.006 41.322 C 37.718 41.860,37.786 44.596,38.095 44.905 C 38.324 45.133,39.124 45.167,44.345 45.167 L 50.332 45.167 50.374 64.625 L 50.417 84.083 52.570 84.130 C 54.181 84.165,54.758 84.123,54.859 83.964 C 54.934 83.846,54.996 75.069,54.997 64.458 L 55.000 45.167 61.155 45.167 C 66.528 45.167,67.343 45.133,67.571 44.905 C 67.880 44.596,67.949 41.860,67.661 41.322 C 67.390 40.816,38.277 40.816,38.006 41.322 M76.006 41.322 C 75.734 41.831,75.769 83.515,76.042 83.886 C 76.235 84.150,77.226 84.167,90.083 84.127 L 103.917 84.083 103.917 82.167 L 103.917 80.250 92.292 80.207 L 80.667 80.164 80.667 72.334 L 80.667 64.503 88.875 64.460 L 97.083 64.417 97.130 62.540 L 97.178 60.663 96.745 60.498 C 96.482 60.398,93.236 60.333,88.489 60.333 L 80.667 60.333 80.667 52.750 L 80.667 45.167 91.906 45.167 C 98.805 45.167,103.310 45.104,103.572 45.004 C 104.058 44.819,104.248 41.648,103.800 41.200 C 103.404 40.804,76.219 40.923,76.006 41.322 M113.186 41.226 C 113.049 41.392,113.010 47.154,113.041 62.768 L 113.083 84.083 126.398 84.126 C 136.097 84.157,139.775 84.118,139.940 83.981 C 140.238 83.733,140.261 80.661,139.967 80.367 C 139.815 80.215,137.089 80.167,128.717 80.167 L 117.667 80.167 117.667 60.783 C 117.667 45.930,117.620 41.353,117.467 41.200 C 117.169 40.902,113.436 40.925,113.186 41.226 M148.020 41.226 C 147.882 41.392,147.843 47.154,147.874 62.768 L 147.917 84.083 161.323 84.126 C 171.938 84.160,174.757 84.125,174.862 83.959 C 175.079 83.617,175.027 80.594,174.800 80.367 C 174.648 80.215,171.922 80.167,163.550 80.167 L 152.500 80.167 152.500 60.783 C 152.500 45.930,152.453 41.353,152.300 41.200 C 152.002 40.902,148.270 40.925,148.020 41.226 M222.541 41.192 C 222.300 41.433,222.234 83.585,222.474 83.964 C 222.575 84.123,223.152 84.165,224.763 84.130 L 226.917 84.083 226.960 74.375 L 227.003 64.667 232.295 64.667 L 237.588 64.667 238.549 66.625 C 239.078 67.702,239.508 68.637,239.505 68.702 C 239.502 68.767,240.325 70.500,241.333 72.554 C 242.342 74.607,243.175 76.391,243.185 76.519 C 243.195 76.646,244.038 78.400,245.060 80.417 L 246.917 84.083 249.081 84.083 C 252.002 84.083,252.045 84.589,248.507 77.417 C 247.513 75.400,245.878 72.063,244.876 70.000 C 241.951 63.982,242.022 64.167,242.633 64.167 C 244.804 64.167,248.998 60.635,250.054 57.918 C 252.726 51.041,249.242 43.357,242.554 41.382 C 241.284 41.007,222.901 40.833,222.541 41.192 M255.716 41.278 C 255.611 41.552,256.374 44.017,260.014 55.167 C 261.016 58.237,261.836 60.845,261.835 60.960 C 261.834 61.076,262.696 63.767,263.750 66.942 C 264.804 70.116,265.667 72.804,265.667 72.915 C 265.667 73.126,267.538 78.860,268.701 82.213 L 269.382 84.176 271.732 84.129 L 274.083 84.083 275.386 80.083 C 276.103 77.883,277.502 73.571,278.494 70.500 C 279.487 67.429,281.165 62.254,282.224 59.000 C 283.284 55.746,284.184 52.896,284.225 52.667 C 284.266 52.438,285.106 49.858,286.092 46.935 C 287.440 42.938,287.843 41.553,287.716 41.351 C 287.483 40.981,283.487 40.864,283.193 41.219 C 282.983 41.471,280.667 48.588,280.667 48.979 C 280.667 49.180,279.284 53.549,277.156 60.074 C 276.979 60.619,276.833 61.174,276.833 61.306 C 276.833 61.439,276.048 63.957,275.087 66.901 C 274.127 69.846,273.292 72.516,273.233 72.836 C 272.946 74.387,271.777 77.581,271.649 77.165 C 271.579 76.937,270.992 75.108,270.344 73.102 C 269.696 71.096,269.167 69.341,269.167 69.203 C 269.167 69.064,268.520 66.956,267.730 64.517 C 266.205 59.814,265.701 58.197,265.254 56.583 C 265.102 56.033,264.312 53.521,263.498 51.000 C 262.684 48.479,261.829 45.704,261.598 44.833 C 261.028 42.681,260.536 41.293,260.289 41.136 C 259.843 40.853,255.832 40.977,255.716 41.278 M295.611 41.111 C 295.550 41.172,295.500 50.885,295.500 62.694 L 295.500 84.167 297.649 84.167 C 299.455 84.167,299.814 84.125,299.899 83.903 C 300.109 83.355,300.012 41.412,299.800 41.200 C 299.586 40.986,295.816 40.906,295.611 41.111 M311.339 41.322 C 311.051 41.862,311.104 83.740,311.393 83.981 C 311.558 84.118,315.367 84.157,325.435 84.126 L 339.250 84.083 339.299 82.500 C 339.326 81.629,339.306 80.748,339.254 80.542 L 339.160 80.167 327.580 80.167 L 316.000 80.167 316.000 72.333 L 316.000 64.500 324.133 64.500 C 333.540 64.500,332.668 64.704,332.664 62.508 C 332.660 60.184,333.612 60.424,324.173 60.369 L 316.000 60.321 316.000 52.744 L 316.000 45.167 327.239 45.167 C 334.138 45.167,338.643 45.104,338.906 45.004 C 339.392 44.819,339.581 41.648,339.133 41.200 C 338.737 40.804,311.553 40.923,311.339 41.322 M345.169 41.248 C 344.955 41.505,344.965 41.545,347.098 48.722 C 347.503 50.082,347.836 51.319,347.838 51.472 C 347.844 51.792,348.244 53.207,350.232 59.944 C 351.021 62.618,351.667 64.920,351.667 65.060 C 351.667 65.200,352.492 68.142,353.500 71.598 C 354.508 75.054,355.333 77.995,355.333 78.132 C 355.333 78.450,356.814 83.485,357.023 83.875 C 357.220 84.245,361.172 84.319,361.457 83.958 C 361.548 83.844,361.865 82.737,362.163 81.500 C 362.461 80.262,363.104 77.712,363.593 75.833 C 364.444 72.561,365.495 68.425,366.982 62.500 C 367.361 60.987,368.232 57.650,368.916 55.083 C 369.601 52.517,370.162 50.195,370.164 49.925 C 370.165 49.646,370.227 49.502,370.306 49.592 C 370.459 49.765,373.910 62.528,374.078 63.543 C 374.135 63.887,374.935 66.925,375.855 70.293 C 376.775 73.661,377.672 77.092,377.848 77.917 C 378.289 79.982,379.329 83.705,379.537 83.958 C 379.657 84.105,380.341 84.167,381.862 84.167 L 384.017 84.167 384.239 83.625 C 384.360 83.327,384.593 82.521,384.757 81.833 C 385.169 80.095,385.707 78.097,386.393 75.750 C 387.899 70.605,388.833 67.272,388.833 67.046 C 388.833 66.911,389.367 64.951,390.019 62.691 C 391.219 58.531,392.265 54.741,392.716 52.917 C 392.852 52.367,393.609 49.685,394.398 46.958 C 395.904 41.754,395.954 41.521,395.633 41.200 C 395.350 40.916,391.602 40.924,391.373 41.208 C 391.203 41.420,389.260 48.183,388.799 50.167 C 388.660 50.762,387.824 53.744,386.940 56.792 C 386.056 59.841,385.333 62.452,385.333 62.596 C 385.333 62.740,384.762 64.821,384.065 67.220 C 383.367 69.620,382.724 71.846,382.636 72.167 C 382.547 72.487,382.320 73.275,382.131 73.917 L 381.787 75.083 381.573 74.500 C 381.455 74.179,381.353 73.722,381.346 73.485 C 381.335 73.122,379.512 66.315,378.761 63.833 C 378.443 62.785,377.567 59.417,377.352 58.417 C 377.186 57.647,376.805 56.259,375.225 50.667 C 374.901 49.521,374.448 47.833,374.218 46.917 C 373.239 43.017,372.790 41.404,372.630 41.208 C 372.334 40.847,368.220 40.921,368.023 41.292 C 367.872 41.576,366.962 45.077,366.431 47.417 C 366.286 48.058,365.717 50.233,365.167 52.250 C 364.616 54.267,363.860 57.154,363.485 58.667 C 363.111 60.179,362.402 62.954,361.910 64.833 C 359.109 75.531,359.120 75.497,358.916 74.208 C 358.862 73.865,358.099 71.071,357.221 68.000 C 356.343 64.929,355.510 61.929,355.371 61.333 C 355.124 60.275,353.613 54.878,352.093 49.624 C 351.675 48.179,351.333 46.880,351.333 46.736 C 351.333 46.441,350.077 41.954,349.832 41.375 C 349.630 40.896,345.553 40.784,345.169 41.248 M240.845 45.435 C 246.489 47.108,248.262 54.675,243.970 58.767 C 242.044 60.602,240.635 60.863,233.000 60.799 L 227.083 60.750 227.040 52.958 L 226.997 45.167 233.468 45.167 C 238.932 45.167,240.080 45.208,240.845 45.435 " stroke="none" fill="#fcfcfc" fill-rule="evenodd"></path><path id="path1" d="M215.412 0.841 C 215.356 0.932,215.240 0.962,215.155 0.910 C 215.070 0.857,215.000 0.893,215.000 0.990 C 215.000 1.087,214.884 1.167,214.741 1.167 C 214.599 1.167,213.793 1.363,212.950 1.603 C 212.106 1.843,211.004 2.158,210.500 2.301 C 209.996 2.445,209.546 2.605,209.500 2.656 C 209.454 2.708,209.304 2.762,209.167 2.776 C 209.029 2.791,208.467 2.957,207.917 3.144 C 207.367 3.332,206.584 3.581,206.177 3.697 C 204.501 4.174,203.962 5.521,204.595 7.653 C 204.909 8.710,205.011 8.593,203.401 9.013 C 202.677 9.202,202.058 9.427,202.028 9.512 C 201.997 9.597,201.853 9.667,201.707 9.667 C 201.228 9.667,196.519 11.063,196.593 11.183 C 196.633 11.247,196.347 11.333,195.958 11.373 C 195.038 11.468,191.818 12.333,191.519 12.565 C 191.392 12.664,191.205 12.750,191.102 12.757 C 191.000 12.764,190.804 12.812,190.667 12.865 C 190.529 12.918,189.929 13.090,189.333 13.247 C 188.737 13.404,187.838 13.669,187.333 13.835 C 186.829 14.001,186.173 14.187,185.875 14.249 C 185.577 14.310,185.333 14.429,185.333 14.513 C 185.333 14.598,185.178 14.667,184.989 14.667 C 184.800 14.667,184.491 14.749,184.302 14.850 C 184.114 14.951,183.706 15.033,183.396 15.033 C 183.087 15.033,182.833 15.105,182.833 15.193 C 182.833 15.281,182.771 15.315,182.695 15.268 C 182.529 15.165,179.714 15.922,179.442 16.142 C 179.336 16.228,178.800 16.416,178.250 16.561 C 175.195 17.367,174.079 17.705,173.988 17.853 C 173.932 17.944,173.818 17.996,173.735 17.969 C 173.651 17.943,173.358 18.004,173.083 18.106 C 172.128 18.460,170.627 18.862,170.068 18.914 C 168.048 19.102,167.349 20.831,168.156 23.640 C 168.627 25.280,168.755 25.126,166.399 25.751 C 165.446 26.003,164.667 26.256,164.666 26.313 C 164.666 26.370,164.422 26.433,164.125 26.454 C 163.175 26.519,161.999 27.376,161.670 28.241 C 161.448 28.825,161.452 29.667,161.677 29.667 C 161.774 29.667,161.809 29.738,161.755 29.825 C 161.639 30.013,161.960 31.410,162.256 32.000 C 162.467 32.422,162.839 33.597,163.576 36.167 C 163.799 36.946,163.988 37.508,163.995 37.417 C 164.002 37.325,164.144 37.550,164.311 37.917 C 164.693 38.758,165.299 39.083,166.484 39.083 C 167.536 39.083,169.693 38.511,169.545 38.271 C 169.490 38.182,169.601 38.154,169.799 38.206 C 169.993 38.257,170.173 38.247,170.200 38.184 C 170.228 38.122,170.699 37.947,171.247 37.797 C 172.308 37.505,172.490 37.571,172.500 38.250 C 172.513 39.208,173.473 41.500,173.860 41.500 C 173.963 41.500,174.132 41.617,174.237 41.761 C 174.617 42.280,177.500 42.170,177.500 41.636 C 177.500 41.546,177.594 41.504,177.708 41.544 C 177.823 41.583,178.228 41.482,178.610 41.320 C 178.991 41.158,179.666 40.974,180.110 40.913 C 181.024 40.785,182.506 40.397,183.250 40.091 C 183.864 39.838,184.370 39.685,186.917 38.985 C 188.017 38.683,188.972 38.356,189.039 38.259 C 189.106 38.163,189.163 38.149,189.164 38.229 C 189.166 38.309,189.271 38.288,189.398 38.182 C 189.525 38.077,190.106 37.888,190.689 37.762 C 191.273 37.637,192.125 37.445,192.583 37.337 C 194.519 36.880,200.043 35.155,200.176 34.967 C 200.227 34.895,200.602 34.764,201.009 34.676 C 201.417 34.588,202.162 34.394,202.667 34.245 C 203.171 34.096,203.958 33.875,204.417 33.754 C 204.875 33.633,206.487 33.181,208.000 32.748 C 209.512 32.315,210.938 31.921,211.167 31.872 C 211.396 31.823,211.629 31.714,211.685 31.628 C 211.741 31.543,211.834 31.774,211.893 32.141 C 211.952 32.509,212.117 32.927,212.261 33.070 C 212.404 33.214,212.474 33.407,212.417 33.500 C 212.359 33.593,212.429 33.714,212.573 33.769 C 212.716 33.824,212.833 33.976,212.833 34.107 C 212.833 34.237,213.002 34.412,213.208 34.495 C 213.415 34.578,213.513 34.650,213.426 34.656 C 213.340 34.662,213.415 34.777,213.593 34.911 C 213.962 35.191,215.919 35.273,215.751 35.002 C 215.693 34.907,215.760 34.880,215.910 34.937 C 216.054 34.992,216.268 34.957,216.387 34.858 C 216.505 34.760,217.048 34.558,217.593 34.410 C 219.920 33.776,220.296 33.671,221.167 33.410 C 221.671 33.259,222.346 33.072,222.667 32.994 C 226.378 32.101,227.167 31.523,227.167 29.696 C 227.167 28.911,226.346 25.690,226.042 25.280 C 225.962 25.172,225.724 24.483,225.513 23.750 C 225.302 23.017,225.026 22.114,224.898 21.744 C 224.771 21.375,224.667 20.941,224.667 20.781 C 224.667 20.620,224.543 20.210,224.391 19.870 C 224.239 19.529,224.130 19.185,224.148 19.105 C 224.165 19.025,224.073 18.613,223.942 18.188 C 223.810 17.764,223.495 16.685,223.241 15.792 C 222.986 14.898,222.721 14.167,222.652 14.167 C 222.583 14.167,222.477 13.923,222.416 13.625 C 222.355 13.327,222.086 12.363,221.819 11.482 C 221.552 10.601,221.333 9.774,221.333 9.646 C 221.333 9.517,221.185 9.134,221.003 8.795 C 220.821 8.456,220.628 7.857,220.573 7.464 C 220.433 6.459,219.638 3.594,219.482 3.531 C 219.411 3.502,219.393 3.371,219.444 3.239 C 219.494 3.108,219.456 3.000,219.359 3.000 C 219.261 3.000,219.134 2.743,219.075 2.430 C 218.966 1.850,218.201 1.011,217.690 0.912 C 217.540 0.883,217.417 0.846,217.417 0.830 C 217.417 0.703,215.490 0.714,215.412 0.841 M214.884 7.208 C 215.167 8.397,215.551 9.595,215.671 9.669 C 215.811 9.756,216.309 11.381,216.769 13.250 C 217.034 14.330,217.572 16.168,217.945 17.269 C 218.073 17.647,218.210 18.128,218.251 18.338 C 218.292 18.549,218.445 19.103,218.592 19.569 C 218.739 20.035,218.889 20.511,218.925 20.627 C 218.961 20.742,218.987 20.884,218.981 20.941 C 218.976 20.999,219.041 21.092,219.125 21.148 C 219.209 21.204,219.357 21.550,219.452 21.917 C 220.003 24.027,220.371 25.258,220.545 25.567 C 220.653 25.759,220.752 26.067,220.765 26.250 C 220.777 26.433,220.866 26.908,220.962 27.304 C 221.113 27.928,221.102 28.011,220.881 27.926 C 220.740 27.872,220.535 27.902,220.425 27.993 C 220.315 28.084,219.759 28.278,219.189 28.424 C 218.619 28.570,217.896 28.797,217.582 28.928 C 216.761 29.271,216.769 29.278,216.443 28.010 C 216.279 27.374,216.087 26.830,216.016 26.802 C 215.946 26.773,215.728 26.150,215.533 25.417 C 214.792 22.636,214.473 21.586,214.345 21.503 C 214.186 21.400,213.167 17.794,213.167 17.336 C 213.167 17.160,213.082 16.806,212.979 16.550 C 212.876 16.293,212.732 15.933,212.659 15.750 C 212.586 15.567,212.368 14.854,212.176 14.167 C 211.496 11.737,211.120 10.582,210.979 10.491 C 210.901 10.441,210.763 10.008,210.672 9.529 C 210.581 9.050,210.429 8.513,210.335 8.336 C 210.120 7.934,210.480 7.709,211.577 7.558 C 211.993 7.501,212.333 7.392,212.333 7.316 C 212.333 7.240,212.427 7.211,212.542 7.253 C 212.656 7.294,213.125 7.224,213.583 7.096 C 214.726 6.777,214.782 6.782,214.884 7.208 M206.800 15.416 C 207.016 16.240,207.257 16.953,207.335 17.001 C 207.413 17.050,207.631 17.650,207.818 18.336 C 208.006 19.022,208.310 20.071,208.495 20.667 C 208.680 21.262,208.831 21.886,208.832 22.052 C 208.833 22.217,208.907 22.307,208.998 22.251 C 209.095 22.191,209.119 22.263,209.057 22.425 C 208.999 22.576,209.039 22.755,209.146 22.821 C 209.254 22.887,209.412 23.375,209.498 23.905 C 209.584 24.435,209.732 24.961,209.826 25.074 C 209.920 25.188,209.952 25.326,209.896 25.382 C 209.840 25.437,209.873 25.708,209.969 25.983 L 210.143 26.483 209.197 26.742 C 206.254 27.548,205.065 27.902,204.913 28.016 C 204.738 28.148,203.300 28.572,200.885 29.205 C 200.134 29.402,199.552 29.616,199.592 29.680 C 199.694 29.846,198.857 30.034,198.633 29.896 C 198.516 29.823,198.496 29.859,198.578 29.992 C 198.673 30.144,198.618 30.174,198.379 30.098 C 198.047 29.993,194.006 31.069,193.839 31.307 C 193.790 31.377,193.262 31.558,192.667 31.710 C 190.367 32.295,188.646 32.810,188.452 32.970 C 188.341 33.063,187.688 33.264,187.000 33.419 C 184.334 34.018,183.000 34.390,183.000 34.535 C 183.000 34.618,182.922 34.638,182.826 34.579 C 182.730 34.520,182.560 34.548,182.447 34.641 C 182.334 34.735,181.644 34.970,180.913 35.165 C 180.182 35.359,179.213 35.626,178.761 35.759 C 177.688 36.074,177.373 36.063,177.277 35.708 C 176.432 32.595,175.904 30.850,175.723 30.570 C 175.600 30.379,175.547 30.175,175.605 30.117 C 175.664 30.058,175.558 29.502,175.370 28.880 C 175.183 28.259,174.863 27.188,174.661 26.500 C 174.458 25.813,174.230 25.172,174.155 25.077 C 173.758 24.576,173.698 23.512,174.061 23.399 C 174.256 23.338,174.454 23.235,174.500 23.170 C 174.637 22.976,176.928 22.333,177.484 22.333 C 177.768 22.333,178.000 22.254,178.000 22.157 C 178.000 22.060,178.077 22.028,178.170 22.086 C 178.326 22.182,179.597 21.850,180.417 21.501 C 180.870 21.307,183.360 20.559,184.573 20.252 C 185.117 20.115,185.615 19.917,185.679 19.813 C 185.743 19.709,185.870 19.670,185.961 19.726 C 186.052 19.782,186.348 19.717,186.619 19.582 C 187.011 19.386,188.997 18.815,190.667 18.418 C 190.804 18.386,190.917 18.344,190.917 18.325 C 190.917 18.306,191.067 18.265,191.250 18.233 C 191.803 18.136,196.386 16.812,196.833 16.620 C 197.063 16.521,197.287 16.432,197.333 16.422 C 197.379 16.411,197.829 16.273,198.333 16.115 C 200.156 15.541,203.628 14.544,204.799 14.257 C 205.285 14.138,205.731 13.991,205.791 13.931 C 206.139 13.583,206.433 14.016,206.800 15.416 M170.299 31.292 C 170.433 31.773,170.608 32.167,170.688 32.167 C 171.206 32.167,170.677 32.509,169.914 32.667 C 169.409 32.772,169.038 32.927,169.091 33.012 C 169.143 33.097,169.032 33.167,168.843 33.167 C 168.654 33.167,168.447 33.170,168.383 33.174 C 168.318 33.177,168.169 32.709,168.051 32.133 C 167.934 31.556,167.746 31.054,167.635 31.017 C 167.404 30.940,169.459 30.350,169.820 30.390 C 169.954 30.405,170.161 30.795,170.299 31.292 " stroke="none" fill="#2d3454" fill-rule="evenodd"></path><path id="path2" d="M207.083 3.333 C 206.873 3.424,206.842 3.477,207.000 3.477 C 207.137 3.477,207.400 3.412,207.583 3.333 C 207.793 3.243,207.824 3.190,207.667 3.190 C 207.529 3.190,207.267 3.255,207.083 3.333 M220.604 7.750 C 220.663 8.025,220.778 8.362,220.858 8.500 C 220.952 8.660,220.966 8.570,220.896 8.250 C 220.837 7.975,220.722 7.638,220.642 7.500 C 220.548 7.340,220.534 7.430,220.604 7.750 M210.764 10.000 C 210.887 10.464,210.966 10.589,211.070 10.486 C 211.108 10.448,211.030 10.229,210.896 10.000 L 210.653 9.583 210.764 10.000 M222.357 13.333 C 222.357 13.471,222.421 13.733,222.500 13.917 C 222.590 14.127,222.643 14.158,222.643 14.000 C 222.643 13.862,222.579 13.600,222.500 13.417 C 222.410 13.207,222.357 13.176,222.357 13.333 M187.750 19.167 C 187.540 19.257,187.509 19.310,187.667 19.310 C 187.804 19.310,188.067 19.245,188.250 19.167 C 188.460 19.076,188.491 19.023,188.333 19.023 C 188.196 19.023,187.933 19.088,187.750 19.167 M174.750 23.000 C 174.540 23.090,174.509 23.143,174.667 23.143 C 174.804 23.143,175.067 23.079,175.250 23.000 C 175.460 22.910,175.491 22.857,175.333 22.857 C 175.196 22.857,174.933 22.921,174.750 23.000 M209.190 23.000 C 209.190 23.137,209.255 23.400,209.333 23.583 C 209.424 23.793,209.477 23.824,209.477 23.667 C 209.477 23.529,209.412 23.267,209.333 23.083 C 209.243 22.873,209.190 22.842,209.190 23.000 M168.003 23.597 C 168.004 23.773,168.081 24.029,168.174 24.167 C 168.298 24.349,168.313 24.282,168.232 23.917 C 168.095 23.304,167.999 23.171,168.003 23.597 M220.333 25.436 C 220.333 25.528,220.443 25.749,220.578 25.926 C 220.713 26.104,220.823 26.175,220.823 26.083 C 220.823 25.992,220.713 25.771,220.578 25.593 C 220.443 25.415,220.333 25.345,220.333 25.436 M198.667 29.917 C 198.147 30.214,198.396 30.214,199.167 29.917 C 199.549 29.770,199.635 29.690,199.417 29.685 C 199.233 29.682,198.896 29.786,198.667 29.917 M187.750 33.104 L 187.250 33.348 187.750 33.245 C 188.025 33.189,188.321 33.073,188.408 32.988 C 188.638 32.764,188.341 32.816,187.750 33.104 M200.458 34.782 C 200.298 34.823,200.167 34.930,200.167 35.018 C 200.167 35.117,200.279 35.121,200.458 35.028 C 200.619 34.946,200.862 34.837,201.000 34.786 C 201.323 34.666,200.913 34.663,200.458 34.782 M195.204 41.093 C 195.000 41.235,194.834 41.479,194.834 41.634 C 194.834 41.790,194.091 44.129,193.182 46.833 C 192.273 49.538,191.363 52.313,191.160 53.000 C 190.956 53.688,189.982 56.725,188.994 59.750 C 188.007 62.775,186.324 67.950,185.255 71.250 C 184.185 74.550,182.866 78.611,182.322 80.274 C 180.888 84.662,180.825 84.500,183.938 84.500 C 186.336 84.500,186.567 84.421,186.766 83.530 C 186.961 82.650,189.040 76.412,189.205 76.208 C 189.337 76.046,191.350 76.000,198.246 76.000 L 207.118 76.000 208.312 79.625 C 208.969 81.619,209.505 83.376,209.503 83.530 C 209.495 84.254,210.250 84.500,212.489 84.500 C 215.472 84.500,215.430 84.600,214.099 80.614 C 213.604 79.130,213.049 77.392,212.865 76.750 C 212.554 75.661,211.963 73.871,207.746 61.250 C 206.858 58.592,205.956 55.779,205.741 55.000 C 205.527 54.221,204.570 51.258,203.614 48.417 C 202.657 45.575,201.780 42.890,201.664 42.450 C 201.243 40.859,201.189 40.833,198.192 40.833 C 196.092 40.833,195.501 40.885,195.204 41.093 M198.333 48.218 C 198.333 48.439,199.625 52.513,201.250 57.417 C 201.736 58.883,202.182 60.308,202.241 60.583 C 202.338 61.029,205.469 70.648,205.755 71.375 C 205.863 71.650,205.437 71.667,198.207 71.667 L 190.545 71.667 190.670 71.042 C 190.739 70.698,191.546 68.167,192.464 65.417 C 193.381 62.667,194.187 60.154,194.254 59.833 C 194.322 59.512,195.105 57.038,195.994 54.333 C 196.883 51.629,197.710 49.098,197.832 48.708 C 198.042 48.035,198.333 47.751,198.333 48.218 " stroke="none" fill="#d35c5c" fill-rule="evenodd"></path></g></svg>