<svg id="svg" xmlns="http://www.w3.org/2000/svg" xmlns:xlink="http://www.w3.org/1999/xlink" width="203" height="44" viewBox="0, 0, 400,86.61290322580646"><g id="svgg"><path id="path0" d="M209.167 2.329 C 206.829 3.053,204.917 3.655,204.917 3.668 C 204.917 3.681,204.770 3.720,204.591 3.753 C 202.331 4.175,201.430 5.720,202.137 7.959 C 202.537 9.228,202.652 9.135,199.917 9.751 C 199.367 9.875,197.042 10.552,194.750 11.255 C 192.458 11.958,190.246 12.629,189.833 12.747 C 189.421 12.864,187.958 13.313,186.583 13.744 C 185.208 14.176,183.858 14.563,183.583 14.606 C 183.102 14.680,180.278 15.519,173.500 17.602 C 173.271 17.672,173.004 17.744,172.907 17.762 C 172.810 17.780,171.723 18.119,170.490 18.516 C 169.258 18.913,168.200 19.241,168.139 19.244 C 168.078 19.247,167.972 19.306,167.903 19.375 C 167.834 19.444,167.547 19.500,167.264 19.501 C 165.158 19.503,164.571 21.474,165.574 25.185 C 165.703 25.664,166.100 25.497,161.583 26.864 C 158.646 27.753,158.143 29.678,159.826 33.583 C 160.074 34.159,160.197 34.567,160.276 35.083 C 160.978 39.635,162.280 40.529,166.369 39.265 C 169.778 38.211,169.637 38.205,170.016 39.417 C 170.188 39.967,170.330 40.589,170.331 40.800 C 170.344 42.862,172.406 43.407,175.901 42.273 C 176.992 41.918,178.492 41.460,179.234 41.253 C 179.976 41.047,182.330 40.343,184.464 39.689 C 186.599 39.035,188.451 38.500,188.582 38.500 C 188.957 38.500,191.672 37.728,194.750 36.745 C 196.308 36.248,198.333 35.608,199.250 35.324 C 201.682 34.570,209.547 32.321,209.571 32.372 C 209.583 32.397,209.778 32.973,210.005 33.652 C 210.706 35.755,212.155 36.346,214.500 35.486 C 215.303 35.192,215.907 35.003,216.833 34.757 C 216.971 34.721,217.721 34.493,218.500 34.252 C 219.279 34.010,220.217 33.754,220.583 33.682 C 224.751 32.871,225.840 31.409,224.780 28.049 C 224.641 27.610,224.214 26.238,223.831 25.000 C 223.448 23.762,222.771 21.587,222.327 20.167 C 220.485 14.275,220.015 12.721,219.909 12.167 C 219.803 11.613,219.212 9.613,218.507 7.417 C 218.330 6.867,217.914 5.527,217.581 4.439 C 216.357 0.434,215.767 0.287,209.167 2.329 M212.707 7.625 C 212.750 7.877,213.140 9.171,213.574 10.500 C 214.008 11.829,214.392 13.029,214.427 13.167 C 214.806 14.654,216.520 20.477,217.420 23.333 C 217.810 24.571,218.261 26.033,218.422 26.583 C 218.583 27.133,218.778 27.754,218.855 27.963 C 218.973 28.283,218.924 28.372,218.539 28.525 C 217.573 28.911,214.661 29.626,214.582 29.497 C 214.536 29.423,214.345 28.849,214.158 28.223 C 213.611 26.392,212.690 23.405,212.008 21.250 C 210.844 17.576,210.353 15.933,209.762 13.750 C 209.440 12.558,208.949 10.912,208.671 10.092 C 208.076 8.336,207.953 8.511,210.250 7.840 C 211.258 7.546,212.158 7.280,212.250 7.249 C 212.584 7.137,212.630 7.175,212.707 7.625 M204.246 14.708 C 204.311 14.915,204.381 15.196,204.403 15.333 C 204.424 15.471,204.633 16.183,204.868 16.917 C 205.103 17.650,205.496 18.962,205.743 19.833 C 205.990 20.704,206.569 22.643,207.030 24.141 C 207.491 25.639,207.804 26.922,207.726 26.992 C 207.603 27.101,204.916 27.991,204.399 28.094 C 204.298 28.114,203.435 28.358,202.482 28.636 C 201.530 28.915,199.550 29.489,198.083 29.912 C 193.119 31.345,192.713 31.465,190.730 32.083 C 189.641 32.422,188.637 32.741,188.500 32.792 C 188.362 32.842,188.137 32.906,188.000 32.933 C 187.583 33.014,185.956 33.513,185.288 33.764 C 184.943 33.894,184.518 34.000,184.345 34.000 C 184.172 34.000,182.655 34.420,180.974 34.934 C 177.035 36.137,175.276 36.659,175.145 36.663 C 174.986 36.668,174.750 36.001,173.851 33.000 C 173.398 31.488,172.909 29.912,172.765 29.500 C 172.620 29.087,172.229 27.813,171.895 26.667 C 171.561 25.521,171.220 24.452,171.138 24.292 C 171.024 24.069,171.056 24.000,171.273 24.000 C 171.527 24.000,177.185 22.331,178.917 21.746 C 179.283 21.622,180.146 21.360,180.833 21.163 C 183.204 20.484,185.417 19.782,185.583 19.655 C 185.675 19.585,185.807 19.527,185.878 19.526 C 186.581 19.510,188.594 18.943,195.417 16.839 C 196.975 16.359,198.395 15.937,198.571 15.903 C 198.748 15.869,199.573 15.616,200.405 15.341 C 201.953 14.829,203.602 14.364,203.939 14.344 C 204.043 14.338,204.181 14.502,204.246 14.708 M167.680 32.084 C 167.848 32.626,167.970 33.078,167.951 33.088 C 167.799 33.169,165.734 33.738,165.679 33.715 C 165.523 33.648,165.020 31.747,165.131 31.639 C 165.276 31.498,167.026 31.019,167.229 31.065 C 167.310 31.083,167.513 31.541,167.680 32.084 " stroke="none" fill="#2e3655" fill-rule="evenodd"></path><path id="path1" d="M225.039 30.167 C 225.039 30.488,225.073 30.619,225.115 30.458 C 225.157 30.298,225.157 30.035,225.115 29.875 C 225.073 29.715,225.039 29.846,225.039 30.167 M194.462 41.875 C 194.240 42.048,191.264 50.726,190.447 53.583 C 190.184 54.503,186.678 65.266,182.819 77.000 C 180.261 84.778,180.211 84.961,180.506 85.511 C 180.679 85.835,184.659 86.018,185.395 85.735 C 185.556 85.673,186.149 84.109,187.005 81.485 C 188.163 77.934,188.412 77.320,188.721 77.245 C 188.920 77.197,192.974 77.178,197.729 77.204 L 206.375 77.250 206.913 78.798 C 207.209 79.649,207.818 81.514,208.266 82.943 C 209.230 86.014,208.999 85.833,211.978 85.833 C 215.152 85.833,215.128 86.468,212.276 77.833 C 211.049 74.121,208.918 67.633,207.540 63.417 C 202.356 47.560,200.604 42.317,200.379 41.997 C 200.094 41.590,194.965 41.484,194.462 41.875 M199.112 54.083 C 199.622 55.642,200.184 57.442,200.360 58.083 C 200.698 59.310,204.079 69.780,204.762 71.708 L 205.160 72.833 197.496 72.833 C 190.823 72.833,189.833 72.801,189.833 72.585 C 189.833 72.285,190.350 70.640,192.529 64.000 C 193.446 61.204,194.493 57.904,194.854 56.667 C 195.392 54.826,196.887 50.195,197.276 49.167 C 197.379 48.894,197.659 49.645,199.112 54.083 " stroke="none" fill="#747c8c" fill-rule="evenodd"></path><path id="path2" d="M12.250 41.685 C 2.257 43.126,-1.540 53.458,5.444 60.200 C 6.134 60.866,8.742 62.500,9.114 62.500 C 9.239 62.500,9.846 62.753,10.462 63.063 C 11.079 63.373,12.258 63.905,13.083 64.246 C 13.908 64.586,14.883 65.000,15.250 65.165 C 15.617 65.330,17.097 65.993,18.539 66.639 C 23.848 69.018,25.703 70.734,26.200 73.729 C 27.106 79.197,21.789 82.824,14.388 81.785 C 8.706 80.987,5.675 78.105,5.669 73.492 C 5.666 71.653,5.683 71.666,3.425 71.669 C 0.969 71.673,1.075 71.564,1.121 74.018 C 1.193 77.905,2.093 79.971,4.744 82.339 C 11.126 88.038,25.099 87.063,29.364 80.621 C 31.289 77.713,31.456 72.396,29.720 69.250 C 28.614 67.244,24.425 64.101,21.288 62.923 C 20.717 62.709,19.575 62.234,18.750 61.868 C 17.925 61.502,16.275 60.788,15.083 60.281 C 8.681 57.559,7.214 56.352,6.672 53.362 C 5.834 48.740,9.409 45.644,15.583 45.644 C 22.011 45.644,25.641 48.424,25.952 53.583 C 26.071 55.555,26.005 55.500,28.259 55.500 C 30.763 55.500,30.748 55.514,30.609 53.173 C 30.259 47.297,27.521 43.927,21.738 42.251 C 19.248 41.530,15.060 41.280,12.250 41.685 M269.605 41.749 C 268.062 42.069,266.946 42.443,265.750 43.040 C 265.200 43.315,264.590 43.614,264.394 43.704 C 262.325 44.662,259.834 48.081,258.896 51.250 C 258.459 52.725,258.338 73.350,258.754 75.403 C 260.185 82.465,266.489 86.622,274.786 85.975 C 281.512 85.450,286.150 81.590,287.439 75.444 C 287.847 73.500,287.971 63.661,287.592 63.282 C 287.230 62.921,273.724 62.842,273.367 63.200 C 273.236 63.330,273.167 64.015,273.167 65.167 C 273.167 67.524,272.717 67.333,278.283 67.333 L 283.000 67.333 283.000 70.882 C 283.000 73.493,282.934 74.683,282.751 75.387 C 280.482 84.096,266.631 84.201,263.635 75.532 L 263.250 74.417 263.250 63.583 L 263.250 52.750 263.805 51.463 C 264.451 49.967,265.551 48.201,265.927 48.056 C 266.070 48.001,266.664 47.637,267.246 47.246 C 270.592 45.003,275.923 45.075,279.341 47.410 C 281.641 48.982,282.774 51.122,282.989 54.305 C 283.131 56.394,283.050 56.327,285.446 56.331 C 288.015 56.334,288.111 56.185,287.653 52.894 C 287.128 49.121,284.470 44.846,281.945 43.713 C 281.746 43.624,281.021 43.283,280.333 42.955 C 277.602 41.653,272.713 41.104,269.605 41.749 M35.533 42.200 C 35.291 42.442,35.261 45.460,35.496 45.833 C 35.631 46.047,36.557 46.090,41.826 46.131 L 47.999 46.178 48.041 65.798 L 48.083 85.417 50.237 85.464 C 51.848 85.499,52.425 85.457,52.526 85.297 C 52.601 85.179,52.663 76.327,52.664 65.625 L 52.667 46.167 58.905 46.167 C 64.354 46.167,65.176 46.134,65.405 45.905 C 65.714 45.596,65.782 42.860,65.494 42.322 C 65.281 41.923,35.930 41.803,35.533 42.200 M74.006 42.321 C 73.717 42.862,73.770 85.073,74.060 85.314 C 74.225 85.451,78.055 85.490,88.185 85.459 L 102.083 85.417 102.083 83.500 L 102.083 81.583 90.375 81.541 L 78.667 81.498 78.667 73.582 L 78.667 65.667 86.800 65.667 C 96.207 65.667,95.334 65.870,95.331 63.675 C 95.327 61.351,96.279 61.590,86.839 61.537 L 78.667 61.491 78.667 53.829 L 78.667 46.167 89.989 46.167 C 97.040 46.167,101.475 46.105,101.745 46.002 L 102.178 45.837 102.130 43.960 L 102.083 42.083 88.131 42.041 C 74.471 41.999,74.176 42.005,74.006 42.321 M111.410 42.208 C 111.367 42.323,111.350 52.092,111.374 63.917 L 111.417 85.417 124.898 85.459 C 134.720 85.490,138.442 85.451,138.607 85.314 C 138.905 85.066,138.928 81.994,138.633 81.700 C 138.482 81.548,135.719 81.500,127.217 81.500 L 116.000 81.500 116.000 61.950 C 116.000 46.967,115.953 42.353,115.800 42.200 C 115.514 41.914,111.519 41.921,111.410 42.208 M146.577 42.208 C 146.533 42.323,146.517 52.092,146.540 63.917 L 146.583 85.417 160.065 85.459 C 169.887 85.490,173.608 85.451,173.773 85.314 C 174.092 85.050,174.094 81.952,173.776 81.688 C 173.617 81.557,170.301 81.490,162.401 81.460 L 151.250 81.417 151.208 61.933 C 151.177 47.871,151.113 42.387,150.979 42.225 C 150.722 41.915,146.694 41.900,146.577 42.208 M222.033 42.200 C 221.799 42.434,221.741 84.929,221.974 85.297 C 222.075 85.457,222.652 85.499,224.263 85.464 L 226.417 85.417 226.460 75.625 L 226.503 65.833 231.890 65.833 L 237.278 65.833 238.627 68.625 C 239.369 70.160,240.309 72.167,240.716 73.083 C 241.123 74.000,242.320 76.512,243.375 78.667 C 244.430 80.821,245.454 82.998,245.651 83.505 C 245.848 84.012,246.157 84.670,246.338 84.968 L 246.668 85.510 248.873 85.463 C 251.874 85.400,252.008 86.220,247.489 77.024 C 246.153 74.307,244.774 71.446,244.423 70.667 C 244.073 69.887,243.341 68.406,242.798 67.374 C 242.100 66.048,241.875 65.478,242.030 65.429 C 242.151 65.391,242.662 65.232,243.167 65.076 C 247.967 63.594,250.599 59.627,250.570 53.917 C 250.539 47.551,247.288 43.336,241.565 42.241 C 239.880 41.919,222.352 41.882,222.033 42.200 M307.931 42.364 C 307.790 42.564,307.145 44.383,306.497 46.406 C 305.849 48.428,304.196 53.496,302.824 57.667 C 301.453 61.837,300.333 65.325,300.336 65.417 C 300.340 65.508,299.218 68.996,297.843 73.167 C 294.634 82.904,294.167 84.410,294.167 85.008 L 294.167 85.500 296.413 85.500 C 299.065 85.500,298.892 85.627,299.595 83.167 C 299.844 82.296,300.358 80.571,300.739 79.333 L 301.430 77.083 310.835 77.083 L 320.241 77.083 320.360 77.750 C 320.527 78.681,322.613 84.984,322.848 85.268 C 323.152 85.634,327.425 85.602,327.567 85.232 C 327.624 85.084,327.074 83.153,326.346 80.940 C 325.618 78.727,323.895 73.467,322.517 69.250 C 321.140 65.033,319.030 58.621,317.830 55.000 C 316.629 51.379,315.494 47.892,315.307 47.250 C 314.652 45.001,313.789 42.415,313.625 42.208 C 313.291 41.788,308.237 41.926,307.931 42.364 M333.673 42.322 C 333.578 42.500,333.500 43.287,333.500 44.072 C 333.500 46.393,332.231 46.167,345.264 46.167 L 356.361 46.167 356.030 46.708 C 355.848 47.006,355.551 47.512,355.370 47.833 C 355.188 48.154,354.009 49.954,352.749 51.833 C 351.489 53.712,350.416 55.358,350.366 55.489 C 350.315 55.621,349.144 57.438,347.762 59.528 C 346.380 61.618,344.144 65.003,342.792 67.049 C 341.440 69.096,340.333 70.813,340.333 70.866 C 340.333 70.919,339.311 72.490,338.062 74.356 C 336.812 76.223,335.294 78.575,334.687 79.583 L 333.583 81.417 333.527 83.108 C 333.492 84.151,333.543 84.935,333.658 85.150 L 333.845 85.500 347.667 85.500 C 363.612 85.500,361.833 85.751,361.833 83.500 C 361.833 81.259,363.231 81.500,350.230 81.500 C 343.963 81.500,338.997 81.436,339.028 81.356 C 339.168 80.993,341.447 77.275,341.688 77.015 C 341.838 76.855,342.654 75.642,343.503 74.320 C 345.869 70.634,347.777 67.720,348.784 66.250 C 349.286 65.517,349.784 64.729,349.890 64.499 C 350.082 64.084,352.879 59.794,357.477 52.860 C 358.794 50.874,359.940 49.071,360.024 48.852 C 360.108 48.633,360.373 48.220,360.614 47.935 C 361.702 46.646,362.290 43.497,361.661 42.322 C 361.390 41.816,333.943 41.816,333.673 42.322 M370.700 42.200 C 370.409 42.491,370.409 85.009,370.700 85.300 C 371.046 85.646,398.766 85.583,398.899 85.236 C 399.106 84.696,399.009 81.881,398.776 81.688 C 398.617 81.556,395.170 81.490,386.901 81.459 L 375.250 81.417 375.250 73.583 L 375.250 65.750 383.500 65.708 C 393.091 65.659,392.168 65.884,392.164 63.593 C 392.160 61.363,393.117 61.590,383.506 61.537 L 375.167 61.491 375.167 53.832 L 375.167 46.173 386.923 46.128 C 397.158 46.089,398.699 46.051,398.837 45.833 C 399.073 45.460,399.042 42.442,398.800 42.200 C 398.510 41.910,370.990 41.910,370.700 42.200 M240.752 46.466 C 241.491 46.722,242.351 47.186,243.593 48.000 C 246.707 50.039,246.771 57.092,243.702 59.865 C 241.558 61.802,240.969 61.917,233.167 61.917 L 226.583 61.917 226.540 54.042 L 226.497 46.167 233.207 46.172 C 239.131 46.177,240.014 46.211,240.752 46.466 M315.413 62.250 C 315.547 62.800,316.372 65.419,317.245 68.070 C 318.119 70.721,318.833 72.952,318.833 73.028 C 318.833 73.172,302.951 73.229,302.808 73.086 C 302.763 73.041,303.238 71.447,303.863 69.544 C 304.488 67.641,304.999 65.982,304.999 65.858 C 305.000 65.734,306.125 62.209,307.500 58.025 C 308.876 53.840,310.001 50.300,310.000 50.157 C 310.000 50.015,310.163 49.415,310.363 48.824 L 310.726 47.750 312.948 54.500 C 314.170 58.212,315.279 61.700,315.413 62.250 " stroke="none" fill="#f4fcfc" fill-rule="evenodd"></path></g></svg>