<!-- originalwidth = 400 x 85.3 -->

<svg id="svg" xmlns="http://www.w3.org/2000/svg" xmlns:xlink="http://www.w3.org/1999/xlink" width="206" height="44" viewBox="0, 0, 400,85.36098923015557"><g id="svgg"><path id="path0" d="M14.417 40.917 C 4.564 42.263,1.214 54.423,9.213 59.806 C 11.312 61.218,12.620 61.862,16.750 63.511 C 26.450 67.385,29.654 70.302,28.865 74.543 C 28.057 78.888,23.544 81.236,17.417 80.501 C 11.609 79.805,8.500 76.936,8.500 72.273 C 8.500 70.405,8.621 70.500,6.250 70.500 C 3.837 70.500,4.000 70.339,4.002 72.726 C 4.012 80.734,10.654 85.401,20.966 84.646 C 30.749 83.930,36.332 76.296,32.593 68.750 C 31.683 66.914,27.840 63.333,26.779 63.333 C 26.650 63.333,26.358 63.186,26.130 63.007 C 25.581 62.575,20.657 60.279,19.310 59.827 C 12.274 57.464,9.441 54.998,9.460 51.250 C 9.481 47.021,12.644 44.642,18.244 44.643 C 24.613 44.645,28.667 47.896,28.667 53.002 C 28.667 54.473,28.707 54.500,30.938 54.500 C 33.430 54.500,33.415 54.515,33.272 52.163 C 32.947 46.815,30.245 43.332,24.917 41.392 C 23.124 40.740,17.561 40.488,14.417 40.917 M38.006 41.322 C 37.718 41.860,37.786 44.596,38.095 44.905 C 38.324 45.133,39.124 45.167,44.345 45.167 L 50.332 45.167 50.374 64.625 L 50.417 84.083 52.570 84.130 C 54.181 84.165,54.758 84.123,54.859 83.964 C 54.934 83.846,54.996 75.069,54.997 64.458 L 55.000 45.167 61.155 45.167 C 66.528 45.167,67.343 45.133,67.571 44.905 C 67.880 44.596,67.949 41.860,67.661 41.322 C 67.390 40.816,38.277 40.816,38.006 41.322 M76.006 41.322 C 75.734 41.831,75.769 83.515,76.042 83.886 C 76.235 84.150,77.226 84.167,90.083 84.127 L 103.917 84.083 103.917 82.167 L 103.917 80.250 92.292 80.207 L 80.667 80.164 80.667 72.334 L 80.667 64.503 88.875 64.460 L 97.083 64.417 97.130 62.540 L 97.178 60.663 96.745 60.498 C 96.482 60.398,93.236 60.333,88.489 60.333 L 80.667 60.333 80.667 52.750 L 80.667 45.167 91.906 45.167 C 98.805 45.167,103.310 45.104,103.572 45.004 C 104.058 44.819,104.248 41.648,103.800 41.200 C 103.404 40.804,76.219 40.923,76.006 41.322 M113.186 41.226 C 113.049 41.392,113.010 47.154,113.041 62.768 L 113.083 84.083 126.398 84.126 C 136.097 84.157,139.775 84.118,139.940 83.981 C 140.238 83.733,140.261 80.661,139.967 80.367 C 139.815 80.215,137.089 80.167,128.717 80.167 L 117.667 80.167 117.667 60.783 C 117.667 45.930,117.620 41.353,117.467 41.200 C 117.169 40.902,113.436 40.925,113.186 41.226 M148.020 41.226 C 147.882 41.392,147.843 47.154,147.874 62.768 L 147.917 84.083 161.323 84.126 C 171.938 84.160,174.757 84.125,174.862 83.959 C 175.079 83.617,175.027 80.594,174.800 80.367 C 174.648 80.215,171.922 80.167,163.550 80.167 L 152.500 80.167 152.500 60.783 C 152.500 45.930,152.453 41.353,152.300 41.200 C 152.002 40.902,148.270 40.925,148.020 41.226 M222.541 41.192 C 222.300 41.433,222.234 83.585,222.474 83.964 C 222.575 84.123,223.152 84.165,224.763 84.130 L 226.917 84.083 226.960 74.375 L 227.003 64.667 232.295 64.667 L 237.588 64.667 238.549 66.625 C 239.078 67.702,239.508 68.637,239.505 68.702 C 239.502 68.767,240.325 70.500,241.333 72.554 C 242.342 74.607,243.175 76.391,243.185 76.519 C 243.195 76.646,244.038 78.400,245.060 80.417 L 246.917 84.083 249.081 84.083 C 252.002 84.083,252.045 84.589,248.507 77.417 C 247.513 75.400,245.878 72.063,244.876 70.000 C 241.951 63.982,242.022 64.167,242.633 64.167 C 244.804 64.167,248.998 60.635,250.054 57.918 C 252.726 51.041,249.242 43.357,242.554 41.382 C 241.284 41.007,222.901 40.833,222.541 41.192 M255.716 41.278 C 255.611 41.552,256.374 44.017,260.014 55.167 C 261.016 58.237,261.836 60.845,261.835 60.960 C 261.834 61.076,262.696 63.767,263.750 66.942 C 264.804 70.116,265.667 72.804,265.667 72.915 C 265.667 73.126,267.538 78.860,268.701 82.213 L 269.382 84.176 271.732 84.129 L 274.083 84.083 275.386 80.083 C 276.103 77.883,277.502 73.571,278.494 70.500 C 279.487 67.429,281.165 62.254,282.224 59.000 C 283.284 55.746,284.184 52.896,284.225 52.667 C 284.266 52.438,285.106 49.858,286.092 46.935 C 287.440 42.938,287.843 41.553,287.716 41.351 C 287.483 40.981,283.487 40.864,283.193 41.219 C 282.983 41.471,280.667 48.588,280.667 48.979 C 280.667 49.180,279.284 53.549,277.156 60.074 C 276.979 60.619,276.833 61.174,276.833 61.306 C 276.833 61.439,276.048 63.957,275.087 66.901 C 274.127 69.846,273.292 72.516,273.233 72.836 C 272.946 74.387,271.777 77.581,271.649 77.165 C 271.579 76.937,270.992 75.108,270.344 73.102 C 269.696 71.096,269.167 69.341,269.167 69.203 C 269.167 69.064,268.520 66.956,267.730 64.517 C 266.205 59.814,265.701 58.197,265.254 56.583 C 265.102 56.033,264.312 53.521,263.498 51.000 C 262.684 48.479,261.829 45.704,261.598 44.833 C 261.028 42.681,260.536 41.293,260.289 41.136 C 259.843 40.853,255.832 40.977,255.716 41.278 M295.611 41.111 C 295.550 41.172,295.500 50.885,295.500 62.694 L 295.500 84.167 297.649 84.167 C 299.455 84.167,299.814 84.125,299.899 83.903 C 300.109 83.355,300.012 41.412,299.800 41.200 C 299.586 40.986,295.816 40.906,295.611 41.111 M311.339 41.322 C 311.051 41.862,311.104 83.740,311.393 83.981 C 311.558 84.118,315.367 84.157,325.435 84.126 L 339.250 84.083 339.299 82.500 C 339.326 81.629,339.306 80.748,339.254 80.542 L 339.160 80.167 327.580 80.167 L 316.000 80.167 316.000 72.333 L 316.000 64.500 324.133 64.500 C 333.540 64.500,332.668 64.704,332.664 62.508 C 332.660 60.184,333.612 60.424,324.173 60.369 L 316.000 60.321 316.000 52.744 L 316.000 45.167 327.239 45.167 C 334.138 45.167,338.643 45.104,338.906 45.004 C 339.392 44.819,339.581 41.648,339.133 41.200 C 338.737 40.804,311.553 40.923,311.339 41.322 M345.169 41.248 C 344.955 41.505,344.965 41.545,347.098 48.722 C 347.503 50.082,347.836 51.319,347.838 51.472 C 347.844 51.792,348.244 53.207,350.232 59.944 C 351.021 62.618,351.667 64.920,351.667 65.060 C 351.667 65.200,352.492 68.142,353.500 71.598 C 354.508 75.054,355.333 77.995,355.333 78.132 C 355.333 78.450,356.814 83.485,357.023 83.875 C 357.220 84.245,361.172 84.319,361.457 83.958 C 361.548 83.844,361.865 82.737,362.163 81.500 C 362.461 80.262,363.104 77.712,363.593 75.833 C 364.444 72.561,365.495 68.425,366.982 62.500 C 367.361 60.987,368.232 57.650,368.916 55.083 C 369.601 52.517,370.162 50.195,370.164 49.925 C 370.165 49.646,370.227 49.502,370.306 49.592 C 370.459 49.765,373.910 62.528,374.078 63.543 C 374.135 63.887,374.935 66.925,375.855 70.293 C 376.775 73.661,377.672 77.092,377.848 77.917 C 378.289 79.982,379.329 83.705,379.537 83.958 C 379.657 84.105,380.341 84.167,381.862 84.167 L 384.017 84.167 384.239 83.625 C 384.360 83.327,384.593 82.521,384.757 81.833 C 385.169 80.095,385.707 78.097,386.393 75.750 C 387.899 70.605,388.833 67.272,388.833 67.046 C 388.833 66.911,389.367 64.951,390.019 62.691 C 391.219 58.531,392.265 54.741,392.716 52.917 C 392.852 52.367,393.609 49.685,394.398 46.958 C 395.904 41.754,395.954 41.521,395.633 41.200 C 395.350 40.916,391.602 40.924,391.373 41.208 C 391.203 41.420,389.260 48.183,388.799 50.167 C 388.660 50.762,387.824 53.744,386.940 56.792 C 386.056 59.841,385.333 62.452,385.333 62.596 C 385.333 62.740,384.762 64.821,384.065 67.220 C 383.367 69.620,382.724 71.846,382.636 72.167 C 382.547 72.487,382.320 73.275,382.131 73.917 L 381.787 75.083 381.573 74.500 C 381.455 74.179,381.353 73.722,381.346 73.485 C 381.335 73.122,379.512 66.315,378.761 63.833 C 378.443 62.785,377.567 59.417,377.352 58.417 C 377.186 57.647,376.805 56.259,375.225 50.667 C 374.901 49.521,374.448 47.833,374.218 46.917 C 373.239 43.017,372.790 41.404,372.630 41.208 C 372.334 40.847,368.220 40.921,368.023 41.292 C 367.872 41.576,366.962 45.077,366.431 47.417 C 366.286 48.058,365.717 50.233,365.167 52.250 C 364.616 54.267,363.860 57.154,363.485 58.667 C 363.111 60.179,362.402 62.954,361.910 64.833 C 359.109 75.531,359.120 75.497,358.916 74.208 C 358.862 73.865,358.099 71.071,357.221 68.000 C 356.343 64.929,355.510 61.929,355.371 61.333 C 355.124 60.275,353.613 54.878,352.093 49.624 C 351.675 48.179,351.333 46.880,351.333 46.736 C 351.333 46.441,350.077 41.954,349.832 41.375 C 349.630 40.896,345.553 40.784,345.169 41.248 M240.845 45.435 C 246.489 47.108,248.262 54.675,243.970 58.767 C 242.044 60.602,240.635 60.863,233.000 60.799 L 227.083 60.750 227.040 52.958 L 226.997 45.167 233.468 45.167 C 238.932 45.167,240.080 45.208,240.845 45.435 " stroke="none" fill="#fcfcfc" fill-rule="evenodd"></path><path id="path1" d="M213.583 1.321 C 211.471 2.006,207.607 3.220,206.315 3.604 C 204.379 4.180,203.766 5.536,204.500 7.623 C 204.683 8.145,204.833 8.582,204.833 8.594 C 204.833 8.607,204.327 8.751,203.708 8.915 C 203.090 9.078,201.721 9.492,200.667 9.835 C 199.612 10.178,198.000 10.664,197.083 10.916 C 194.217 11.703,191.688 12.444,188.667 13.384 C 187.063 13.883,185.188 14.445,184.500 14.634 C 181.735 15.393,179.656 16.001,177.833 16.583 C 176.779 16.920,175.504 17.305,175.000 17.438 C 174.496 17.572,173.331 17.941,172.411 18.257 C 171.491 18.574,170.532 18.833,170.281 18.833 C 168.147 18.833,167.236 20.789,168.080 23.557 C 168.327 24.366,168.489 25.067,168.440 25.116 C 168.327 25.229,166.515 25.734,164.583 26.191 C 161.235 26.983,160.875 28.532,162.804 33.833 C 162.987 34.337,163.305 35.350,163.510 36.083 C 164.426 39.355,165.369 39.720,169.574 38.429 C 170.943 38.008,172.109 37.721,172.165 37.790 C 172.220 37.860,172.479 38.592,172.739 39.417 C 173.628 42.233,174.773 42.702,178.011 41.575 C 178.692 41.337,179.625 41.064,180.083 40.967 C 181.470 40.673,182.904 40.263,186.917 39.017 C 191.036 37.737,192.696 37.268,193.750 37.087 C 194.117 37.024,195.804 36.520,197.500 35.967 C 199.196 35.415,201.333 34.719,202.250 34.421 C 203.167 34.124,204.479 33.748,205.167 33.587 C 205.854 33.426,206.829 33.157,207.333 32.989 C 208.290 32.672,210.836 31.928,211.423 31.794 C 211.713 31.728,211.805 31.858,212.050 32.690 C 212.713 34.942,214.287 35.673,216.629 34.818 C 217.154 34.627,218.183 34.297,218.917 34.086 C 219.650 33.874,220.461 33.619,220.719 33.517 C 220.977 33.416,221.372 33.333,221.597 33.333 C 222.201 33.333,225.676 32.178,226.211 31.800 C 227.553 30.850,227.489 29.484,225.870 24.500 C 225.231 22.529,224.616 20.542,224.505 20.083 C 224.258 19.064,223.365 16.106,222.488 13.404 C 221.535 10.469,220.658 7.525,220.483 6.675 C 219.288 0.858,218.027 -0.120,213.583 1.321 M214.983 7.625 C 215.106 8.060,215.610 9.638,216.103 11.130 C 216.596 12.622,217.000 14.017,217.000 14.228 C 217.000 14.440,217.225 15.282,217.500 16.098 C 217.776 16.915,218.267 18.483,218.592 19.583 C 218.917 20.683,219.251 21.733,219.334 21.917 C 219.549 22.390,220.791 26.647,220.896 27.271 L 220.983 27.792 219.033 28.435 C 216.713 29.199,216.810 29.190,216.650 28.667 C 215.966 26.429,214.654 22.273,213.988 20.233 C 213.536 18.848,213.167 17.549,213.167 17.345 C 213.167 17.142,212.870 16.062,212.508 14.946 C 210.926 10.074,210.343 8.091,210.459 7.980 C 210.567 7.876,214.120 6.907,214.589 6.853 C 214.683 6.842,214.861 7.190,214.983 7.625 M206.666 15.042 C 206.856 15.706,207.266 17.000,207.577 17.917 C 208.613 20.971,210.105 26.284,209.965 26.424 C 209.930 26.459,209.004 26.748,207.909 27.066 C 206.813 27.384,205.054 27.918,204.000 28.252 C 202.946 28.586,201.258 29.085,200.250 29.362 C 199.242 29.638,196.729 30.383,194.667 31.017 C 192.604 31.652,190.391 32.316,189.749 32.494 C 189.107 32.671,188.019 33.007,187.332 33.240 C 186.645 33.474,185.933 33.665,185.750 33.666 C 185.567 33.667,184.442 33.971,183.250 34.340 C 182.058 34.710,180.371 35.234,179.500 35.504 C 178.629 35.775,177.829 35.997,177.722 35.998 C 177.527 36.000,176.901 34.237,176.094 31.417 C 175.858 30.592,175.504 29.354,175.307 28.667 C 175.110 27.979,174.689 26.567,174.372 25.528 C 174.054 24.489,173.859 23.582,173.939 23.511 C 174.145 23.327,177.209 22.333,177.568 22.333 C 177.880 22.333,179.732 21.792,182.167 20.989 C 182.946 20.733,184.258 20.333,185.083 20.101 C 185.908 19.870,187.121 19.490,187.778 19.257 C 188.435 19.025,189.523 18.719,190.195 18.579 C 190.867 18.438,192.504 17.985,193.833 17.572 C 195.162 17.159,196.550 16.740,196.917 16.642 C 197.283 16.544,197.846 16.359,198.167 16.229 C 199.040 15.878,202.669 14.835,203.069 14.821 C 203.260 14.814,204.017 14.597,204.750 14.338 C 205.483 14.079,206.136 13.860,206.201 13.850 C 206.266 13.841,206.475 14.377,206.666 15.042 M170.345 31.410 C 170.706 32.576,170.773 32.447,169.650 32.741 C 169.155 32.870,168.630 33.023,168.483 33.080 C 168.267 33.164,168.195 33.028,168.112 32.384 C 168.055 31.943,167.963 31.426,167.908 31.233 C 167.820 30.928,167.921 30.849,168.695 30.620 C 169.927 30.254,169.999 30.289,170.345 31.410 " stroke="none" fill="#2c3454" fill-rule="evenodd"></path><path id="path2" d="M195.125 41.013 C 194.965 41.107,194.834 41.311,194.834 41.467 C 194.834 41.622,194.091 43.962,193.182 46.667 C 192.273 49.371,191.363 52.146,191.160 52.833 C 190.957 53.521,189.982 56.558,188.994 59.583 C 188.005 62.608,186.321 67.783,185.251 71.083 C 184.182 74.383,182.862 78.446,182.320 80.111 C 180.843 84.645,180.787 84.500,184.014 84.500 C 186.291 84.500,186.833 84.318,186.833 83.556 C 186.833 82.687,189.208 76.163,189.555 76.079 C 189.754 76.031,193.777 76.012,198.495 76.037 L 207.073 76.083 208.277 79.667 C 208.938 81.637,209.484 83.414,209.490 83.616 C 209.510 84.329,210.063 84.500,212.357 84.500 C 215.525 84.500,215.501 84.554,214.083 80.485 C 213.579 79.039,213.167 77.740,213.167 77.599 C 213.167 77.458,212.676 75.897,212.076 74.130 C 211.475 72.363,210.608 69.754,210.147 68.333 C 209.687 66.912,208.560 63.500,207.643 60.750 C 206.726 58.000,205.835 55.225,205.664 54.583 C 205.493 53.942,204.590 51.167,203.658 48.417 C 202.725 45.667,201.854 43.004,201.723 42.500 C 201.271 40.771,201.401 40.833,198.204 40.838 C 196.623 40.841,195.290 40.917,195.125 41.013 M198.333 48.492 C 198.333 48.671,198.404 48.990,198.490 49.200 C 198.785 49.919,202.134 60.248,202.243 60.774 C 202.303 61.062,203.126 63.631,204.072 66.482 L 205.792 71.667 198.229 71.667 C 190.960 71.667,190.667 71.655,190.667 71.356 C 190.667 71.185,191.492 68.550,192.500 65.500 C 193.508 62.450,194.333 59.871,194.332 59.769 C 194.329 59.408,198.084 48.167,198.208 48.167 C 198.277 48.167,198.333 48.313,198.333 48.492 " stroke="none" fill="#d49454" fill-rule="evenodd"></path></g></svg>