<?xml version="1.0" encoding="utf-8"?>
<!-- Generator: Adobe Illustrator 21.1.0, SVG Export Plug-In . SVG Version: 6.00 Build 0)  -->
<svg version="1.1" xmlns="http://www.w3.org/2000/svg" xmlns:xlink="http://www.w3.org/1999/xlink" x="0px" y="0px"
	 viewBox="0 0 500 500" enable-background="new 0 0 500 500" xml:space="preserve">
<g id="_x37_50x500">
</g>
<g id="_x35_00x500">
	<linearGradient id="SVGID_1_" gradientUnits="userSpaceOnUse" x1="250" y1="363.727" x2="250" y2="2.9172">
		<stop  offset="0" style="stop-color:#131438"/>
		<stop  offset="0.2726" style="stop-color:#191A24"/>
		<stop  offset="0.4679" style="stop-color:#1C1C1C"/>
		<stop  offset="0.7296" style="stop-color:#17172C"/>
		<stop  offset="1" style="stop-color:#131438"/>
	</linearGradient>
	<rect y="-0.2" fill="url(#SVGID_1_)" width="500" height="501"/>
	<g>
		<path fill="#FFFFFF" d="M450.4,100.7l5.5-0.7l-5.5-0.7c-0.2-0.4-0.5-0.7-0.8-0.8l-0.7-5.4l-0.7,5.4c-0.4,0.2-0.7,0.5-0.8,0.8
			l-5.5,0.7l5.5,0.7c0.2,0.4,0.5,0.7,0.8,0.8l0.7,5.4l0.7-5.4C449.9,101.3,450.2,101,450.4,100.7z"/>
		<path fill="#FFFFFF" d="M269.9,267.7l3.1-0.4l-3.1-0.4c-0.1-0.2-0.3-0.4-0.5-0.5l-0.4-3.1l-0.4,3.1c-0.2,0.1-0.4,0.3-0.5,0.5
			l-3.1,0.4l3.1,0.4c0.1,0.2,0.3,0.4,0.5,0.5l0.4,3.1l0.4-3.1C269.6,268.1,269.8,267.9,269.9,267.7z"/>
		<path fill="#FFFFFF" d="M362.5,136.9l4.3-0.5l-4.3-0.5c-0.1-0.3-0.4-0.5-0.7-0.6l-0.5-4.2l-0.5,4.2c-0.3,0.1-0.5,0.4-0.7,0.6
			l-4.3,0.5l4.3,0.5c0.1,0.3,0.4,0.5,0.7,0.6l0.5,4.2l0.5-4.2C362.1,137.4,362.3,137.1,362.5,136.9z"/>
		<path fill="#FFFFFF" d="M78.7,156.1l3.5-0.4l-3.5-0.4c-0.1-0.2-0.3-0.4-0.5-0.5l-0.4-3.5l-0.4,3.5c-0.2,0.1-0.4,0.3-0.5,0.5
			l-3.5,0.4l3.5,0.4c0.1,0.2,0.3,0.4,0.5,0.5l0.4,3.5l0.4-3.5C78.4,156.5,78.6,156.4,78.7,156.1z"/>
		<path fill="#FFFFFF" d="M360.4,52.5l5.4-0.6l-5.4-0.6c-0.2-0.4-0.5-0.6-0.8-0.8l-0.7-5.3l-0.7,5.3c-0.4,0.2-0.7,0.4-0.8,0.8
			l-5.4,0.6l5.4,0.6c0.2,0.4,0.5,0.6,0.8,0.8l0.7,5.3l0.7-5.3C360,53.2,360.3,52.9,360.4,52.5z"/>
		<path fill="#FFFFFF" d="M233,137.8l4.7-0.6l-4.7-0.6c-0.1-0.3-0.4-0.6-0.7-0.7l-0.6-4.6l-0.6,4.6c-0.3,0.1-0.6,0.4-0.7,0.7
			l-4.7,0.6l4.7,0.6c0.1,0.3,0.4,0.6,0.7,0.7l0.6,4.6l0.6-4.6C232.6,138.3,232.8,138.1,233,137.8z"/>
		<path fill="#FFFFFF" d="M219.4,49.3l3.5-0.4l-3.5-0.4c-0.1-0.2-0.3-0.4-0.5-0.5l-0.4-3.5L218,48c-0.2,0.1-0.4,0.3-0.5,0.5
			l-3.5,0.4l3.5,0.4c0.1,0.2,0.3,0.4,0.5,0.5l0.4,3.5l0.4-3.5C219.1,49.8,219.3,49.6,219.4,49.3z"/>
		<path fill="#FFFFFF" d="M58.5,74.6l3.5-0.4l-3.5-0.4c-0.1-0.2-0.3-0.4-0.5-0.5l-0.4-3.5l-0.4,3.5c-0.2,0.1-0.4,0.3-0.5,0.5
			l-3.5,0.4l3.5,0.4c0.1,0.2,0.3,0.4,0.5,0.5l0.4,3.5l0.4-3.5C58.2,75,58.4,74.8,58.5,74.6z"/>
		<path fill="#FFFFFF" d="M490.4,48.2l5.5-0.7l-5.5-0.7c-0.2-0.4-0.5-0.7-0.8-0.8l-0.7-5.4l-0.7,5.4c-0.4,0.2-0.7,0.5-0.8,0.8
			l-5.5,0.7l5.5,0.7c0.2,0.4,0.5,0.7,0.8,0.8l0.7,5.4l0.7-5.4C489.9,48.9,490.2,48.6,490.4,48.2z"/>
		<path fill="#FFFFFF" d="M167.5,10.6l6.7-0.8L167.5,9c-0.2-0.4-0.6-0.8-1-1l-0.8-6.5L164.8,8c-0.5,0.2-0.8,0.6-1,1l-6.7,0.8
			l6.7,0.8c0.2,0.4,0.6,0.8,1,1l0.8,6.5l0.8-6.5C166.9,11.4,167.3,11.1,167.5,10.6z"/>
		<g>
			<path fill="#FFFFFF" d="M167.9,131.2c2,0,2-3,0-3S165.9,131.2,167.9,131.2L167.9,131.2z"/>
		</g>
		<g>
			<path fill="#FFFFFF" d="M35.9,264c2.3,0,2.3-3.4,0-3.4C33.6,260.6,33.6,264,35.9,264L35.9,264z"/>
		</g>
		<g>
			<path fill="#FFFFFF" d="M231.7,287.6c1.3,0,1.3-2,0-2C230.4,285.6,230.4,287.6,231.7,287.6L231.7,287.6z"/>
		</g>
		<g>
			<path fill="#FFFFFF" d="M62.9,206.5c2.1,0,2.1-3.1,0-3.1C60.9,203.3,60.9,206.5,62.9,206.5L62.9,206.5z"/>
		</g>
		<g>
			<path fill="#FFFFFF" d="M317.6,333.3c1.9,0,1.9-2.9,0-2.9C315.7,330.4,315.7,333.3,317.6,333.3L317.6,333.3z"/>
		</g>
		<g>
			<path fill="#FFFFFF" d="M219.4,166.4c1.3,0,1.3-2,0-2C218.1,164.4,218.1,166.4,219.4,166.4L219.4,166.4z"/>
		</g>
		<g>
			<path fill="#FFFFFF" d="M452.5,317.9c-0.7,0-1.3,0.1-1.7,0.7c-0.2,0.4-0.2,0.9,0,1.2c0.4,0.6,1,0.7,1.7,0.7
				C454.2,320.5,454.2,317.9,452.5,317.9L452.5,317.9z"/>
		</g>
		<g>
			<path fill="#FFFFFF" d="M462.5,478.7c2.7,0,2.7-4,0-4C459.9,474.6,459.9,478.7,462.5,478.7L462.5,478.7z"/>
		</g>
		<g>
			<path fill="#FFFFFF" d="M288.5,242.2c2.6,0,2.6-4,0-4C285.9,238.2,285.9,242.2,288.5,242.2L288.5,242.2z"/>
		</g>
		<g>
			<path fill="#FFFFFF" d="M294.8,26.4c2.6,0,2.6-4,0-4C292.2,22.4,292.2,26.4,294.8,26.4L294.8,26.4z"/>
		</g>
		<g>
			<path fill="#FFFFFF" d="M427.3,51.7c2.6,0,2.6-4,0-4C424.7,47.7,424.7,51.7,427.3,51.7L427.3,51.7z"/>
		</g>
		<g>
			<path fill="#FFFFFF" d="M89.9,45.8c2.6,0,2.6-4,0-4S87.2,45.8,89.9,45.8L89.9,45.8z"/>
		</g>
		<g>
			<path fill="#FFFFFF" d="M324.8,256c1.6,0,1.6-2.5,0-2.5S323.2,256,324.8,256L324.8,256z"/>
		</g>
		<g>
			<path fill="#FFFFFF" d="M330.1,346.8c1.6,0,1.6-2.5,0-2.5C328.5,344.4,328.5,346.8,330.1,346.8L330.1,346.8z"/>
		</g>
		<g>
			<path fill="#FFFFFF" d="M443.4,277.9c1.6,0,1.6-2.5,0-2.5C441.8,275.5,441.8,277.9,443.4,277.9L443.4,277.9z"/>
		</g>
		<g>
			<path fill="#FFFFFF" d="M378.6,233.1c1.6,0,1.6-2.5,0-2.5C377,230.7,377,233.1,378.6,233.1L378.6,233.1z"/>
		</g>
		<g>
			<path fill="#FFFFFF" d="M123.2,95.4c1.3,0,1.3-2,0-2C121.9,93.3,121.9,95.4,123.2,95.4L123.2,95.4z"/>
		</g>
		<g>
			<path fill="#FFFFFF" d="M18.2,114c0.1-0.1,0.2-0.2,0.4-0.2c0.9-0.6,0.9-1.7,0-2.3c-0.1-0.1-0.2-0.2-0.4-0.2
				C15.2,109.3,15.2,116,18.2,114L18.2,114z"/>
		</g>
		<g>
			<path fill="#FFFFFF" d="M155.6,71.3c0.1-0.1,0.2-0.2,0.4-0.2c0.9-0.6,0.9-1.7,0-2.3c-0.1-0.1-0.2-0.2-0.4-0.2
				C152.7,66.5,152.7,73.3,155.6,71.3L155.6,71.3z"/>
		</g>
		<g>
			<path fill="#FFFFFF" d="M23.2,315.4c1.3,0,1.3-2,0-2C21.9,313.3,21.9,315.4,23.2,315.4L23.2,315.4z"/>
		</g>
		<g>
			<path fill="#FFFFFF" d="M195.7,342c1.3,0,1.3-2,0-2S194.3,342,195.7,342L195.7,342z"/>
		</g>
		<g>
			<path fill="#FFFFFF" d="M6.5,229.6c2,0,2-3,0-3C4.5,226.5,4.5,229.6,6.5,229.6L6.5,229.6z"/>
		</g>
		<g>
			<path fill="#FFFFFF" d="M379.8,76.3c2.8,0,2.8-4.3,0-4.3S377,76.3,379.8,76.3L379.8,76.3z"/>
		</g>
		<g>
			<path fill="#FFFFFF" d="M303.4,130.6c1.2,0,1.2-1.8,0-1.8C302.2,128.7,302.2,130.6,303.4,130.6L303.4,130.6z"/>
		</g>
		<g>
			<path fill="#FFFFFF" d="M116.5,217.6c0,0.1,0,0.1,0,0.2c0,0.6,0.5,1,1.1,1c0.6,0,1.1-0.5,1.1-1c0-0.2,0-0.5,0-0.7
				c0-0.4-0.3-0.9-0.8-1c-0.3,0-0.3,0-0.5,0c-0.5,0.1-0.7,0.6-0.8,1c0,0.2,0,0.5,0,0.7c0,0.6,0.5,1,1.1,1c0.6,0,1-0.5,1.1-1
				c0-0.1,0-0.1,0-0.2C118.8,216.3,116.4,216.3,116.5,217.6L116.5,217.6z"/>
		</g>
		<g>
			<path fill="#FFFFFF" d="M354.4,176.2c1,0,1-1.6,0-1.6C353.4,174.6,353.4,176.2,354.4,176.2L354.4,176.2z"/>
		</g>
		<g>
			<path fill="#FFFFFF" d="M365.4,270.8c1,0,1-1.6,0-1.6C364.4,269.2,364.4,270.8,365.4,270.8L365.4,270.8z"/>
		</g>
		<g>
			<path fill="#FFFFFF" d="M41.9,286.6c1,0,1-1.6,0-1.6C40.8,285,40.8,286.6,41.9,286.6L41.9,286.6z"/>
		</g>
		<g>
			<path fill="#FFFFFF" d="M38,137.1c1,0,1-1.6,0-1.6C37,135.5,37,137.1,38,137.1L38,137.1z"/>
		</g>
		<g>
			<path fill="#FFFFFF" d="M57.6,35.7c1,0,1-1.6,0-1.6C56.5,34.1,56.5,35.7,57.6,35.7L57.6,35.7z"/>
		</g>
		<g>
			<path fill="#FFFFFF" d="M182.9,35.7c1,0,1-1.6,0-1.6C181.9,34.1,181.9,35.7,182.9,35.7L182.9,35.7z"/>
		</g>
		<g>
			<path fill="#FFFFFF" d="M145.2,192.7c2,0,2-3,0-3C143.2,189.6,143.2,192.7,145.2,192.7L145.2,192.7z"/>
		</g>
		<g>
			<path fill="#FFFFFF" d="M78,211.9c1,0,1-1.6,0-1.6C76.9,210.3,76.9,211.9,78,211.9L78,211.9z"/>
		</g>
		<g>
			<path fill="#FFFFFF" d="M171,277.9c1.3,0,1.3-2,0-2C169.6,275.9,169.6,277.9,171,277.9L171,277.9z"/>
		</g>
		<g>
			<path fill="#FFFFFF" d="M97.2,268.1c1,0,1-1.6,0-1.6C96.1,266.6,96.1,268.1,97.2,268.1L97.2,268.1z"/>
		</g>
		<g>
			<path fill="#FFFFFF" d="M36.9,148.9c1,0,1-1.6,0-1.6C35.9,147.3,35.9,148.9,36.9,148.9L36.9,148.9z"/>
		</g>
		<g>
			<path fill="#FFFFFF" d="M151,142.1c1,0,1-1.6,0-1.6C149.9,140.5,149.9,142.1,151,142.1L151,142.1z"/>
		</g>
		<g>
			<path fill="#FFFFFF" d="M471.2,339.5c1,0,1-1.6,0-1.6C470.1,337.9,470.1,339.5,471.2,339.5L471.2,339.5z"/>
		</g>
		<g>
			<path fill="#FFFFFF" d="M427.3,443.2c1,0,1-1.6,0-1.6C426.2,441.6,426.2,443.2,427.3,443.2L427.3,443.2z"/>
		</g>
		<g>
			<path fill="#FFFFFF" d="M444.2,367c1,0,1-1.6,0-1.6C443.2,365.4,443.2,367,444.2,367L444.2,367z"/>
		</g>
		<g>
			<path fill="#FFFFFF" d="M278.4,70.6c1,0,1-1.6,0-1.6C277.4,69,277.4,70.6,278.4,70.6L278.4,70.6z"/>
		</g>
		<g>
			<path fill="#FFFFFF" d="M452.5,201.2c1.3,0,1.3-2,0-2C451.2,199.2,451.2,201.2,452.5,201.2L452.5,201.2z"/>
		</g>
		<g>
			<path fill="#FFFFFF" d="M503.2,81.8c1,0,1-1.6,0-1.6C502.1,80.2,502.1,81.8,503.2,81.8L503.2,81.8z"/>
		</g>
		<g>
			<path fill="#FFFFFF" d="M471.2,35.7c1,0,1-1.6,0-1.6C470.1,34.1,470.1,35.7,471.2,35.7L471.2,35.7z"/>
		</g>
		<g>
			<path fill="#FFFFFF" d="M305.4,87.5c1,0,1-1.6,0-1.6C304.3,85.9,304.3,87.5,305.4,87.5L305.4,87.5z"/>
		</g>
		<g>
			<path fill="#FFFFFF" d="M1.9,352.9c1,0,1-1.6,0-1.6C0.8,351.3,0.8,352.9,1.9,352.9L1.9,352.9z"/>
		</g>
		<g>
			<path fill="#FFFFFF" d="M397,35.7c1,0,1-1.6,0-1.6C395.9,34.1,395.9,35.7,397,35.7L397,35.7z"/>
		</g>
		<g>
			<path fill="#FFFFFF" d="M257.2,114.1c1,0,1-1.6,0-1.6C256.2,112.5,256.2,114.1,257.2,114.1L257.2,114.1z"/>
		</g>
		<g>
			<path fill="#FFFFFF" d="M407.3,116.7c1,0,1-1.6,0-1.6C406.2,115.1,406.2,116.7,407.3,116.7L407.3,116.7z"/>
		</g>
		<g>
			<path fill="#FFFFFF" d="M75.8,103.9c1,0,1-1.6,0-1.6C74.8,102.3,74.8,103.9,75.8,103.9L75.8,103.9z"/>
		</g>
		<g>
			<path fill="#FFFFFF" d="M323.9,116.7c1,0,1-1.6,0-1.6C322.8,115.1,322.8,116.7,323.9,116.7L323.9,116.7z"/>
		</g>
		<g>
			<path fill="#FFFFFF" d="M199.2,248.3c1,0,1-1.6,0-1.6C198.1,246.7,198.1,248.3,199.2,248.3L199.2,248.3z"/>
		</g>
		<g>
			<path fill="#FFFFFF" d="M158.9,50.5c1,0,1-1.6,0-1.6S157.8,50.5,158.9,50.5L158.9,50.5z"/>
		</g>
		<g>
			<path fill="#FFFFFF" d="M343.1,87.4c1,0,1-1.6,0-1.6C342,85.8,342,87.4,343.1,87.4L343.1,87.4z"/>
		</g>
		<g>
			<path fill="#FFFFFF" d="M88.7,172.6c1,0,1-1.6,0-1.6C87.7,171,87.7,172.6,88.7,172.6L88.7,172.6z"/>
		</g>
		<g>
			<path fill="#FFFFFF" d="M9.3,170.5c1,0,1-1.6,0-1.6C8.3,168.9,8.3,170.5,9.3,170.5L9.3,170.5z"/>
		</g>
		<g>
			<path fill="#FFFFFF" d="M480.5,252c2,0,2-3,0-3S478.5,252,480.5,252L480.5,252z"/>
		</g>
		<g>
			<path fill="#FFFFFF" d="M240.9,85.2c1.3,0,1.3-2,0-2S239.5,85.2,240.9,85.2L240.9,85.2z"/>
		</g>
		<g>
			<path fill="#FFFFFF" d="M266,44.6c1,0,1-1.6,0-1.6C264.9,43,264.9,44.6,266,44.6L266,44.6z"/>
		</g>
		<g>
			<path fill="#FFFFFF" d="M490.9,187.4c1,0,1-1.6,0-1.6C489.8,185.8,489.8,187.4,490.9,187.4L490.9,187.4z"/>
		</g>
		<g>
			<path fill="#FFFFFF" d="M111.2,170.5c1,0,1-1.6,0-1.6C110.1,168.9,110.1,170.5,111.2,170.5L111.2,170.5z"/>
		</g>
		<g>
			<path fill="#FFFFFF" d="M386.5,165c2.7,0,2.7-4.1,0-4.1C383.9,160.9,383.9,165,386.5,165L386.5,165z"/>
		</g>
		<rect y="9.8" fill="none" width="500" height="491.2"/>
	</g>
</g>
<g id="DESIGNED_BY_FREEPIK">
</g>
</svg>
