<?xml version="1.0" encoding="UTF-8" standalone="no"?>
<svg
   xmlns:svg="http://www.w3.org/2000/svg"
   xmlns="http://www.w3.org/2000/svg"
   xmlns:sodipodi="http://sodipodi.sourceforge.net/DTD/sodipodi-0.dtd"
   xmlns:inkscape="http://www.inkscape.org/namespaces/inkscape"
   id="svg8"
   version="1.1"
   viewBox="0 0 137.15524 18.233538"
   height="18.233538mm"
   width="137.15524mm"
   sodipodi:docname="StellarStarLogo.svg"
   inkscape:version="0.92.4 (5da689c313, 2019-01-14)">
  <sodipodi:namedview
     pagecolor="#ffffff"
     bordercolor="#666666"
     borderopacity="1"
     objecttolerance="10"
     gridtolerance="10"
     guidetolerance="10"
     inkscape:pageopacity="0"
     inkscape:pageshadow="2"
     inkscape:window-width="1920"
     inkscape:window-height="1017"
     id="namedview863"
     showgrid="false"
     inkscape:zoom="1.9287879"
     inkscape:cx="440.40739"
     inkscape:cy="-1.0489232"
     inkscape:window-x="-8"
     inkscape:window-y="-8"
     inkscape:window-maximized="1"
     inkscape:current-layer="layer1"
     showguides="false" />
  <defs
     id="defs2" />
  <g
     id="g961"
     transform="translate(0,-7.1966141)">
    <g
       id="layer1"
       transform="translate(-31.022472,-250.58386)">
      <g
         aria-label="STELLARGAZE"
         style="font-style:normal;font-variant:normal;font-weight:normal;font-stretch:normal;font-size:22.57777786px;line-height:1.25;font-family:Lato;-inkscape-font-specification:Lato;letter-spacing:0px;word-spacing:0px;fill:#dadada;fill-opacity:1;stroke:none;stroke-width:0.26458332;stroke-opacity:1"
         id="text1818">
        <path
           d="m 41.013138,262.47859 q -0.124177,0.24835 -0.293511,0.34995 -0.158044,0.1016 -0.383822,0.1016 -0.225778,0 -0.508,-0.16933 -0.282222,-0.18062 -0.666044,-0.39511 -0.383823,-0.21449 -0.903111,-0.38382 -0.508,-0.18063 -1.207912,-0.18063 -0.632177,0 -1.106311,0.15805 -0.462844,0.14675 -0.790222,0.41769 -0.316089,0.27093 -0.474133,0.65475 -0.158045,0.37254 -0.158045,0.82409 0,0.57574 0.316089,0.95956 0.327378,0.38382 0.857956,0.65475 0.530577,0.27094 1.207911,0.48543 0.677333,0.21448 1.377244,0.46284 0.7112,0.23707 1.388534,0.56444 0.677333,0.31609 1.207911,0.8128 0.530578,0.48543 0.846666,1.19663 0.327378,0.7112 0.327378,1.7272 0,1.10631 -0.383822,2.07715 -0.372533,0.95956 -1.106311,1.68205 -0.722489,0.7112 -1.772356,1.12889 -1.049866,0.4064 -2.404533,0.4064 -0.778933,0 -1.535289,-0.15805 -0.756356,-0.14675 -1.456267,-0.42898 -0.688622,-0.28222 -1.298222,-0.67733 -0.598311,-0.39511 -1.072444,-0.88053 l 0.880533,-1.45627 q 0.124178,-0.15804 0.293511,-0.25964 0.180622,-0.11289 0.395111,-0.11289 0.282222,0 0.6096,0.23706 0.327378,0.22578 0.767645,0.508 0.451555,0.28223 1.049866,0.51929 0.6096,0.22578 1.456267,0.22578 1.298222,0 2.009422,-0.6096 0.7112,-0.62089 0.7112,-1.77236 0,-0.64346 -0.327377,-1.04986 -0.316089,-0.4064 -0.846667,-0.67734 -0.530578,-0.28222 -1.207911,-0.47413 -0.677334,-0.19191 -1.377245,-0.41769 -0.699911,-0.22578 -1.377244,-0.54186 -0.677334,-0.31609 -1.207911,-0.82409 -0.530578,-0.508 -0.857956,-1.26436 -0.316089,-0.76764 -0.316089,-1.88524 0,-0.89183 0.349956,-1.73849 0.361244,-0.84667 1.038578,-1.50142 0.688622,-0.65476 1.682044,-1.04987 0.993422,-0.39511 2.269067,-0.39511 1.444978,0 2.664178,0.45155 1.2192,0.45156 2.077155,1.26436 z"
           style="letter-spacing:-0.8387292px;fill:#dadada;fill-opacity:1;stroke:none;stroke-opacity:1"
           id="path964"
           inkscape:connector-curvature="0" />
        <path
           d="m 55.055634,259.50961 v 2.49484 h -4.910667 v 13.82889 h -3.036711 v -13.82889 h -4.933244 v -2.49484 z"
           style="letter-spacing:-1.24883342px"
           id="path966"
           inkscape:connector-curvature="0" />
        <path
           d="m 66.048541,259.50961 v 2.41582 h -7.236178 v 4.52685 h 5.700889 v 2.3368 h -5.700889 v 4.61715 h 7.236178 v 2.42711 H 55.753074 v -16.32373 z"
           style="letter-spacing:-1.65893745px"
           id="path968"
           inkscape:connector-curvature="0" />
        <path
           d="m 70.051334,273.32721 h 6.536267 v 2.50613 h -9.572978 v -16.32373 h 3.036711 z"
           style="letter-spacing:-1.06362498px"
           id="path970"
           inkscape:connector-curvature="0" />
        <path
           d="m 80.673473,273.32721 h 6.536267 v 2.50613 h -9.572978 v -16.32373 h 3.036711 z"
           style="letter-spacing:0.14287502px;fill:#dadada;fill-opacity:1;stroke:none;stroke-opacity:1"
           id="path972"
           inkscape:connector-curvature="0" />
        <path
           d="m 103.81358,275.83334 h -2.34809 q -0.39511,0 -0.65475,-0.19191 -0.24836,-0.2032 -0.36125,-0.49671 l -1.219199,-3.33022 h -6.762044 l -1.2192,3.33022 q -0.09031,0.25965 -0.361245,0.47413 -0.259644,0.21449 -0.643466,0.21449 h -2.359378 l 6.412089,-16.32373 h 3.104444 z m -10.5664,-6.16373 h 5.204178 l -1.986845,-5.42996 q -0.135466,-0.36124 -0.3048,-0.84666 -0.158044,-0.49671 -0.316088,-1.07245 -0.158045,0.57574 -0.316089,1.07245 -0.146756,0.49671 -0.293511,0.86924 z"
           style="letter-spacing:-1.07420838px;fill:#dadada;fill-opacity:1;stroke:none;stroke-opacity:1"
           id="path974"
           inkscape:connector-curvature="0" />
        <path
           d="m 107.5809,269.45512 v 6.37822 h -3.03671 v -16.32373 h 4.9784 q 1.67075,0 2.85609,0.34996 1.19662,0.33866 1.95297,0.95955 0.76765,0.62089 1.1176,1.49013 0.36125,0.85796 0.36125,1.89654 0,0.82409 -0.24836,1.55786 -0.23706,0.73378 -0.69991,1.33209 -0.45155,0.59831 -1.12889,1.04987 -0.66604,0.45156 -1.524,0.72249 0.57574,0.32738 0.99342,0.93698 l 4.08658,6.02826 h -2.73191 q -0.39511,0 -0.67733,-0.15804 -0.27094,-0.15805 -0.46285,-0.45156 l -3.43182,-5.22675 q -0.19191,-0.29351 -0.42898,-0.41769 -0.22577,-0.12418 -0.67733,-0.12418 z m 0,-2.17875 h 1.89653 q 0.85796,0 1.49013,-0.21449 0.64347,-0.21449 1.04987,-0.58703 0.41769,-0.38382 0.62089,-0.90311 0.2032,-0.51929 0.2032,-1.14017 0,-1.24178 -0.82409,-1.90783 -0.8128,-0.66604 -2.49484,-0.66604 h -1.94169 z"
           style="letter-spacing:-2.08227086px;fill:#dadada;fill-opacity:1;stroke:none;stroke-opacity:1"
           id="path976"
           inkscape:connector-curvature="0" />
        <path
           d="m 124.71902,275.07699 q 0.82409,0 1.50142,-0.079 0.67734,-0.0903 1.25307,-0.25965 0.58702,-0.16933 1.10631,-0.4064 0.53058,-0.24835 1.06116,-0.55315 v -4.30107 h -3.07058 q -0.12418,0 -0.21449,-0.079 -0.079,-0.079 -0.079,-0.18063 v -0.63217 h 4.41395 v 5.67831 q -0.59831,0.41769 -1.24178,0.74506 -0.64346,0.32738 -1.37724,0.55316 -0.73378,0.21449 -1.58044,0.32738 -0.84667,0.12418 -1.85138,0.12418 -1.7272,0 -3.16089,-0.57574 -1.4224,-0.58702 -2.44969,-1.64818 -1.016,-1.07244 -1.58044,-2.58515 -0.56445,-1.51271 -0.56445,-3.36409 0,-1.85138 0.56445,-3.3528 0.56444,-1.51271 1.60302,-2.57387 1.03858,-1.07244 2.51742,-1.64817 1.49013,-0.58703 3.33022,-0.58703 0.9144,0 1.68205,0.12418 0.77893,0.12418 1.44497,0.37253 0.66605,0.23707 1.24178,0.59832 0.57574,0.34995 1.10631,0.8128 l -0.3048,0.49671 q -0.1016,0.16933 -0.28222,0.16933 -0.1016,0 -0.19191,-0.0452 -0.16933,-0.0677 -0.49671,-0.31608 -0.31609,-0.24836 -0.86925,-0.51929 -0.54186,-0.27094 -1.36595,-0.48543 -0.82409,-0.21448 -1.99813,-0.21448 -1.55787,0 -2.81094,0.49671 -1.25306,0.49671 -2.14489,1.4224 -0.88053,0.92569 -1.36595,2.25777 -0.47414,1.33209 -0.47414,2.99156 0,1.69333 0.48543,3.03671 0.48542,1.34338 1.35466,2.28036 0.88054,0.92569 2.09974,1.4224 1.23049,0.49671 2.70933,0.49671 z"
           style="letter-spacing:-1.22502089px;fill:#dadada;fill-opacity:1;stroke:none;stroke-opacity:1"
           id="path978"
           inkscape:connector-curvature="0" />
        <path
           d="m 145.54226,275.83334 h -0.89182 q -0.15805,0 -0.25965,-0.079 -0.1016,-0.0903 -0.15804,-0.22578 l -1.88525,-4.63973 h -7.84578 l -1.87395,4.63973 q -0.0452,0.12418 -0.15805,0.21449 -0.11289,0.0903 -0.27093,0.0903 h -0.88053 l 6.53626,-15.97377 h 1.15147 z m -10.69058,-5.80249 h 7.15716 l -3.26249,-8.07155 q -0.079,-0.19191 -0.15805,-0.42898 -0.079,-0.24835 -0.15804,-0.51929 -0.079,0.27094 -0.15805,0.51929 -0.079,0.23707 -0.15804,0.44027 z"
           style="font-style:normal;font-variant:normal;font-weight:300;font-stretch:normal;line-height:2;font-family:Lato;-inkscape-font-specification:'Lato Light';letter-spacing:-0.91545832px;fill:#dadada;fill-opacity:1;stroke:none;stroke-opacity:1"
           id="path980"
           inkscape:connector-curvature="0" />
        <path
           d="m 157.91452,259.85957 v 0.39511 q 0,0.23706 -0.15804,0.46284 l -10.13743,14.15627 h 10.20516 v 0.95955 h -11.74044 v -0.41769 q 0,-0.21448 0.13546,-0.4064 l 10.16,-14.19013 h -10.00195 v -0.95955 z"
           style="letter-spacing:-2.83897901px"
           id="path982"
           inkscape:connector-curvature="0" />
        <path
           d="m 168.17771,259.85957 v 0.95955 h -8.41022 v 6.45725 h 6.99911 v 0.93697 h -6.99911 v 6.66045 h 8.41022 v 0.95955 h -9.57298 v -15.97377 z"
           style="letter-spacing:-2.83897901px"
           id="path984"
           inkscape:connector-curvature="0" />
      </g>
      <g
         id="g11302"
         transform="matrix(0.99049196,0.05363659,-0.05363659,0.99049196,12.916669,-3.9501333)">
        <g
           id="g11310"
           transform="rotate(2.9729671,159.14606,163.38029)">
          <rect
             style="fill:#dadada;fill-opacity:0.81935485;stroke:none;stroke-width:0;stroke-miterlimit:4;stroke-dasharray:none;stroke-opacity:1"
             id="rect11316"
             width="51.166626"
             height="0.96023166"
             x="96.245895"
             y="271.40912"
             transform="rotate(-6.0725901)" />
        </g>
      </g>
    </g>
  </g>
</svg>
