<?xml version="1.0" encoding="UTF-8"?>
<svg width="137.16mm" height="18.234mm" version="1.1" viewBox="0 0 137.16 18.234" xmlns="http://www.w3.org/2000/svg">
<g transform="translate(0 -7.1966)">
<g transform="translate(-31.022 -250.58)">
<g fill="#dadada" stroke-width=".26458" aria-label="STELLARGAZE">
<path d="m41.013 262.48q-0.12418 0.24835-0.29351 0.34995-0.15804 0.1016-0.38382 0.1016t-0.508-0.16933q-0.28222-0.18062-0.66604-0.39511-0.38382-0.21449-0.90311-0.38382-0.508-0.18063-1.2079-0.18063-0.63218 0-1.1063 0.15805-0.46284 0.14675-0.79022 0.41769-0.31609 0.27093-0.47413 0.65475-0.15804 0.37254-0.15804 0.82409 0 0.57574 0.31609 0.95956 0.32738 0.38382 0.85796 0.65475 0.53058 0.27094 1.2079 0.48543 0.67733 0.21448 1.3772 0.46284 0.7112 0.23707 1.3885 0.56444 0.67733 0.31609 1.2079 0.8128 0.53058 0.48543 0.84667 1.1966 0.32738 0.7112 0.32738 1.7272 0 1.1063-0.38382 2.0772-0.37253 0.95956-1.1063 1.682-0.72249 0.7112-1.7724 1.1289-1.0499 0.4064-2.4045 0.4064-0.77893 0-1.5353-0.15805-0.75636-0.14675-1.4563-0.42898-0.68862-0.28222-1.2982-0.67733-0.59831-0.39511-1.0724-0.88053l0.88053-1.4563q0.12418-0.15804 0.29351-0.25964 0.18062-0.11289 0.39511-0.11289 0.28222 0 0.6096 0.23706 0.32738 0.22578 0.76764 0.508 0.45156 0.28223 1.0499 0.51929 0.6096 0.22578 1.4563 0.22578 1.2982 0 2.0094-0.6096 0.7112-0.62089 0.7112-1.7724 0-0.64346-0.32738-1.0499-0.31609-0.4064-0.84667-0.67734-0.53058-0.28222-1.2079-0.47413-0.67733-0.19191-1.3772-0.41769t-1.3772-0.54186q-0.67733-0.31609-1.2079-0.82409-0.53058-0.508-0.85796-1.2644-0.31609-0.76764-0.31609-1.8852 0-0.89183 0.34996-1.7385 0.36124-0.84667 1.0386-1.5014 0.68862-0.65476 1.682-1.0499t2.2691-0.39511q1.445 0 2.6642 0.45155 1.2192 0.45156 2.0772 1.2644z" fill="#dadada"/>
<path d="m55.056 259.51v2.4948h-4.9107v13.829h-3.0367v-13.829h-4.9332v-2.4948z"/>
<path d="m66.049 259.51v2.4158h-7.2362v4.5268h5.7009v2.3368h-5.7009v4.6172h7.2362v2.4271h-10.295v-16.324z"/>
<path d="m70.051 273.33h6.5363v2.5061h-9.573v-16.324h3.0367z"/>
<path d="m80.673 273.33h6.5363v2.5061h-9.573v-16.324h3.0367z" fill="#dadada"/>
<path d="m103.81 275.83h-2.3481q-0.39511 0-0.65475-0.19191-0.24836-0.2032-0.36125-0.49671l-1.2192-3.3302h-6.762l-1.2192 3.3302q-0.09031 0.25965-0.36124 0.47413-0.25964 0.21449-0.64347 0.21449h-2.3594l6.4121-16.324h3.1044zm-10.566-6.1637h5.2042l-1.9868-5.43q-0.13547-0.36124-0.3048-0.84666-0.15804-0.49671-0.31609-1.0724-0.15804 0.57574-0.31609 1.0724-0.14676 0.49671-0.29351 0.86924z" fill="#dadada"/>
<path d="m107.58 269.46v6.3782h-3.0367v-16.324h4.9784q1.6708 0 2.8561 0.34996 1.1966 0.33866 1.953 0.95955 0.76765 0.62089 1.1176 1.4901 0.36125 0.85796 0.36125 1.8965 0 0.82409-0.24836 1.5579-0.23706 0.73378-0.69991 1.3321-0.45155 0.59831-1.1289 1.0499-0.66604 0.45156-1.524 0.72249 0.57574 0.32738 0.99342 0.93698l4.0866 6.0283h-2.7319q-0.39511 0-0.67733-0.15804-0.27094-0.15805-0.46285-0.45156l-3.4318-5.2268q-0.19191-0.29351-0.42898-0.41769-0.22577-0.12418-0.67733-0.12418zm0-2.1788h1.8965q0.85796 0 1.4901-0.21449 0.64347-0.21449 1.0499-0.58703 0.41769-0.38382 0.62089-0.90311t0.2032-1.1402q0-1.2418-0.82409-1.9078-0.8128-0.66604-2.4948-0.66604h-1.9417z" fill="#dadada"/>
<path d="m124.72 275.08q0.82409 0 1.5014-0.079 0.67734-0.0903 1.2531-0.25965 0.58702-0.16933 1.1063-0.4064 0.53058-0.24835 1.0612-0.55315v-4.3011h-3.0706q-0.12418 0-0.21449-0.079-0.079-0.079-0.079-0.18063v-0.63217h4.414v5.6783q-0.59831 0.41769-1.2418 0.74506-0.64346 0.32738-1.3772 0.55316-0.73378 0.21449-1.5804 0.32738-0.84667 0.12418-1.8514 0.12418-1.7272 0-3.1609-0.57574-1.4224-0.58702-2.4497-1.6482-1.016-1.0724-1.5804-2.5852-0.56445-1.5127-0.56445-3.3641t0.56445-3.3528q0.56444-1.5127 1.603-2.5739 1.0386-1.0724 2.5174-1.6482 1.4901-0.58703 3.3302-0.58703 0.9144 0 1.682 0.12418 0.77893 0.12418 1.445 0.37253 0.66605 0.23707 1.2418 0.59832 0.57574 0.34995 1.1063 0.8128l-0.3048 0.49671q-0.1016 0.16933-0.28222 0.16933-0.1016 0-0.19191-0.0452-0.16933-0.0677-0.49671-0.31608-0.31609-0.24836-0.86925-0.51929-0.54186-0.27094-1.366-0.48543-0.82409-0.21448-1.9981-0.21448-1.5579 0-2.8109 0.49671-1.2531 0.49671-2.1449 1.4224-0.88053 0.92569-1.366 2.2578-0.47414 1.3321-0.47414 2.9916 0 1.6933 0.48543 3.0367 0.48542 1.3434 1.3547 2.2804 0.88054 0.92569 2.0997 1.4224 1.2305 0.49671 2.7093 0.49671z" fill="#dadada"/>
<path d="m145.54 275.83h-0.89182q-0.15805 0-0.25965-0.079-0.1016-0.0903-0.15804-0.22578l-1.8852-4.6397h-7.8458l-1.874 4.6397q-0.0452 0.12418-0.15805 0.21449-0.11289 0.0903-0.27093 0.0903h-0.88053l6.5363-15.974h1.1515zm-10.691-5.8025h7.1572l-3.2625-8.0716q-0.079-0.19191-0.15805-0.42898-0.079-0.24835-0.15804-0.51929-0.079 0.27094-0.15805 0.51929-0.079 0.23707-0.15804 0.44027z" fill="#dadada"/>
<path d="m157.91 259.86v0.39511q0 0.23706-0.15804 0.46284l-10.137 14.156h10.205v0.95955h-11.74v-0.41769q0-0.21448 0.13546-0.4064l10.16-14.19h-10.002v-0.95955z"/>
<path d="m168.18 259.86v0.95955h-8.4102v6.4572h6.9991v0.93697h-6.9991v6.6604h8.4102v0.95955h-9.573v-15.974z"/>
</g>
<g transform="matrix(.99049 .053637 -.053637 .99049 12.917 -3.9501)">
<g transform="rotate(2.973 159.15 163.38)">
<rect transform="rotate(-6.0726)" x="96.246" y="271.41" width="51.167" height=".96023" fill="#dadada" fill-opacity=".81935"/>
</g>
</g>
</g>
</g>
</svg>
