<svg id="svg8" xmlns="http://www.w3.org/2000/svg" viewBox="0 0 388.54172 72.08534"><defs><style>.cls-1{fill:#edd9c0;}.cls-10,.cls-11,.cls-12,.cls-2,.cls-4,.cls-5,.cls-6,.cls-7,.cls-8,.cls-9{fill:#dadada;}.cls-10,.cls-12,.cls-3,.cls-4,.cls-5,.cls-6,.cls-7,.cls-8,.cls-9{isolation:isolate;}.cls-10,.cls-11,.cls-12,.cls-4,.cls-5,.cls-6,.cls-7,.cls-8,.cls-9{font-size:64px;}.cls-4,.cls-5,.cls-6,.cls-7,.cls-8,.cls-9{font-family:Lato-Bold, Lato;font-weight:700;}.cls-4{letter-spacing:-0.037em;}.cls-5{letter-spacing:-0.055em;}.cls-6{letter-spacing:-0.073em;}.cls-7{letter-spacing:-0.047em;}.cls-8{letter-spacing:0.006em;}.cls-9{letter-spacing:-0.092em;}.cls-10,.cls-11,.cls-12{font-family:Lato-Light, Lato;font-weight:300;}.cls-10{letter-spacing:-0.054em;}.cls-11{letter-spacing:-0.03999em;}.cls-12{letter-spacing:-0.125em;}</style></defs><title>StellarStarLogo</title><g id="layer1"><g id="g1798"><g id="g1735"><g id="g1002"><g id="g1000"><polygon id="polygon1719" class="cls-1" points="382.544 9.433 386.621 6.858 382.097 5.188 380.909 0.515 377.922 4.301 373.111 3.987 375.788 7.997 374.003 12.476 378.644 11.169 382.353 14.251 382.544 9.433"/><path id="path1721" class="cls-2" d="M388.40386,7.88782a1.03031,1.03031,0,0,1-.34179.35564l-3.6196,2.28538-.16939,4.27735a1.02952,1.02952,0,0,1-1.68672.751l-3.29217-2.7364-4.12049,1.16076a1.02943,1.02943,0,0,1-1.23534-1.372l1.585-3.97644-2.37721-3.56017a1.02925,1.02925,0,0,1,.923-1.59869l4.2718.27863,2.65132-3.361a1.02943,1.02943,0,0,1,1.80586.38383l1.0549,4.149,4.01587,1.48291a1.02943,1.02943,0,0,1,.535,1.48022Zm-5.86028,1.54493a1.02889,1.02889,0,0,1,.34191-.35582l2.31358-1.4608-2.56666-.9479a1.02939,1.02939,0,0,1-.64115-.712L381.317,3.30435l-1.69457,2.14817a1.03013,1.03013,0,0,1-.87525.38977l-2.73039-.178,1.51935,2.27558a1.02915,1.02915,0,0,1,.10007.95288l-1.01308,2.54162,2.63369-.742a1.0294,1.0294,0,0,1,.93721.19923l2.10423,1.74884.1083-2.734A1.0267,1.0267,0,0,1,382.54358,9.43275Z"/><path id="path1723" class="cls-2" d="M293.54813,26.06171a1.02527,1.02527,0,0,1-.407.39287c-1.20169.64017-2.417,1.30885-3.61232,1.9874a1.0295,1.0295,0,0,1-1.01611-1.79081c1.21107-.68729,2.44268-1.36486,3.66019-2.01349a1.02947,1.02947,0,0,1,1.37528,1.424Z"/><path id="path1725" class="cls-2" d="M368.49833,7.91865a1.02929,1.02929,0,0,1-.90834.51545,153.29857,153.29857,0,0,0-69.455,15.47465,1.02942,1.02942,0,0,1-.90182-1.85083,155.1282,155.1282,0,0,1,70.38917-15.6823,1.02981,1.02981,0,0,1,.876,1.543Z"/><path id="path1727" class="cls-2" d="M368.97344,12.20673a1.02825,1.02825,0,0,1-.8413.51421,154.17045,154.17045,0,0,0-30.38189,4.57081c-2.8255.71972-5.66354,1.5299-8.43546,2.408a1.02946,1.02946,0,0,1-.62178-1.96279c2.809-.89,5.68539-1.711,8.54884-2.44047a156.22748,156.22748,0,0,1,30.78828-4.63192,1.03,1.03,0,0,1,.94331,1.54218Z"/><path id="path1729" class="cls-2" d="M329.01187,5.60131a1.02736,1.02736,0,0,1-.71117.49924,156.9525,156.9525,0,0,0-28.573,7.85114,1.0295,1.0295,0,0,1-.737-1.92257,159.01571,159.01571,0,0,1,28.94859-7.9557,1.0298,1.0298,0,0,1,1.07257,1.52789Z"/><path id="path1731" class="cls-2" d="M363.38965,3.32422a1.02911,1.02911,0,0,1-.94571.51385,144.75518,144.75518,0,0,0-28.70727,1.39358A1.02944,1.02944,0,0,1,333.435,3.195a146.78583,146.78583,0,0,1,29.11632-1.41275,1.02939,1.02939,0,0,1,.83836,1.542Z"/><path id="path1733" class="cls-2" d="M370.08213,3.8141a1.02979,1.02979,0,0,1-.99079.51041c-.7038-.0678-1.42039-.13157-2.12967-.18945a1.02951,1.02951,0,1,1,.16755-2.0522c.719.05874,1.4455.12347,2.15948.19215a1.03029,1.03029,0,0,1,.79343,1.53909Z"/></g></g></g></g><g id="text1818" class="cls-3"><text class="cls-4" transform="translate(-1.15234 71.57227)">S</text><text class="cls-5" transform="translate(30.80566 71.57227)">T</text><text class="cls-6" transform="translate(65.34473 71.57227)">E</text><text class="cls-7" transform="translate(97.28223 71.57227)">L</text><text class="cls-8" transform="translate(127.35449 71.57227)">L</text><text class="cls-7" transform="translate(160.84766 71.57227)">A</text><text class="cls-9" transform="translate(203.24219 71.57227)">R</text><text class="cls-10" transform="translate(239.25977 71.57227)">G</text><text class="cls-11" transform="translate(283.69043 71.57227)">A</text><text class="cls-12" transform="translate(322.34277 71.57227)">ZE</text></g></g></svg>