<?xml version="1.0" encoding="UTF-8" standalone="no"?>
<svg
   xmlns:dc="http://purl.org/dc/elements/1.1/"
   xmlns:cc="http://creativecommons.org/ns#"
   xmlns:rdf="http://www.w3.org/1999/02/22-rdf-syntax-ns#"
   xmlns:svg="http://www.w3.org/2000/svg"
   xmlns="http://www.w3.org/2000/svg"
   height="22.493126"
   width="39.999992"
   id="svg4674"
   enable-background="new 0 0 470.005 470.005"
   viewBox="0 0 39.999992 22.493126"
   version="1.1">
  <metadata
     id="metadata4680">
    <rdf:RDF>
      <cc:Work
         rdf:about="">
        <dc:format>image/svg+xml</dc:format>
        <dc:type
           rdf:resource="http://purl.org/dc/dcmitype/StillImage" />
        <dc:title></dc:title>
      </cc:Work>
    </rdf:RDF>
  </metadata>
  <defs
     id="defs4678" />
  <g
     transform="translate(-215.0021,-120.9006)"
     id="g4672">
    <path
       style="fill:#515b75;fill-opacity:1;stroke-width:0.08510591"
       id="path4668"
       d="m 254.95343,129.13193 -3.24627,-7.83706 c -0.1349,-0.3257 -0.50834,-0.48051 -0.83396,-0.34544 l -10.75219,4.45376 c -0.3257,0.13489 -0.48043,0.50834 -0.34545,0.83395 l 0.0847,0.20443 -17.54467,7.26719 c -0.15642,0.0648 -0.28067,0.18902 -0.34544,0.34544 -0.0649,0.15643 -0.0649,0.33209 0,0.48851 l 0.0847,0.20451 -6.65852,2.7582 c -0.3257,0.13489 -0.48042,0.50834 -0.34544,0.83395 l 1.93037,4.66032 c 0.0648,0.15642 0.18902,0.28068 0.34545,0.34544 0.0782,0.0323 0.16127,0.0486 0.24425,0.0486 0.083,0 0.16604,-0.0162 0.24425,-0.0486 l 6.65861,-2.75803 0.0847,0.20451 c 0.10178,0.24579 0.3394,0.39421 0.58995,0.39421 0.0814,0 0.16417,-0.0157 0.244,-0.0488 l 15.77548,-6.53443 c 0.32571,-0.1349 0.48043,-0.50834 0.34545,-0.83396 -0.13489,-0.3257 -0.50817,-0.4805 -0.83395,-0.34544 l -15.18588,6.29018 -2.09981,-5.06925 16.95505,-7.02294 2.67292,6.45315 c 0.0648,0.15643 0.18902,0.28068 0.34545,0.34545 0.0782,0.0323 0.16127,0.0486 0.24425,0.0486 0.083,0 0.16604,-0.0162 0.24425,-0.0486 l 2.35854,-0.97693 c 6e-4,-2.6e-4 8.39374,-3.47683 8.39374,-3.47683 0.15643,-0.0648 0.28068,-0.18902 0.34545,-0.34545 0.0649,-0.15659 0.0649,-0.33225 8e-5,-0.48868 z m -30.96816,10.27569 -6.0689,2.51377 -1.44178,-3.48091 6.0689,-2.51378 z m 19.97155,-6.41162 -2.67293,-6.45307 c -8e-5,-9e-5 -0.0847,-0.20451 -0.0847,-0.20451 l 1.17949,-0.4886 2.7576,6.65758 z m 2.35888,-0.9771 -2.75761,-6.65758 7.21409,-2.98816 2.75769,6.65758 z" />
  </g>
  <path
     id="path4682"
     d="m -189.07037,141.20171 c -1.66256,-1.51375 -4.66145,-8.06657 -13.74141,-30.02613 -6.99732,-16.922774 -11.61473,-29.013724 -11.61473,-30.413844 0,-1.41611 0.61892,-3.01573 1.58426,-4.09455 1.11377,-1.2447 13.29438,-6.60954 41.01488,-18.06462 21.68684,-8.96176 39.53179,-16.39003 39.65544,-16.50727 0.12366,-0.11725 -0.15922,-1.49501 -0.62861,-3.06173 -0.9057,-3.02294 -0.16046,-6.2133 1.83901,-7.87271 0.51242,-0.42528 47.451809,-20.04971 104.309759,-43.60987 97.9676,-40.594702 103.36728,-42.923153 103.17189,-44.489708 -0.67129,-5.381939 -0.43862,-6.961248 1.27837,-8.677247 2.4813,-2.479876 128.245361,-54.558741 131.790841,-54.574551 1.72065,-0.008 3.1947,0.52468 4.35453,1.57266 2.15837,1.95022 40.57226,94.417149 40.57226,97.662387 0,4.638999 0.1045,4.588559 -66.53916,32.117159 -34.46658,14.23715 -63.70333,26.20589 -64.97055,26.59719 -1.80593,0.55764 -2.84014,0.4558 -4.78376,-0.47104 -2.98444,-1.42319 -1.77359,1.18742 -20.733321,-44.7014697 C 86.296579,-34.503839 82.901559,-42.07246 82.046739,-41.840298 81.444089,-41.676626 42.294929,-25.525179 -4.9513914,-5.9481937 -52.197711,13.628796 -96.398721,31.923576 -103.17586,34.706866 c -6.77713,2.7833 -12.5836,5.30762 -12.90327,5.60959 -0.55053,0.52006 22.868219,58.12351 24.163089,59.43431 0.35144,0.355754 38.73796,-15.17802 90.0446296,-36.43811 52.9299704,-21.93275 90.3293204,-37.05822 91.6304404,-37.05822 1.20911,0 2.80799,0.32624 3.55305,0.72498 1.70769,0.91393 3.48159,4.28798 3.48159,6.62218 0,4.47004 1.46103,3.79938 -97.47837045,44.74539 C -52.167841,99.653266 -95.137931,117.08567 -96.173771,117.08567 c -2.38988,0 -5.147319,-2.15092 -6.288079,-4.90497 -0.48667,-1.17492 -0.95511,-2.13621 -1.04098,-2.13621 -0.0859,0 -18.1477,7.44604 -40.13741,16.54677 -21.98971,9.10073 -40.72877,16.54677 -41.64237,16.54677 -0.91359,0 -2.61809,-0.87134 -3.78776,-1.93632 z m 44.1692,-29.56253 c 19.45659,-8.04149 35.37846,-14.970414 35.38193,-15.397624 0.006,-0.7033 -15.63524,-38.94949 -16.50234,-40.35248 -0.26555,-0.42968 -59.36789,23.42179 -70.93198,28.62545 -1.03449,0.46551 -0.0946,3.16734 7.35006,21.129224 4.69493,11.3275 8.71409,20.60014 8.93147,20.60588 0.21738,0.006 16.31427,-6.56897 35.77086,-14.61045 z m 276.9555,-92.875744 c 3.52084,-1.40919 6.5437,-2.93267 6.71747,-3.38551 0.22053,-0.57468 -30.46395,-76.225628 -31.79175,-78.380886 -0.11517,-0.18693 -13.859221,5.414152 -14.286181,5.822013 -0.19349,0.184832 31.152511,76.485203 32.035401,77.978463 0.43989,0.74399 0.25764,0.7946 7.32506,-2.03408 z m 63.9157,-26.4694597 c 22.59763,-9.3471103 41.22875,-17.3651533 41.40248,-17.8178803 0.2252,-0.586883 -30.71782,-76.815866 -31.78803,-78.310676 -0.13065,-0.18248 -83.12408,34.073128 -84.60555,34.921014 -0.54795,0.313609 4.46522,13.200445 15.45893,39.738634 12.98652,31.3486983 16.4894,39.192698 17.35771,38.8690783 0.59831,-0.22299 19.57682,-8.05307 42.17446,-17.40017 z"
     style="fill:#000000;fill-opacity:0;stroke-width:0.70411807" />
</svg>
