<?xml version="1.0" encoding="UTF-8" standalone="no"?>
<!-- Created with Inkscape (http://www.inkscape.org/) -->

<svg
   xmlns:dc="http://purl.org/dc/elements/1.1/"
   xmlns:cc="http://creativecommons.org/ns#"
   xmlns:rdf="http://www.w3.org/1999/02/22-rdf-syntax-ns#"
   xmlns:svg="http://www.w3.org/2000/svg"
   xmlns="http://www.w3.org/2000/svg"
   xmlns:sodipodi="http://sodipodi.sourceforge.net/DTD/sodipodi-0.dtd"
   xmlns:inkscape="http://www.inkscape.org/namespaces/inkscape"
   width="8.9958334mm"
   height="4.2328687mm"
   viewBox="0 0 8.9958334 4.2328687"
   version="1.1"
   id="svg892"
   inkscape:version="0.92.4 (5da689c313, 2019-01-14)"
   sodipodi:docname="teleThicker.svg">
  <defs
     id="defs886" />
  <sodipodi:namedview
     id="base"
     pagecolor="#ffffff"
     bordercolor="#666666"
     borderopacity="1.0"
     inkscape:pageopacity="0.0"
     inkscape:pageshadow="2"
     inkscape:zoom="11.2"
     inkscape:cx="3.2909005"
     inkscape:cy="1.7425784"
     inkscape:document-units="mm"
     inkscape:current-layer="g1498"
     showgrid="false"
     inkscape:window-width="1920"
     inkscape:window-height="1017"
     inkscape:window-x="-8"
     inkscape:window-y="-8"
     inkscape:window-maximized="1" />
  <metadata
     id="metadata889">
    <rdf:RDF>
      <cc:Work
         rdf:about="">
        <dc:format>image/svg+xml</dc:format>
        <dc:type
           rdf:resource="http://purl.org/dc/dcmitype/StillImage" />
        <dc:title></dc:title>
      </cc:Work>
    </rdf:RDF>
  </metadata>
  <g
     inkscape:label="Layer 1"
     inkscape:groupmode="layer"
     id="layer1"
     transform="translate(-87.728351,-104.88912)">
    <g
       id="g1498"
       transform="matrix(0.26458333,0,0,0.26458333,24.492643,41.034593)">
      <g
         id="g1441"
         transform="matrix(0.06640644,0,0,0.06640644,239.00071,238.99971)">
	<g
   id="g1439">
		<g
   id="g1543"
   transform="matrix(1.0000033,0,0,1.0000033,-8.3785555e-4,-5.0957085e-4)">
  <path
     sodipodi:nodetypes="ccccccccccccccscccccccccsccccscccccccccccccccccccsccccccccccsssss"
     inkscape:connector-curvature="0"
     d="m 362.83203,396.45312 c -0.15657,-0.0297 -0.31964,-0.0296 -0.47851,0.004 l -3.75586,0.78125 c -0.66228,0.13786 -1.08897,0.78688 -0.95118,1.44922 l 0.0508,0.24609 -17.96289,3.74024 c -0.31813,0.0663 -0.59729,0.25561 -0.7754,0.52734 -0.1781,0.27167 -0.2401,0.60197 -0.17382,0.91992 l 0.002,0.01 -5.29102,1.10156 c -0.26688,-0.18587 -0.60596,-0.26656 -0.94921,-0.19531 -0.66232,0.13786 -1.08702,0.78489 -0.94922,1.44727 l 0.71679,3.44335 0.0781,0.37696 c 0.12039,0.57807 0.62909,0.97461 1.19726,0.97461 0.0828,0 0.16782,-0.008 0.25196,-0.0254 0.34358,-0.0715 0.62257,-0.28162 0.79297,-0.5586 l 5.28906,-1.10156 0.002,0.008 c 0.1204,0.57807 0.63105,0.97661 1.19922,0.97656 0.0827,0 0.16586,-0.008 0.25,-0.0254 l 5.22852,-1.08984 c 0.23288,0.83805 0.74094,1.56294 1.42187,2.06836 1.76551,1.37338 3.34132,1.00674 4.59048,3.1e-4 0.94789,-0.70351 1.5625,-1.83111 1.5625,-3.09961 0,-0.18242 -0.0124,-0.36133 -0.0371,-0.53711 l 5.19727,-1.08203 0.0508,0.24609 c 0.0662,0.31809 0.25763,0.59541 0.5293,0.77344 0.20108,0.13175 0.43312,0.20117 0.66992,0.20117 0.0832,0 0.16719,-0.008 0.25,-0.0254 l 3.75781,-0.7832 c 0.66234,-0.13793 1.08715,-0.78688 0.94922,-1.44922 l -1.74219,-8.36914 c -0.0662,-0.31809 -0.25567,-0.59735 -0.52734,-0.77539 -0.1359,-0.089 -0.28679,-0.14798 -0.44336,-0.17774 z m -1.17383,2.65235 1.2461,5.9707 -1.35547,0.28321 -0.041,-0.25782 v -0.0117 h -0.0117 l -1.13086,-5.45703 -0.0605,-0.24609 z m -3.46484,2.22656 0.64453,3.08203 -5.86523,1.22071 c -0.69203,-0.65663 -1.62537,-1.06055 -2.65235,-1.06055 -1.59342,0 -2.96503,0.97206 -3.55273,2.35351 l -4.70117,0.97657 -0.64844,-3.07422 0.008,-0.008 z m -18.9082,5.19727 0.14062,0.66601 -4.96289,1.03321 -0.13867,-0.66602 z m 11.03515,0.49414 c 0.77629,0 1.40821,0.63184 1.40821,1.4082 0,0.77629 -0.63192,1.4082 -1.40821,1.4082 -0.77629,0 -1.4082,-0.63191 -1.4082,-1.4082 0,-0.77636 0.63191,-1.4082 1.4082,-1.4082 z"
     style="stroke-width:0.06640644"
     transform="matrix(15.058781,0,0,15.058781,-4993.0599,-5934.5312)"
     id="path1437" />
</g>

	</g>

</g>
      <g
         id="g1443">
</g>
      <g
         id="g1445">
</g>
      <g
         id="g1447">
</g>
      <g
         id="g1449">
</g>
      <g
         id="g1451">
</g>
      <g
         id="g1453">
</g>
      <g
         id="g1455">
</g>
      <g
         id="g1457">
</g>
      <g
         id="g1459">
</g>
      <g
         id="g1461">
</g>
      <g
         id="g1463">
</g>
      <g
         id="g1465">
</g>
      <g
         id="g1467">
</g>
      <g
         id="g1469">
</g>
      <g
         id="g1471">
</g>
    </g>
  </g>
</svg>
