<?xml version="1.0" encoding="UTF-8" standalone="no"?>
<!-- Generator: Adobe Illustrator 16.0.0, SVG Export Plug-In . SVG Version: 6.00 Build 0)  -->

<svg
   xmlns:dc="http://purl.org/dc/elements/1.1/"
   xmlns:cc="http://creativecommons.org/ns#"
   xmlns:rdf="http://www.w3.org/1999/02/22-rdf-syntax-ns#"
   xmlns:svg="http://www.w3.org/2000/svg"
   xmlns="http://www.w3.org/2000/svg"
   xmlns:sodipodi="http://sodipodi.sourceforge.net/DTD/sodipodi-0.dtd"
   xmlns:inkscape="http://www.inkscape.org/namespaces/inkscape"
   version="1.1"
   id="Capa_1"
   x="0px"
   y="0px"
   width="31.948px"
   height="31.947px"
   viewBox="0 0 31.948 31.947"
   style="enable-background:new 0 0 31.948 31.947;"
   xml:space="preserve"
   sodipodi:docname="telescopeLogo.svg"
   inkscape:version="0.92.4 (5da689c313, 2019-01-14)"><metadata
   id="metadata3793"><rdf:RDF><cc:Work
       rdf:about=""><dc:format>image/svg+xml</dc:format><dc:type
         rdf:resource="http://purl.org/dc/dcmitype/StillImage" /><dc:title></dc:title></cc:Work></rdf:RDF></metadata><defs
   id="defs3791" /><sodipodi:namedview
   pagecolor="#ffffff"
   bordercolor="#666666"
   borderopacity="1"
   objecttolerance="10"
   gridtolerance="10"
   guidetolerance="10"
   inkscape:pageopacity="0"
   inkscape:pageshadow="2"
   inkscape:window-width="1920"
   inkscape:window-height="1017"
   id="namedview3789"
   showgrid="false"
   inkscape:zoom="26.606567"
   inkscape:cx="9.377884"
   inkscape:cy="15.9735"
   inkscape:window-x="-8"
   inkscape:window-y="-8"
   inkscape:window-maximized="1"
   inkscape:current-layer="g3756" />
<g
   id="g3756"
   transform="translate(-0.22550824,0.5637706)">
	<path
   id="path3754"
   d="m 27.58694,4.8866944 2.669922,6.8124996 -1.373047,0.53711 -2.669922,-6.8125003 z m -1.71875,1.7226562 2.09375,5.3417964 -4.566406,1.789063 -2.093751,-5.3417969 z m -4.939454,2.7851562 1.57422,4.0175782 -13.0937509,5.130859 -1.574219,-4.019531 z m -13.3359369,5.6777342 1.265625,3.226562 -2.027344,0.794922 -1.265625,-3.226562 z m -2.257813,1.371094 0.976563,2.490234 -1.763672,0.691406 -0.976562,-2.490234 z m -2.966796,0.769531 0.277343,0.708984 0.763672,-0.296875 0.707031,1.806641 -0.763671,0.296875 0.279297,0.708984 -1.279297,0.503907 -1.263672,-3.226563 z m 14.2519529,6.279297 c -0.01055,0.01628 -0.01523,0.0362 -0.02539,0.05273 -0.01272,0.0047 -0.02659,0.0063 -0.03906,0.01172 0.02045,-0.0193 0.04415,-0.04558 0.06445,-0.06445 z"
   inkscape:connector-curvature="0"
   style="fill:#515b75;fill-opacity:1" />
</g>
<g
   id="g3758">
</g>
<g
   id="g3760">
</g>
<g
   id="g3762">
</g>
<g
   id="g3764">
</g>
<g
   id="g3766">
</g>
<g
   id="g3768">
</g>
<g
   id="g3770">
</g>
<g
   id="g3772">
</g>
<g
   id="g3774">
</g>
<g
   id="g3776">
</g>
<g
   id="g3778">
</g>
<g
   id="g3780">
</g>
<g
   id="g3782">
</g>
<g
   id="g3784">
</g>
<g
   id="g3786">
</g>
<path
   style="fill:#515b75;fill-opacity:0;stroke-width:0.03758471"
   d="M 5.4394256,13.389242 3.1810035,12.503709 3.4487449,11.823787 C 3.5960026,11.44983 4.0626162,10.26019 4.4856639,9.1801418 4.9087117,8.1000937 5.2680749,7.2163833 5.2842488,7.2163409 c 0.028823,-7.57e-5 4.4674564,1.7296704 4.4945505,1.7515372 0.015034,0.012134 -2.0239541,5.2424259 -2.0593078,5.2824149 -0.011904,0.01347 -1.0379338,-0.374008 -2.2800659,-0.861051 z"
   id="path4658"
   inkscape:connector-curvature="0" /><path
   style="fill:#515b75;fill-opacity:0;stroke-width:0.03758471"
   d="m 15.141527,16.514696 c -3.554464,-1.394599 -6.4695476,-2.54252 -6.4779627,-2.550935 -0.017497,-0.0175 1.4916927,-3.893258 1.5347607,-3.941428 0.01553,-0.01737 2.410611,0.901907 5.322408,2.042831 2.911798,1.140924 5.840367,2.287402 6.507932,2.547729 0.945688,0.368786 1.211315,0.486657 1.20271,0.533697 -0.0061,0.03321 -0.349306,0.925991 -0.762738,1.983967 -0.53435,1.367407 -0.767995,1.923039 -0.808071,1.921682 -0.03101,-0.001 -2.964575,-1.142944 -6.519039,-2.537543 z"
   id="path4660"
   inkscape:connector-curvature="0" /><path
   style="fill:#515b75;fill-opacity:0;stroke-width:0.03758471"
   d="m 15.141527,16.514696 c -3.554464,-1.394599 -6.4695476,-2.54252 -6.4779627,-2.550935 -0.017497,-0.0175 1.4916927,-3.893258 1.5347607,-3.941428 0.01553,-0.01737 2.410611,0.901907 5.322408,2.042831 2.911798,1.140924 5.840367,2.287402 6.507932,2.547729 0.945688,0.368786 1.211315,0.486657 1.20271,0.533697 -0.0061,0.03321 -0.349306,0.925991 -0.762738,1.983967 -0.53435,1.367407 -0.767995,1.923039 -0.808071,1.921682 -0.03101,-0.001 -2.964575,-1.142944 -6.519039,-2.537543 z"
   id="path4662"
   inkscape:connector-curvature="0" /><path
   style="fill:#515b75;fill-opacity:0;stroke-width:0.03758471"
   d="m 15.141527,16.514696 c -3.554464,-1.394599 -6.4695476,-2.54252 -6.4779627,-2.550935 -0.017497,-0.0175 1.4916927,-3.893258 1.5347607,-3.941428 0.01553,-0.01737 2.410611,0.901907 5.322408,2.042831 2.911798,1.140924 5.840367,2.287402 6.507932,2.547729 0.945688,0.368786 1.211315,0.486657 1.20271,0.533697 -0.0061,0.03321 -0.349306,0.925991 -0.762738,1.983967 -0.53435,1.367407 -0.767995,1.923039 -0.808071,1.921682 -0.03101,-0.001 -2.964575,-1.142944 -6.519039,-2.537543 z"
   id="path4664"
   inkscape:connector-curvature="0" /><path
   style="fill:#515b75;fill-opacity:0;stroke-width:0.03758471"
   d="m 15.141527,16.514696 c -3.554464,-1.394599 -6.4695476,-2.54252 -6.4779627,-2.550935 -0.017497,-0.0175 1.4916927,-3.893258 1.5347607,-3.941428 0.01553,-0.01737 2.410611,0.901907 5.322408,2.042831 2.911798,1.140924 5.840367,2.287402 6.507932,2.547729 0.945688,0.368786 1.211315,0.486657 1.20271,0.533697 -0.0061,0.03321 -0.349306,0.925991 -0.762738,1.983967 -0.53435,1.367407 -0.767995,1.923039 -0.808071,1.921682 -0.03101,-0.001 -2.964575,-1.142944 -6.519039,-2.537543 z"
   id="path4666"
   inkscape:connector-curvature="0" /></svg>