<?xml version="1.0" encoding="UTF-8" standalone="no"?>
<svg
   xmlnsDc="http://purl.org/dc/elements/1.1/"
   xmlnsCc="http://creativecommons.org/ns#"
   xmlnsRdf="http://www.w3.org/1999/02/22-rdf-syntax-ns#"
   xmlnsSvg="http://www.w3.org/2000/svg"
   xmlns="http://www.w3.org/2000/svg"
   xmlnsSodipodi="http://sodipodi.sourceforge.net/DTD/sodipodi-0.dtd"
   xmlnsInkscape="http://www.inkscape.org/namespaces/inkscape"
   version="1.1"
   x="0px"
   y="0px"
   viewBox="0 0 32 32"
   xml:space="preserve"
   id="svg3797"
   sodipodiDocname="cloud.svg"
   width="32"
   height="32"
   inkscapeVersion="0.92.4 (5da689c313, 2019-01-14)"><metadata
     id="metadata3803"><rdf:RDF><cc:Work
         rdfAbout=""><dc:format>image/svg+xml</dc:format><dc:type
           rdfResource="http://purl.org/dc/dcmitype/StillImage" /><dc:title></dc:title></cc:Work></rdf:RDF></metadata><defs
     id="defs3801" /><sodipodi:namedview
     pagecolor="#ffffff"
     bordercolor="#666666"
     borderopacity="1"
     objecttolerance="10"
     gridtolerance="10"
     guidetolerance="10"

     id="namedview3799"
     showgrid="false"
/><path
     d="m 31.772422,19.36963 c 0,-3.129531 -1.709879,-5.704462 -4.021383,-6.417521 -0.09499,-4.912175 -3.293099,-8.8339928 -7.21949,-8.8339928 -2.311502,0 -4.338026,1.3468868 -5.667931,3.4464459 -0.728282,-1.1884304 -1.899866,-1.9807165 -3.198109,-1.9807165 -2.2481733,0 -4.0530463,2.2580169 -4.0530463,5.0706324 0,0.237688 0,0.475373 0.031663,0.713059 -0.3483081,-0.07923 -0.6966168,-0.118845 -1.0449255,-0.118845 -3.2297715,0.03962 -5.85791896,3.327604 -5.85791896,7.368266 0,4.04066 2.62814746,7.368264 5.85791916,7.368264 H 26.484462 v 0 c 2.913128,-0.03962 5.28796,-2.971074 5.28796,-6.615592 z"
     id="path3791"
     inkscapeConnector-curvature="0"
     style="stroke-width:0.35417014" 
     fill="#111414"
     />
     </svg>