<?xml version="1.0" encoding="UTF-8" standalone="no"?>
<svg
   xmlns:dc="http://purl.org/dc/elements/1.1/"
   xmlns:cc="http://creativecommons.org/ns#"
   xmlns:rdf="http://www.w3.org/1999/02/22-rdf-syntax-ns#"
   xmlns:svg="http://www.w3.org/2000/svg"
   xmlns="http://www.w3.org/2000/svg"
   xmlns:sodipodi="http://sodipodi.sourceforge.net/DTD/sodipodi-0.dtd"
   xmlns:inkscape="http://www.inkscape.org/namespaces/inkscape"
   version="1.1"
   x="0px"
   y="0px"
   viewBox="0 0 32 32"
   xml:space="preserve"
   id="svg3797"
   sodipodi:docname="cloudBad.svg"
   width="32"
   height="32"
   inkscape:version="0.92.4 (5da689c313, 2019-01-14)"><metadata
     id="metadata3803"><rdf:RDF><cc:Work
         rdf:about=""><dc:format>image/svg+xml</dc:format><dc:type
           rdf:resource="http://purl.org/dc/dcmitype/StillImage" /><dc:title></dc:title></cc:Work></rdf:RDF></metadata><defs
     id="defs3801" /><sodipodi:namedview
     pagecolor="#ffffff"
     bordercolor="#666666"
     borderopacity="1"
     objecttolerance="10"
     gridtolerance="10"
     guidetolerance="10"
     inkscape:pageopacity="0"
     inkscape:pageshadow="2"
     inkscape:window-width="1366"
     inkscape:window-height="705"
     id="namedview3799"
     showgrid="false"
     inkscape:zoom="10.680141"
     inkscape:cx="3.8545831"
     inkscape:cy="15.202241"
     inkscape:window-x="-8"
     inkscape:window-y="-8"
     inkscape:window-maximized="1"
     inkscape:current-layer="svg3797" /><path
     id="path10"
     d="m 19.937134,4.7633048 c -2.944401,0 -5.479935,1.7617066 -6.827328,4.336143 -0.33591,-0.063962 -0.679504,-0.1114269 -1.034578,-0.1114269 -2.5758838,0 -4.7428803,1.7864641 -5.5451583,4.2618831 -0.1170736,-0.0083 -0.2303342,-0.03717 -0.3512699,-0.03717 -3.25532,0 -5.89642871,2.838481 -5.89642871,6.337075 0,3.498593 2.64110871,6.337074 5.89642871,6.337074 H 25.833563 c 3.255319,0 5.896428,-2.838481 5.896428,-6.337074 0,-2.768372 -1.662173,-5.09937 -3.965466,-5.961666 0.0039,-0.127872 0.03451,-0.247484 0.03451,-0.375409 0,-4.6661354 -3.520167,-8.4494322 -7.861905,-8.4494322 z"
     inkscape:connector-curvature="0"
     style="fill=#212529;fill-opacity:1;stroke-width:0.06367481"
     sodipodi:nodetypes="ccscssssscscc" /></svg>