<?xml version="1.0" encoding="UTF-8"?>
<svg version="1.1" viewBox="0 0 32 32" xml:space="preserve" xmlns="http://www.w3.org/2000/svg" xmlnsCc="http://creativecommons.org/ns#" xmlnsDc="http://purl.org/dc/elements/1.1/" xmlnsRdf="http://www.w3.org/1999/02/22-rdf-syntax-ns#"><g transform="matrix(1.9491 0 0 1.9491 .22041 .37346)"><circle cx="9.5" cy="12.5" r=".5"/><circle cx="6.5" cy="7.5" r=".5"/><path d="m10.776 3.524c-0.818-1.043-1.663-2.121-2.345-3.278-0.18-0.305-0.682-0.305-0.861 0-0.683 1.157-1.528 2.235-2.346 3.278-1.658 2.115-3.224 4.113-3.224 6.476 0 3.309 2.691 6 6 6s6-2.691 6-6c0-2.363-1.566-4.361-3.224-6.476zm-4.276 2.476c0.827 0 1.5 0.673 1.5 1.5s-0.673 1.5-1.5 1.5-1.5-0.673-1.5-1.5 0.673-1.5 1.5-1.5zm3 8c-0.827 0-1.5-0.673-1.5-1.5s0.673-1.5 1.5-1.5 1.5 0.673 1.5 1.5-0.673 1.5-1.5 1.5zm1.354-6.146-5 5c-0.098 0.097-0.226 0.146-0.354 0.146s-0.256-0.049-0.354-0.146c-0.195-0.195-0.195-0.512 0-0.707l5-5c0.195-0.195 0.512-0.195 0.707 0s0.196 0.512 1e-3 0.707z" fill="#212529"/></g></svg>
