<?xml version="1.0" encoding="UTF-8" standalone="no"?>
<svg
   xmlns:dc="http://purl.org/dc/elements/1.1/"
   xmlns:cc="http://creativecommons.org/ns#"
   xmlns:rdf="http://www.w3.org/1999/02/22-rdf-syntax-ns#"
   xmlns:svg="http://www.w3.org/2000/svg"
   xmlns="http://www.w3.org/2000/svg"
   xmlns:sodipodi="http://sodipodi.sourceforge.net/DTD/sodipodi-0.dtd"
   xmlns:inkscape="http://www.inkscape.org/namespaces/inkscape"
   version="1.1"
   x="0px"
   y="0px"
   viewBox="1 -1 32 32"
   xml:space="preserve"
   id="svg3769"
   sodipodi:docname="lightPol.svg"
   width="32"
   height="32"
   inkscape:version="0.92.4 (5da689c313, 2019-01-14)"><metadata
     id="metadata3775"><rdf:RDF><cc:Work
         rdf:about=""><dc:format>image/svg+xml</dc:format><dc:type
           rdf:resource="http://purl.org/dc/dcmitype/StillImage" /><dc:title></dc:title></cc:Work></rdf:RDF></metadata><defs
     id="defs3773" /><sodipodi:namedview
     pagecolor="#ffffff"
     bordercolor="#666666"
     borderopacity="1"
     objecttolerance="10"
     gridtolerance="10"
     guidetolerance="10"
     inkscape:pageopacity="0"
     inkscape:pageshadow="2"
     inkscape:window-width="1366"
     inkscape:window-height="705"
     id="namedview3771"
     showgrid="false"
     inkscape:zoom="8.576"
     inkscape:cx="36.784994"
     inkscape:cy="19.355165"
     inkscape:window-x="-8"
     inkscape:window-y="-8"
     inkscape:window-maximized="1"
     inkscape:current-layer="svg3769" /><g
     id="g3763"
     transform="matrix(0.33361445,0,0,0.33361445,0.00200477,-1.2934903)"><path
       d="m 51.1,69.8 c 11.4,0 20.7,-9.3 20.7,-20.7 0,-11.4 -9.3,-20.6 -20.7,-20.6 -11.4,0 -20.6,9.2 -20.6,20.6 0,11.4 9.2,20.7 20.6,20.7 z m 0,-39 c 10.1,0 18.4,8.3 18.4,18.4 0,10.1 -8.3,18.3 -18.4,18.3 z"
       id="path3745"
       fill="#111414"
       inkscape:connector-curvature="0" /><rect
       x="50"
       y="80.199997"
       width="2.3"
       height="15.5"
       id="rect3747" /><rect
       x="50"
       y="2.3"
       width="2.3"
       height="15.5"
       id="rect3749" /><rect
       x="4.3000002"
       y="48"
       width="15.5"
       height="2.3"
       id="rect3751" /><rect
       x="82.199997"
       y="48"
       width="15.5"
       height="2.3"
       id="rect3753" /><rect
       x="15.7"
       y="75.400002"
       transform="matrix(0.7071,-0.7071,0.7071,0.7071,-47.2877,39.0287)"
       width="15.5"
       height="2.3"
       id="rect3755" /><rect
       x="70.900002"
       y="20.4"
       transform="matrix(0.7071,-0.7071,0.7071,0.7071,7.8237,61.9285)"
       width="15.5"
       height="2.3"
       id="rect3757" /><rect
       x="22.4"
       y="13.7"
       transform="matrix(0.7071,-0.7071,0.7071,0.7071,-8.2821,22.9229)"
       width="2.3"
       height="15.5"
       id="rect3759" /><rect
       x="77.5"
       y="68.900002"
       transform="matrix(0.7071,-0.7071,0.7071,0.7071,-31.1819,78.0343)"
       width="2.3"
       height="15.5"
       id="rect3761" /></g></svg>