<?xml version="1.0" encoding="UTF-8" standalone="no"?>
<svg
   xmlnsDc="http://purl.org/dc/elements/1.1/"
   xmlnsCc="http://creativecommons.org/ns#"
   xmlnsRdf="http://www.w3.org/1999/02/22-rdf-syntax-ns#"
   xmlnsSvg="http://www.w3.org/2000/svg"
   xmlns="http://www.w3.org/2000/svg"
   xmlnsSodipodi="http://sodipodi.sourceforge.net/DTD/sodipodi-0.dtd"
   xmlnsInkscape="http://www.inkscape.org/namespaces/inkscape"
   version="1.1"
   x="0px"
   y="0px"
   viewBox="1 -1 32 32"
   xmlSpace="preserve"
   id="svg3769"
   sodipodiDocname="lightPol.svg"
   width="32"
   height="32"
   inkscapeVersion="0.92.4 (5da689c313, 2019-01-14)"><metadata
     id="metadata3775"><rdfRDF><ccWork
         rdfAbout=""><dcFormat>image/svg+xml</dcFormat><dcType
           rdfResource="http://purl.org/dc/dcmitype/StillImage" /><dcTitle></dcTitle></ccWork></rdfRDF></metadata><defs
     id="defs3773" /><sodipodiNamedview
     pagecolor="#ffffff"
     bordercolor="#666666"
     borderopacity="1"
     objecttolerance="10"
     gridtolerance="10"
     guidetolerance="10"

     id="namedview3771"
     showgrid="false"
 /><g
     id="g3763"
     transform="matrix(0.33361445,0,0,0.33361445,0.00200477,-1.2934903)"><path
       d="m 51.1,69.8 c 11.4,0 20.7,-9.3 20.7,-20.7 0,-11.4 -9.3,-20.6 -20.7,-20.6 -11.4,0 -20.6,9.2 -20.6,20.6 0,11.4 9.2,20.7 20.6,20.7 z m 0,-39 c 10.1,0 18.4,8.3 18.4,18.4 0,10.1 -8.3,18.3 -18.4,18.3 z"
       id="path3745"
       fill="#212529"
  /><rect
       x="50"
       y="80.199997"
       width="2.3"
       height="15.5"
       id="rect3747" /><rect
       x="50"
       y="2.3"
       width="2.3"
       height="15.5"
       id="rect3749" /><rect
       x="4.3000002"
       y="48"
       width="15.5"
       height="2.3"
       id="rect3751" /><rect
       x="82.199997"
       y="48"
       width="15.5"
       height="2.3"
       id="rect3753" /><rect
       x="15.7"
       y="75.400002"
       transform="matrix(0.7071,-0.7071,0.7071,0.7071,-47.2877,39.0287)"
       width="15.5"
       height="2.3"
       id="rect3755" /><rect
       x="70.900002"
       y="20.4"
       transform="matrix(0.7071,-0.7071,0.7071,0.7071,7.8237,61.9285)"
       width="15.5"
       height="2.3"
       id="rect3757" /><rect
       x="22.4"
       y="13.7"
       transform="matrix(0.7071,-0.7071,0.7071,0.7071,-8.2821,22.9229)"
       width="2.3"
       height="15.5"
       id="rect3759" /><rect
       x="77.5"
       y="68.900002"
       transform="matrix(0.7071,-0.7071,0.7071,0.7071,-31.1819,78.0343)"
       width="2.3"
       height="15.5"
       id="rect3761" /></g></svg>