<?xml version="1.0" encoding="UTF-8" standalone="no"?>
<svg
   xmlns:dc="http://purl.org/dc/elements/1.1/"
   xmlns:cc="http://creativecommons.org/ns#"
   xmlns:rdf="http://www.w3.org/1999/02/22-rdf-syntax-ns#"
   xmlns:svg="http://www.w3.org/2000/svg"
   xmlns="http://www.w3.org/2000/svg"
   xmlns:sodipodi="http://sodipodi.sourceforge.net/DTD/sodipodi-0.dtd"
   xmlns:inkscape="http://www.inkscape.org/namespaces/inkscape"
   width="32"
   height="32"
   viewBox="0 0 32 32"
   version="1.1"
   id="svg3893"
   sodipodi:docname="moreInfo.svg"
   inkscape:version="0.92.4 (5da689c313, 2019-01-14)">
  <metadata
     id="metadata3899">
    <rdf:RDF>
      <cc:Work
         rdf:about="">
        <dc:format>image/svg+xml</dc:format>
        <dc:type
           rdf:resource="http://purl.org/dc/dcmitype/StillImage" />
        <dc:title></dc:title>
      </cc:Work>
    </rdf:RDF>
  </metadata>
  <defs
     id="defs3897" />
  <sodipodi:namedview
     pagecolor="#ffffff"
     bordercolor="#666666"
     borderopacity="1"
     objecttolerance="10"
     gridtolerance="10"
     guidetolerance="10"
     inkscape:pageopacity="0"
     inkscape:pageshadow="2"
     inkscape:window-width="1366"
     inkscape:window-height="705"
     id="namedview3895"
     showgrid="false"
     inkscape:zoom="9.8333333"
     inkscape:cx="12"
     inkscape:cy="12"
     inkscape:window-x="-8"
     inkscape:window-y="-8"
     inkscape:window-maximized="1"
     inkscape:current-layer="svg3893" />
  <path
     d="M 0,8 H 24 V 32 H 0 Z"
     id="path3889"
     inkscape:connector-curvature="0"
     style="fill:none" />
  <path
     d="m 16.118644,0.33898305 c -8.6355253,0 -15.64406773,7.00854245 -15.64406773,15.64406795 0,8.635526 7.00854243,15.644068 15.64406773,15.644068 8.635526,0 15.644068,-7.008542 15.644068,-15.644068 0,-8.6355255 -7.008542,-15.64406795 -15.644068,-15.64406795 z M 17.683051,26.933899 h -3.128813 v -3.128814 h 3.128813 z m 3.238322,-12.124153 -1.407966,1.439255 c -1.126372,1.142016 -1.830356,2.08066 -1.830356,4.427271 h -3.128813 v -0.782204 c 0,-1.720847 0.703983,-3.285254 1.830356,-4.427271 l 1.939864,-1.971152 c 0.57883,-0.563187 0.923,-1.345391 0.923,-2.205814 0,-1.7208479 -1.407966,-3.128814 -3.128814,-3.128814 -1.720847,0 -3.128814,1.4079661 -3.128814,3.128814 H 9.8610172 c 0,-3.4573394 2.8002888,-6.2576276 6.2576268,-6.2576276 3.457339,0 6.257627,2.8002882 6.257627,6.2576276 0,1.376678 -0.563186,2.628203 -1.454898,3.519915 z"
     id="path3891"
     inkscape:connector-curvature="0"
     style="stroke-width:1.56440687" />
</svg>
